<?xml version="1.0" encoding="UTF-8"?>
<!DOCTYPE svg PUBLIC "-//W3C//DTD SVG 1.1//EN" "http://www.w3.org/Graphics/SVG/1.1/DTD/svg11.dtd">
<!-- Creator: CorelDRAW 2017 -->
<svg xmlns="http://www.w3.org/2000/svg" xml:space="preserve" width="172.156mm" height="172.156mm" version="1.1" style="shape-rendering:geometricPrecision; text-rendering:geometricPrecision; image-rendering:optimizeQuality; fill-rule:evenodd; clip-rule:evenodd"
viewBox="0 0 1440.83 1440.83"
 xmlns:xlink="http://www.w3.org/1999/xlink">
 <defs>
  <style type="text/css">
   <![CDATA[
    .fil0 {fill:none}
    .fil4 {fill:#825D22}
    .fil6 {fill:#DC3B28}
    .fil1 {fill:#FAEE93}
    .fil3 {fill:#FFF095}
    .fil2 {fill:#FFF8C2}
    .fil5 {fill:#70543B;fill-rule:nonzero}
   ]]>
  </style>
 </defs>
 <g id="Capa_x0020_1">
  <metadata id="CorelCorpID_0Corel-Layer"/>
  <rect class="fil0" x="-0" y="-0" width="1440.83" height="1440.83"/>
  <g id="_2256252432384">
   <path class="fil1" d="M235.01 976.07c34.86,-21.81 79.27,-38.68 103.79,-36.71 3.08,13.66 2.55,39.97 -1.61,60.17 -36.39,0 -66.85,7.78 -83.44,13.32 -5.46,-6.27 -11.31,-17.74 -18.74,-36.78z"/>
   <path class="fil1" d="M1223.38 976.07c-34.86,-21.81 -79.27,-38.68 -103.79,-36.71 -3.08,13.66 -2.55,39.97 1.61,60.17 36.39,0 66.85,7.78 83.44,13.32 5.46,-6.27 11.31,-17.74 18.74,-36.78z"/>
   <path class="fil2" d="M1136.93 1165.57c-1.71,-60.35 -6.76,-169.59 -8.6,-205.61 36.16,5.64 69.18,32.85 93.16,40.01 10.75,-23.85 109.07,-166.24 78.87,-268.23 -67.49,-227.87 -218.52,-375.49 -264.18,-397.38 -59,-28.28 -106.1,-45.59 -174.77,-67.18 -24.78,67.46 -108.89,87.88 -132.2,106.91 -26.87,-21.36 -104.12,-57.31 -132.2,-106.91 -68.68,21.58 -115.77,38.89 -174.77,67.18 -45.66,21.89 -196.7,169.5 -264.18,397.38 -30.21,101.99 68.11,244.38 78.87,268.23 23.98,-7.16 57,-34.37 93.16,-40.01 -1.84,36.02 -6.89,145.26 -8.6,205.61 303.83,66.45 505.64,64.99 815.46,0z"/>
   <path class="fil1" d="M373.18 632.53c-35.94,62.09 -56.65,203.28 -43.12,327.44 4.89,-122.11 31.17,-260.12 43.12,-327.44z"/>
   <path class="fil1" d="M1085.21 632.53c35.94,62.09 56.65,203.28 43.12,327.44 -4.89,-122.11 -31.17,-260.12 -43.12,-327.44z"/>
   <path class="fil3" d="M848.22 261.22c2.67,-0.57 81.07,23.56 83.61,26.29 -21.24,64.17 -30.39,103.06 -69.83,132.66 -20.17,-25.03 -58.85,-72.01 -102.08,-59.36 -16.3,9.62 -28.42,17.12 -30.73,19.53 -2.3,-2.42 -14.43,-9.91 -30.73,-19.53 -43.23,-12.65 -81.92,34.33 -102.08,59.36 -39.44,-29.6 -48.59,-68.49 -69.83,-132.66 2.54,-2.73 80.94,-26.86 83.61,-26.29 31.06,36.98 76.12,82.51 119.03,104.56 42.91,-22.05 87.97,-67.58 119.03,-104.56z"/>
   <circle class="fil4" cx="873.04" cy="304.61" r="14.44"/>
   <circle class="fil4" cx="826.72" cy="337.17" r="14.44"/>
   <circle class="fil4" cx="869.37" cy="372.03" r="14.44"/>
   <circle class="fil4" cx="577.24" cy="303.69" r="14.44"/>
   <circle class="fil4" cx="625.85" cy="333.04" r="14.44"/>
   <circle class="fil4" cx="592.42" cy="364.81" r="14.44"/>
   <g>
    <path class="fil5" d="M686.85 572.32c20.85,14.4 34.88,36.94 42.93,60.82 9.6,28.48 10.73,59.17 4.81,80.19l-13.89 -3.9c5.22,-18.53 4.1,-45.96 -4.58,-71.72 -7.15,-21.2 -19.41,-41.08 -37.45,-53.53 -8.68,-6.18 -0.98,-16.77 8.19,-11.86z"/>
    <path class="fil6" d="M578.42 734.3c0,49.52 18.9,97.94 61.64,126.08 11.07,7.29 30.91,16.62 49.84,16.62 15.04,0 23.67,-3.16 33.06,-11.31 0.91,-0.79 0.89,-1.02 1.58,-1.68 2.35,-2.23 6.83,-2.3 9.4,0.23 0.75,0.74 0.59,0.77 1.63,1.64l5.24 4.21c6.98,4.46 16.28,6.92 25.83,6.92 20.44,0 39.3,-8.5 51.6,-16.63 13.17,-8.7 23.08,-18.28 32.89,-31.29 23.75,-31.48 37.88,-90.77 22.25,-131.26 -1.94,-5.02 -4.51,-9.39 -7.44,-13.71 -5.48,-8.07 -13.82,-15.59 -23.05,-20.79 -27.32,-15.38 -70.71,-17.05 -100.34,-6.35 -5.12,1.85 -6.84,3.74 -13.41,3.74 -9.59,0 -19.48,-9.82 -53.37,-10.43 -58.44,-1.06 -97.36,26.55 -97.36,84.02z"/>
   </g>
  </g>
 </g>
</svg>
