<?xml version="1.0" encoding="UTF-8"?>
<!DOCTYPE svg PUBLIC "-//W3C//DTD SVG 1.1//EN" "http://www.w3.org/Graphics/SVG/1.1/DTD/svg11.dtd">
<!-- Creator: CorelDRAW 2017 -->
<svg xmlns="http://www.w3.org/2000/svg" xml:space="preserve" width="172.156mm" height="172.156mm" version="1.1" style="shape-rendering:geometricPrecision; text-rendering:geometricPrecision; image-rendering:optimizeQuality; fill-rule:evenodd; clip-rule:evenodd"
viewBox="0 0 1780.37 1780.37"
 xmlns:xlink="http://www.w3.org/1999/xlink">
 <defs>
  <style type="text/css">
   <![CDATA[
    .fil0 {fill:none}
    .fil1 {fill:#FEFEFE}
    .fil2 {fill:#D2D3D5}
    .fil7 {fill:#EF4C6A}
    .fil6 {fill:#2C3F71}
    .fil5 {fill:#4B5692}
    .fil3 {fill:#F9EC7A}
    .fil4 {fill:#BDBFC1;fill-rule:nonzero}
   ]]>
  </style>
 </defs>
 <g id="Capa_x0020_1">
  <metadata id="CorelCorpID_0Corel-Layer"/>
  <rect class="fil0" x="-0" y="-0" width="1780.37" height="1780.37"/>
  <g id="_2256458263824">
   <path class="fil1" d="M897.35 1425.38c-120.52,-1.18 -269.36,-12.71 -381.65,-26.48 0.6,-8.22 -58.75,-657.61 7.47,-1038.31 73.41,-35.19 141.56,-61.35 227.21,-88.22 48.43,45.76 77.49,83.41 139.42,113.23 73.62,-42.55 96.4,-66.92 146.6,-115.7 89.24,27.74 159.46,54.43 235.12,90.69 78.8,326.32 20.37,1034.57 20.13,1036.73 -113.57,14.46 -269.21,26.84 -394.31,28.06z"/>
   <path class="fil2" d="M1066.23 1418.58l-6.43 0.41c-16.58,-109.09 -28.47,-242.17 -36.73,-381.63 -13.37,-225.88 -17.21,-468.61 -16,-653.14l6.4 0.03c-1.21,184.34 2.63,426.88 16,652.73 8.26,139.5 20.16,272.59 36.76,381.59z"/>
   <path class="fil2" d="M956.93 1424.06l-6.41 0.21c-3.78,-64.7 -7.69,-128.66 -11.55,-191.76 -17.62,-288.07 -34.15,-558.16 -32.53,-804.75l6.4 0.03c-1.62,246.23 14.91,516.31 32.53,804.35 3.86,63.11 7.77,127.09 11.57,191.93z"/>
   <path class="fil2" d="M842.18 1424.2l-6.41 -0.21c9.76,-150.02 17.77,-313.81 23.38,-476.01 6.58,-190.09 9.87,-378.08 8.81,-539.25l6.4 -0.03c1.06,161.29 -2.23,349.36 -8.81,539.48 -5.62,162.34 -13.63,326.14 -23.37,476.02z"/>
   <path class="fil2" d="M730.68 1418.72l-6.43 -0.42c17.23,-110.43 29.51,-246.59 37.97,-389.47 13.1,-221.38 17.05,-458.8 16.07,-641.71 -0.01,-2.74 3.93,-4.92 6.37,-5.7 1.21,184.53 -2.66,421.9 -16.03,647.78 -8.46,142.84 -20.73,278.98 -37.94,389.51z"/>
   <path class="fil3" d="M858.52 511.05c-10.57,36.74 -42.78,296.46 -68.03,504.18 -3.48,28.64 84.93,150.97 100.36,149 26.72,-3.41 103.82,-117.96 99.16,-149.03 -30.3,-202.09 -56.79,-477.72 -67.1,-502.32 -11.7,-27.94 -52.26,-44.02 -64.4,-1.83z"/>
   <path class="fil4" d="M739.77 275.24c9.61,24.03 16.93,43.85 22.55,62.56 4.64,15.44 8.15,30.16 10.89,45.89 3.04,-2.54 5.77,-5.08 8.21,-7.6 4.94,-5.11 8.65,-10.12 11.3,-14.76l4.22 -7.39 5.94 6.11c17.28,17.77 42.56,32.05 42.63,32.1l-6.48 11.04c-0.07,-0.04 -21.74,-12.29 -39.59,-28.64 -2.46,3.4 -5.37,6.9 -8.78,10.43 -4.99,5.16 -11.08,10.41 -18.42,15.54l-8.5 5.94 -1.52 -10.25c-2.84,-19.22 -6.71,-36.45 -12.2,-54.72 -5.54,-18.43 -12.72,-37.89 -22.14,-61.45l11.89 -4.77z"/>
   <g>
    <path class="fil1" d="M286.71 1145.8c43.07,-26.95 97.95,-47.79 128.25,-45.36 3.81,16.88 3.16,49.39 -1.99,74.35 -44.96,0 -82.6,9.61 -103.11,16.46 -6.75,-7.74 -13.97,-21.92 -23.15,-45.45z"/>
    <path class="fil5" d="M396.42 1503.28c-15,-32.71 -7.01,-91.17 -2.88,-123.32 2.11,-74.57 8.36,-209.55 10.63,-254.06 -44.68,6.97 -85.49,40.59 -115.12,49.44 -13.29,-29.47 -134.77,-205.42 -97.45,-331.44 83.39,-281.57 270.02,-463.98 326.44,-491.02 72.91,-34.95 131.1,-56.34 215.96,-83.01 -6.22,282.58 -15.57,664.03 -57.94,1022.23 -13.89,117.39 -183.52,209.61 -279.63,211.17z"/>
    <path class="fil6" d="M457.44 721.3c-44.4,76.72 -69.99,251.18 -53.28,404.6 6.05,-150.89 38.52,-321.42 53.28,-404.6z"/>
   </g>
   <path class="fil4" d="M1066.83 280.02c-9.42,23.56 -16.6,43.02 -22.14,61.45 -5.49,18.27 -9.36,35.5 -12.2,54.72l-1.52 10.25 -8.5 -5.94c-7.8,-5.45 -14.82,-11.4 -21.08,-18.21 -4.49,-4.88 -8.6,-10.21 -12.35,-16.11l-6.53 6.81c-13.92,14.53 -26.93,28.12 -34.29,33.21l-7.28 -10.54c6.25,-4.32 18.85,-17.48 32.33,-31.55 4,-4.17 8.07,-8.43 12.44,-12.91l6.08 -6.26 4.16 7.68c4.33,8.01 9.28,14.89 14.88,20.98 3.33,3.62 6.88,6.96 10.67,10.09 2.73,-15.73 6.25,-30.46 10.89,-45.91 5.62,-18.71 12.94,-38.52 22.55,-62.56l11.89 4.77z"/>
   <g>
    <path class="fil1" d="M1508 1145.8c-43.07,-26.95 -97.95,-47.79 -128.25,-45.36 -3.81,16.88 -3.16,49.39 1.99,74.35 44.96,0 82.61,9.61 103.11,16.46 6.75,-7.74 13.97,-21.92 23.15,-45.45z"/>
    <path class="fil5" d="M1398.29 1503.28c15,-32.71 7.01,-91.17 2.88,-123.32 -2.11,-74.57 -8.36,-209.55 -10.63,-254.06 44.68,6.97 85.48,40.59 115.11,49.44 13.29,-29.47 134.77,-205.42 97.45,-331.44 -83.39,-281.57 -270.02,-463.98 -326.44,-491.02 -72.91,-34.95 -131.1,-56.34 -215.96,-83.01 6.22,282.58 15.57,664.03 57.94,1022.23 13.89,117.39 183.52,209.61 279.63,211.17z"/>
    <path class="fil6" d="M1337.26 721.3c44.4,76.72 69.99,251.18 53.28,404.6 -6.05,-150.89 -38.52,-321.42 -53.28,-404.6z"/>
   </g>
   <path class="fil3" d="M858.52 511.05c-13.1,-7.18 -36.71,-100.83 -23.22,-116.62 11.3,-13.23 105.14,-10.31 114.56,0.23 9.36,10.48 -14.24,113.44 -26.94,118.23 -11.71,4.41 -52.25,4.82 -64.4,-1.83z"/>
   <polygon class="fil1" points="599.86,715.78 605.38,724.73 614.57,727.94 608.8,736.69 608.95,747.62 599.86,744.08 590.77,747.62 590.92,736.69 585.15,727.94 594.33,724.73 "/>
   <polygon class="fil1" points="355.2,640.12 360.72,649.07 369.91,652.28 364.14,661.03 364.29,671.96 355.2,668.42 346.11,671.96 346.26,661.03 340.49,652.28 349.67,649.07 "/>
   <polygon class="fil1" points="262.72,923.01 268.24,931.95 277.43,935.17 271.66,943.91 271.81,954.85 262.72,951.3 253.63,954.85 253.78,943.91 248.01,935.17 257.19,931.95 "/>
   <polygon class="fil1" points="515.69,1312.54 521.21,1321.48 530.4,1324.7 524.63,1333.44 524.78,1344.38 515.69,1340.83 506.6,1344.38 506.75,1333.44 500.98,1324.7 510.16,1321.48 "/>
   <polygon class="fil1" points="1176.56,1208.11 1182.08,1217.06 1191.27,1220.27 1185.5,1229.02 1185.65,1239.95 1176.56,1236.41 1167.47,1239.95 1167.62,1229.02 1161.85,1220.27 1171.03,1217.06 "/>
   <polygon class="fil1" points="1312.72,860.28 1318.25,869.23 1327.43,872.44 1321.66,881.19 1321.81,892.12 1312.72,888.58 1303.63,892.12 1303.78,881.19 1298.01,872.44 1307.19,869.23 "/>
   <polygon class="fil1" points="1144.85,410.5 1150.38,419.45 1159.56,422.66 1153.79,431.41 1153.94,442.34 1144.85,438.8 1135.76,442.34 1135.91,431.41 1130.14,422.66 1139.33,419.45 "/>
   <polygon class="fil1" points="1392.37,535.63 1397.9,544.57 1407.08,547.79 1401.31,556.53 1401.46,567.47 1392.37,563.92 1383.28,567.47 1383.43,556.53 1377.66,547.79 1386.85,544.57 "/>
   <polygon class="fil1" points="1531.1,962.67 1536.62,971.62 1545.81,974.83 1540.04,983.58 1540.19,994.51 1531.09,990.97 1522,994.51 1522.15,983.58 1516.39,974.83 1525.57,971.62 "/>
   <polygon class="fil7" points="354.29,810.4 359.82,819.35 369,822.57 363.23,831.31 363.38,842.24 354.29,838.7 345.2,842.24 345.35,831.31 339.58,822.57 348.76,819.35 "/>
   <polygon class="fil7" points="564.51,1036.75 570.04,1045.7 579.22,1048.91 573.46,1057.66 573.61,1068.59 564.51,1065.05 555.42,1068.59 555.57,1057.66 549.8,1048.91 558.99,1045.7 "/>
   <polygon class="fil7" points="1173.89,656.44 1179.41,665.39 1188.6,668.6 1182.83,677.35 1182.98,688.28 1173.89,684.74 1164.79,688.28 1164.95,677.35 1159.18,668.6 1168.36,665.39 "/>
   <polygon class="fil7" points="1293.57,1050.85 1299.09,1059.79 1308.28,1063.01 1302.51,1071.75 1302.66,1082.69 1293.57,1079.15 1284.48,1082.69 1284.63,1071.75 1278.86,1063.01 1288.04,1059.79 "/>
   <polygon class="fil7" points="1500.29,784.28 1505.82,793.23 1515,796.45 1509.23,805.19 1509.38,816.12 1500.29,812.58 1491.2,816.12 1491.35,805.19 1485.58,796.45 1494.76,793.23 "/>
   <polygon class="fil7" points="529.14,449.22 534.67,458.16 543.85,461.38 538.08,470.13 538.23,481.06 529.14,477.52 520.05,481.06 520.2,470.13 514.43,461.38 523.62,458.16 "/>
  </g>
 </g>
</svg>
