<?xml version="1.0" encoding="UTF-8"?>
<!DOCTYPE svg PUBLIC "-//W3C//DTD SVG 1.1//EN" "http://www.w3.org/Graphics/SVG/1.1/DTD/svg11.dtd">
<!-- Creator: CorelDRAW 2017 -->
<svg xmlns="http://www.w3.org/2000/svg" xml:space="preserve" width="172.156mm" height="172.156mm" version="1.1" style="shape-rendering:geometricPrecision; text-rendering:geometricPrecision; image-rendering:optimizeQuality; fill-rule:evenodd; clip-rule:evenodd"
viewBox="0 0 1208.67 1208.67"
 xmlns:xlink="http://www.w3.org/1999/xlink">
 <defs>
  <style type="text/css">
   <![CDATA[
    .fil0 {fill:none}
    .fil9 {fill:#2C3F71}
    .fil3 {fill:#424A87}
    .fil1 {fill:#6274B0}
    .fil7 {fill:#B2B7D4}
    .fil4 {fill:#B75459}
    .fil5 {fill:#D5BEC4}
    .fil8 {fill:#E0B8DA}
    .fil6 {fill:#ECECEC}
    .fil2 {fill:#B18A7A;fill-rule:nonzero}
   ]]>
  </style>
 </defs>
 <g id="Capa_x0020_1">
  <metadata id="CorelCorpID_0Corel-Layer"/>
  <rect class="fil0" x="-0" y="-0" width="1208.67" height="1208.67"/>
  <g id="_2256252430752">
   <path class="fil1" d="M610.71 906.45c-81.82,-0.8 -182.87,-8.63 -259.1,-17.98 0.41,-5.58 -39.88,-446.44 5.07,-704.89 49.84,-23.89 96.1,-41.65 154.25,-59.89 16.26,39.37 25.83,76.02 94.65,76.87 66.6,-0.26 81.14,-28.81 99.53,-78.55 60.58,18.84 108.25,36.95 159.62,61.57 53.5,221.54 13.83,702.36 13.67,703.82 -77.1,9.82 -182.76,18.22 -267.69,19.05z"/>
   <path class="fil2" d="M521.15 264.01c2.61,-8.68 6.12,-13.54 14.95,-15.62 9.74,-2.29 19.25,2.7 21.24,11.14 3.6,15.29 -10.45,34.73 -24.49,54.18 -21.24,-11.14 -42.48,-22.28 -46.08,-37.57 -1.99,-8.44 4.31,-17.15 14.04,-19.44 8.82,-2.08 14.13,0.71 20.34,7.31z"/>
   <path class="fil2" d="M684.59 317.66c5.66,-7.09 10.72,-10.29 19.69,-8.93 9.89,1.5 16.87,9.67 15.57,18.24 -2.35,15.53 -22.62,28.35 -42.9,41.17 -15.57,-18.24 -31.14,-36.49 -28.79,-52.02 1.3,-8.57 10.38,-14.32 20.27,-12.82 8.96,1.36 12.85,5.92 16.16,14.36z"/>
   <path class="fil2" d="M490.59 495.75c-0.04,-9.07 1.89,-14.74 9.72,-19.31 8.64,-5.04 19.2,-3.05 23.57,4.44 7.91,13.57 0.17,36.27 -7.57,58.97 -23.57,-4.44 -47.14,-8.87 -55.06,-22.44 -4.37,-7.49 -0.9,-17.66 7.74,-22.7 7.83,-4.57 13.72,-3.46 21.59,1.04z"/>
   <path class="fil2" d="M704.83 518.42c6.1,-6.71 11.36,-9.58 20.22,-7.65 9.78,2.13 16.21,10.74 14.36,19.21 -3.35,15.35 -24.4,26.83 -45.46,38.32 -14.36,-19.21 -28.72,-38.42 -25.38,-53.77 1.85,-8.47 11.28,-13.62 21.05,-11.49 8.86,1.93 12.45,6.73 15.2,15.37z"/>
   <path class="fil2" d="M589.37 643.72c2.62,-8.68 6.14,-13.54 14.96,-15.6 9.74,-2.28 19.25,2.72 21.23,11.16 3.58,15.29 -10.48,34.72 -24.54,54.15 -21.23,-11.16 -42.46,-22.32 -46.04,-37.61 -1.98,-8.44 4.32,-17.15 14.06,-19.43 8.82,-2.07 14.13,0.72 20.33,7.33z"/>
   <path class="fil2" d="M719.4 805.28c6.86,-5.93 12.43,-8.15 20.99,-5.18 9.45,3.28 14.81,12.59 11.97,20.79 -5.15,14.84 -27.43,23.73 -49.71,32.62 -11.97,-20.79 -23.93,-41.57 -18.78,-56.41 2.85,-8.19 12.82,-12.17 22.28,-8.89 8.56,2.97 11.55,8.17 13.26,17.08z"/>
   <path class="fil2" d="M478.52 779.79c2.93,-8.58 6.61,-13.31 15.51,-15.06 9.82,-1.93 19.14,3.4 20.82,11.91 3.04,15.41 -11.71,34.33 -26.46,53.24 -20.82,-11.91 -41.64,-23.82 -44.68,-39.23 -1.68,-8.51 4.93,-16.98 14.75,-18.92 8.89,-1.75 14.1,1.22 20.06,8.05z"/>
   <g>
    <path class="fil3" d="M148.28 640.06c-18.23,-46.38 -28.05,-90 -16.69,-128.36 56.61,-191.15 183.31,-314.99 221.61,-333.35 49.5,-23.72 89,-38.25 146.61,-56.35 -2.14,97.22 -4.08,190.85 -11.82,345.43 -141.47,125.24 -267.4,181.29 -339.71,172.62z"/>
    <g>
     <path class="fil4" d="M162.41 674.2c-5.17,-11.46 -9.8,-22.55 -14.39,-34.82 45.28,-17.39 88.8,-39.68 133.3,-60.3 5.29,11.94 4.58,23.33 -3.33,42.47 -35.29,40.65 -72.02,52.91 -115.59,52.66z"/>
     <path class="fil5" d="M275.55 661.74c-27.43,40.28 -68.36,46.39 -98.23,43.7 -5.2,-10.27 -9.63,-19.5 -14.91,-31.24 38.76,-15.47 77.39,-34.71 115.59,-52.66 -0.35,22.82 -0.72,34.14 -2.45,40.2z"/>
     <path class="fil6" d="M274 702.63c-12.83,27.5 -48.96,40.27 -79.76,35 -5.92,-10.73 -8.58,-15.61 -16.93,-32.18 33.1,-12.69 66.12,-28.41 98.87,-44.01 -0.2,9.87 -2.54,23.25 -2.19,41.19z"/>
     <path class="fil7" d="M274.26 736.97c-9.95,18.58 -42.83,31.09 -64.87,28.64 -1.9,-4.22 -7.59,-14.15 -15.14,-27.99 27.56,-10.64 52.43,-22.05 79.76,-35 8.83,8.95 9.42,26.73 0.26,34.34z"/>
    </g>
    <g>
     <path class="fil7" d="M262.09 1054.84c-0.29,-64.34 4.33,-161.63 6.59,-179.23 0.6,-21.19 1.7,-49.77 2.88,-77.81 28.53,-28.29 170.38,-77.44 200.12,-51.7 -4.51,57.02 -12.39,149.74 -18.02,198.02 -79.93,108.29 -159.45,121.84 -191.57,110.73z"/>
     <path class="fil8" d="M263.25 1092.29c-0.71,-9.92 -1.07,-22.84 -1.16,-37.45 66.23,-20.77 131.92,-65.18 191.57,-110.73l-0.57 4.82c-9.42,79.69 -124.59,142.3 -189.84,143.36z"/>
     <path class="fil6" d="M271.56 797.8c1.64,-38.89 3.44,-77.12 4.33,-94.66 1.09,-37.63 1.8,-65.29 2.96,-88.5 68.99,-24.43 129.8,-85.2 205.25,-69.25 -3.57,62.77 -7.73,141.47 -12.42,200.71 -64.34,5.59 -137.44,50.76 -200.12,51.7z"/>
     <path class="fil5" d="M278.85 614.64c0.7,-14.17 1.33,-24.18 2.54,-36.25 54.34,-25.19 146.45,-92.5 204.62,-69.54 -0.67,12.51 -1.21,24.03 -1.92,36.54 -65.5,5.7 -140.73,68.14 -205.25,69.25z"/>
     <path class="fil4" d="M281.39 578.38c1.33,-13.82 3.09,-26.98 5.57,-41.3 60.71,-21.66 128.12,-60.77 201.03,-69.75 -0.74,14.82 -1.18,26.63 -1.97,41.52 -65,5.66 -117.67,46.08 -204.62,69.54z"/>
    </g>
    <path class="fil9" d="M310.24 466.82c-30.15,52.09 -47.52,170.52 -36.17,274.68 4.11,-102.43 26.15,-218.21 36.17,-274.68z"/>
    <g>
     <path class="fil6" d="M391.4 489.35c25.45,-10.19 77.87,-6.21 95.9,10.01 -2.85,64.02 -5.66,117.8 -9.58,179.71 -29.98,27.41 -61.84,26.44 -85.2,20.45 4.48,-69.25 2.07,-140.77 -1.11,-210.17z"/>
     <path class="fil7" d="M477.72 679.07c-6.09,97.62 -13.61,191.47 -22.88,269.86 -1.7,14.42 -5.72,25.8 -13.95,39.36 -39.44,-38.13 -45.9,-136.23 -46.48,-222.31 -0.17,-25.57 -0.73,-55.48 -1.06,-80.88 29.38,-1.21 51.29,-2.24 84.37,-6.03z"/>
     <path class="fil5" d="M488.98 461.07c-0.48,11.11 -1.18,27.07 -1.69,38.29 -35.72,4.52 -57.34,7.26 -93.35,7.55 -4.46,-16.9 -2.51,-38.09 -0.63,-54.24 25.96,-9.35 75.08,-12.2 95.67,8.4z"/>
     <path class="fil4" d="M490.55 423.1c-0.42,9.67 -1.1,27.03 -1.57,37.97 -37.35,4.64 -65.51,7.11 -102.42,7.05 -1.92,-24.76 2.34,-38.87 3.19,-39.18 24.93,-17.7 68.2,-16.31 100.8,-5.84z"/>
     <path class="fil3" d="M353.2 176.6c49.5,-23.72 89,-36.5 146.61,-54.61 -1.68,76.13 -4.57,183.76 -9.26,301.1 -36.81,7.2 -65.17,12.37 -102.51,11.01 0.47,-91.07 -11.53,-156.95 -34.84,-257.51z"/>
     <path class="fil8" d="M329.59 192.61c9.6,-7.78 19.61,-15.41 32.86,-20.37 99.95,252.31 -6,628.01 78.43,816.05 -3.41,5.98 -8.22,14.39 -16.15,23.12 -8.02,-46.96 -41.65,-101.67 -42.64,-247.74 -1.3,-191.39 -3.92,-377.03 -52.5,-571.06z"/>
    </g>
   </g>
   <g>
    <path class="fil3" d="M1075.52 629.24c15.21,-40.73 24.34,-83.7 14.31,-117.55 -56.61,-191.15 -183.31,-314.99 -221.61,-333.35 -49.5,-23.72 -89,-38.25 -146.61,-56.35 2.13,96.66 4.57,192.9 10.37,346.05 112.38,100.55 268.39,179.91 343.54,161.2z"/>
    <g>
     <path class="fil4" d="M943.62 622.82c26.59,24.2 80.43,52.74 115.31,45.63 6.14,-13.02 11.37,-25.22 16.59,-39.21 -45.38,-9.9 -90.82,-29.43 -135.88,-50.5 0.37,15.94 1.54,32.56 3.98,44.08z"/>
     <path class="fil5" d="M945.74 669.12c19.18,17.43 67.71,42.68 95.13,35.22 4.27,-9.47 -3.28,9.67 18.06,-35.89 -38.53,-10.86 -77.07,-27.71 -115.31,-45.63 0.79,17.53 0.85,31.85 2.12,46.29z"/>
     <path class="fil6" d="M1023.5 735.5c5.28,-9.15 10.6,-18.51 17.38,-31.16 -37.72,-12.37 -73.61,-24.94 -96.65,-35.94 -1.15,13.27 0.07,20.03 1.31,34.74 10.15,16.77 43.94,38.09 77.97,32.36z"/>
     <path class="fil7" d="M946.92 734.66c19.18,17.43 41.56,25.35 62.45,25.97 1.79,-3.97 7.05,-12.83 14.13,-25.12 -25.88,-9.03 -52.24,-20.48 -77.97,-32.36 -5.1,7.68 -4.36,20.1 1.39,31.52z"/>
    </g>
    <g>
     <path class="fil7" d="M952.74 1049.44c2.07,-63.79 2.23,-156.47 0,-173.82 -0.6,-21.19 -1.77,-51.23 -2.94,-79.28 -28.53,-28.29 -174.6,-76.84 -204.33,-51.09 4.38,55.33 8.96,145.24 14.33,191.99 25.85,56.42 127.69,138.76 192.94,112.2z"/>
     <path class="fil8" d="M950.79 1090.45c0.77,-10.76 1.42,-24.98 1.95,-41.01 -66.77,-21.17 -132.97,-66.25 -192.94,-112.2 0.38,3.31 0.76,6.59 1.15,9.85 9.42,79.69 124.59,142.3 189.84,143.36z"/>
     <path class="fil6" d="M949.8 796.34c-1.21,-28.85 -3,-61.36 -4.27,-93.2 -1.31,-32.61 -2.12,-64.53 -4.29,-90.68 -68.99,-24.43 -131.16,-74.72 -206.61,-58.77 3.57,62.77 6.14,132.31 10.83,191.55 64.34,5.59 140.26,29.47 204.33,51.09z"/>
     <path class="fil5" d="M941.24 612.46c-0.7,-14.17 -1.76,-23.44 -2.97,-35.51 -54.34,-25.19 -147.05,-84.27 -205.22,-61.31 0.67,12.51 0.88,25.54 1.59,38.05 77.68,17.65 140.43,44.93 206.61,58.77z"/>
     <path class="fil4" d="M938.27 576.95c-1.33,-13.82 -3.14,-27.97 -5.62,-42.29 -72.73,-17.49 -111.6,-53.79 -200.67,-66.61 0.74,14.81 0.27,32.7 1.06,47.59 65,5.66 139.04,46.82 205.22,61.31z"/>
    </g>
    <path class="fil9" d="M910.75 459.98c30.15,52.09 47.52,170.52 36.17,274.68 -4.11,-102.43 -26.15,-218.21 -36.17,-274.68z"/>
    <g>
     <path class="fil6" d="M830.02 489.35c-25.45,-10.19 -81.35,-6.21 -99.39,10.01 2.85,64.02 3.21,117.64 7.13,179.54 29.98,27.41 67.78,26.61 91.15,20.61 -4.48,-69.25 -2.07,-140.77 1.11,-210.17z"/>
     <path class="fil7" d="M737.76 678.91c6.09,97.62 13.22,192.98 22.48,271.37 1.7,14.41 6.39,26.36 14.62,39.92 39.44,-38.13 51.58,-138.14 52.16,-224.21 0.17,-25.56 0.73,-55.48 1.06,-80.88 -29.38,-1.21 -57.23,-2.4 -90.31,-6.2z"/>
     <path class="fil5" d="M728.95 461.07c0.48,11.11 1.18,27.07 1.68,38.29 35.72,4.52 60.84,7.26 96.84,7.55 4.46,-16.9 2.51,-38.09 0.64,-54.24 -25.96,-9.35 -78.57,-12.2 -99.16,8.4z"/>
     <path class="fil4" d="M727.38 423.1c0.42,9.67 1.1,27.03 1.57,37.97 37.35,4.64 69,7.11 105.91,7.05 1.92,-24.76 -2.34,-38.87 -3.19,-39.18 -24.93,-17.7 -71.69,-16.31 -104.29,-5.84z"/>
     <path class="fil3" d="M868.22 176.6c-49.5,-23.72 -89,-36.5 -146.61,-54.61 1.67,76.13 0.7,173.37 5.77,301.1 29.42,5.75 67.32,10.09 100.41,10.91 6,-95.2 36.86,-240.37 40.43,-257.41z"/>
     <path class="fil8" d="M891.83 192.61c-9.6,-7.78 -19.61,-15.41 -32.86,-20.37 -99.95,252.31 0.32,629.91 -84.11,817.95 3.41,5.98 11.46,14.59 19.39,23.32 8.02,-46.96 44.1,-103.77 45.09,-249.84 1.3,-191.39 3.92,-377.03 52.5,-571.06z"/>
    </g>
   </g>
  </g>
 </g>
</svg>
