<?xml version="1.0" encoding="UTF-8"?>
<!DOCTYPE svg PUBLIC "-//W3C//DTD SVG 1.1//EN" "http://www.w3.org/Graphics/SVG/1.1/DTD/svg11.dtd">
<!-- Creator: CorelDRAW 2017 -->
<svg xmlns="http://www.w3.org/2000/svg" xml:space="preserve" width="172.156mm" height="172.156mm" version="1.1" style="shape-rendering:geometricPrecision; text-rendering:geometricPrecision; image-rendering:optimizeQuality; fill-rule:evenodd; clip-rule:evenodd"
viewBox="0 0 5650.56 5650.56"
 xmlns:xlink="http://www.w3.org/1999/xlink">
 <defs>
  <style type="text/css">
   <![CDATA[
    .fil0 {fill:none}
    .fil1 {fill:#373435}
    .fil4 {fill:#B4ADA7}
    .fil8 {fill:#D95E35}
    .fil3 {fill:#E9CD52}
    .fil2 {fill:#FCEB81}
    .fil7 {fill:#FFFDEA}
    .fil5 {fill:#373435;fill-rule:nonzero}
    .fil6 {fill:#373435;fill-rule:nonzero}
    .fil9 {fill:#D95E35;fill-rule:nonzero}
   ]]>
  </style>
 </defs>
 <g id="Capa_x0020_1">
  <metadata id="CorelCorpID_0Corel-Layer"/>
  <rect class="fil0" x="-0" y="-0" width="5650.57" height="5650.56"/>
  <g id="_2256453069872">
   <path class="fil1" d="M887.64 3717.81c136.71,-85.53 310.89,-151.69 407.05,-143.97 12.09,53.58 10.01,156.76 -6.33,235.98 -142.71,0 -262.18,30.51 -327.24,52.25 -21.42,-24.58 -44.34,-69.56 -73.48,-144.26z"/>
   <path class="fil1" d="M4763.78 3717.81c-136.71,-85.53 -310.89,-151.69 -407.05,-143.97 -12.09,53.58 -10.01,156.76 6.33,235.98 142.71,0 262.18,30.51 327.24,52.25 21.42,-24.58 44.34,-69.56 73.48,-144.26z"/>
   <path class="fil2" d="M4424.73 4460.98c-6.71,-236.67 -26.52,-665.08 -33.73,-806.33 141.82,22.13 271.31,128.83 365.35,156.92 42.17,-93.53 427.75,-651.97 309.29,-1051.94 -264.67,-893.66 -856.98,-1472.57 -1036.06,-1558.4 -231.39,-110.91 -416.07,-178.8 -685.4,-263.45 -97.19,264.56 -427.03,344.64 -518.47,419.25 -105.39,-83.76 -408.31,-224.74 -518.47,-419.25 -269.33,84.65 -454.01,152.54 -685.4,263.45 -179.08,85.83 -771.39,664.74 -1036.06,1558.4 -118.46,399.97 267.12,958.41 309.29,1051.94 94.04,-28.09 223.54,-134.8 365.35,-156.92 -7.21,141.25 -27.02,569.66 -33.73,806.33 1139.56,67.65 2063.01,83.73 3198.03,0z"/>
   <path class="fil3" d="M1429.52 2370.53c-140.93,243.51 -222.15,797.19 -169.09,1284.12 19.19,-478.88 122.25,-1020.13 169.09,-1284.12z"/>
   <path class="fil3" d="M4221.9 2370.53c140.93,243.51 222.15,797.19 169.09,1284.12 -19.19,-478.88 -122.25,-1020.13 -169.09,-1284.12z"/>
   <g>
    <path class="fil4" d="M2825.49 2348.17c47.91,0 93.97,9.53 136.96,27.11 68.65,-221.8 216.51,-567.67 382.95,-488.69 66.4,31.51 95.02,111.87 63.51,178.27 -75.01,158.06 -214.55,313.09 -268.59,450.63 69.85,91.95 112.49,214.55 112.49,349.21 0,285.27 -191.32,516.52 -427.33,516.52 -236.01,0 -427.32,-231.25 -427.32,-516.52 0,-134.66 42.64,-257.27 112.49,-349.21 -54.03,-137.54 -193.57,-292.57 -268.59,-450.63 -31.51,-66.4 -2.89,-146.75 63.51,-178.27 166.44,-78.98 314.3,266.89 382.95,488.69 43,-17.58 89.06,-27.11 136.96,-27.11z"/>
    <path class="fil5" d="M2825.49 2333.89c24.55,0 48.72,2.44 72.3,7.1 18.87,3.73 37.46,8.97 55.63,15.57 22.98,-72.41 53.85,-156.18 90.61,-233.67 36.82,-77.59 79.7,-149.18 126.84,-197.59 49.63,-50.95 104.21,-76.75 162.05,-58.84 6.25,1.93 12.47,4.36 18.57,7.25 36.76,17.44 63.08,48.42 75.83,84.19 12.73,35.72 11.92,76.3 -5.51,113.03 -36.1,76.08 -86.53,150.83 -135.42,223.32 -51.59,76.5 -101.48,150.48 -129.86,219.16 34.31,46.67 61.87,100.63 80.88,159.64 19.17,59.5 29.69,124.16 29.69,191.64 0,146.04 -49.1,278.4 -128.46,374.33 -79.98,96.67 -190.69,156.47 -313.14,156.47 -122.45,0 -233.16,-59.8 -313.14,-156.47 -79.36,-95.93 -128.46,-228.29 -128.46,-374.33 0,-67.48 10.52,-132.14 29.69,-191.64 19.01,-59.01 46.57,-112.97 80.88,-159.64 -28.38,-68.68 -78.27,-142.67 -129.86,-219.16 -48.89,-72.49 -99.31,-147.24 -135.42,-223.32 -17.43,-36.73 -18.24,-77.31 -5.51,-113.03 12.74,-35.77 39.06,-66.75 75.83,-84.19 6.1,-2.89 12.31,-5.32 18.56,-7.25 57.84,-17.9 112.42,7.89 162.04,58.85 47.14,48.4 90.03,120.01 126.85,197.59 36.76,77.49 67.62,161.26 90.61,233.67 18.17,-6.61 36.75,-11.85 55.63,-15.57 23.57,-4.66 47.74,-7.1 72.29,-7.1zm66.83 35.08c-21.68,-4.28 -44.02,-6.53 -66.83,-6.53 -22.81,0 -45.15,2.25 -66.83,6.53 -22.37,4.42 -44.03,10.99 -64.78,19.46l-14.35 5.88 -4.6 -14.85c-23.02,-74.38 -55.05,-162.87 -93.73,-244.41 -35.62,-75.06 -76.79,-144 -121.5,-189.9 -42.21,-43.35 -87.36,-65.69 -133.26,-51.5 -4.81,1.49 -9.75,3.43 -14.78,5.82 -29.62,14.05 -50.83,39.03 -61.11,67.91 -10.3,28.92 -9.67,61.74 4.4,91.4 35.07,73.92 84.95,147.85 133.3,219.54 54.26,80.46 106.69,158.19 135.67,231.98l2.9 7.39 -4.85 6.38c-34.58,45.52 -62.35,98.9 -81.28,157.68 -18.23,56.59 -28.24,118.3 -28.24,182.95 0,139.23 46.58,265.15 121.87,356.15 74.67,90.26 177.63,146.09 291.18,146.09 113.55,0 216.51,-55.83 291.18,-146.09 75.29,-91 121.87,-216.92 121.87,-356.15 0,-64.64 -10.01,-126.35 -28.24,-182.95 -18.93,-58.78 -46.7,-112.16 -81.28,-157.68l-4.84 -6.38 2.89 -7.39c28.99,-73.79 81.42,-151.52 135.67,-231.98 48.35,-71.69 98.22,-145.62 133.3,-219.54 14.08,-29.66 14.71,-62.48 4.4,-91.4 -10.28,-28.87 -31.5,-53.86 -61.11,-67.91 -5.03,-2.39 -9.98,-4.33 -14.78,-5.82 -45.9,-14.21 -91.05,8.14 -133.27,51.49 -44.7,45.91 -85.87,114.84 -121.49,189.91 -38.69,81.54 -70.72,170.03 -93.73,244.41l-4.58 14.85 -14.37 -5.88c-20.75,-8.47 -42.42,-15.04 -64.78,-19.46z"/>
    <path class="fil5" d="M2555.55 2881.88c-3.93,-133.95 31.08,-221.36 76.75,-260.87 19.42,-16.81 40.87,-25.19 62.3,-25.08 21.48,0.1 42.72,8.7 61.63,25.88 37.12,33.72 65.65,101.46 69.05,203.47 5.99,-102.17 37.14,-170.48 76.01,-204.11 19.42,-16.8 40.87,-25.19 62.3,-25.08 21.48,0.1 42.72,8.7 61.63,25.88 43.63,39.63 75.41,126.24 68.43,260.27l-16.25 -0.83c6.69,-128.56 -22.68,-210.64 -63.15,-247.4 -15.83,-14.38 -33.31,-21.6 -50.73,-21.67 -17.47,-0.08 -35.25,6.98 -51.6,21.13 -42.43,36.71 -74.92,119.59 -71.14,248.13l-16.12 0.44 0 0.03 -16.25 -0.83c6.69,-128.56 -22.68,-210.64 -63.15,-247.4 -15.83,-14.38 -33.31,-21.6 -50.73,-21.67 -17.47,-0.08 -35.25,6.98 -51.6,21.13 -42.43,36.71 -74.92,119.59 -71.14,248.13l-16.25 0.44z"/>
    <path class="fil6" d="M2551.49 2882c-1.86,-63.46 4.97,-116.6 17.5,-159.23 14.24,-48.38 35.9,-83.41 60.65,-104.82 9.98,-8.64 20.52,-15.15 31.31,-19.5 11.01,-4.43 22.34,-6.63 33.67,-6.57 11.38,0.05 22.69,2.37 33.61,6.95 10.67,4.48 21.02,11.15 30.74,19.98 19.95,18.11 37.45,45.72 50.02,82.81 7.57,22.3 13.37,48.09 16.89,77.38 4.34,-29.42 10.98,-55.39 19.34,-77.87 13.87,-37.24 32.55,-64.98 53.41,-83.02 9.98,-8.64 20.52,-15.15 31.31,-19.5 11.01,-4.43 22.34,-6.63 33.67,-6.57 11.38,0.05 22.69,2.37 33.61,6.95 10.67,4.48 21.02,11.15 30.74,19.99 23.64,21.47 43.87,56.32 56.54,104.52 11.17,42.48 16.52,95.49 13.22,158.96l-0.2 4.07c-2.05,14.69 -24.2,12.11 -24.37,-1.25l0.2 -4.06c3.12,-60.05 -1.67,-109.85 -11.79,-149.5 -11.28,-44.23 -29.18,-75.74 -50.04,-94.68 -7.5,-6.81 -15.39,-11.95 -23.41,-15.37 -8.09,-3.46 -16.38,-5.21 -24.59,-5.25 -8.25,-0.03 -16.61,1.63 -24.85,5.01 -8.2,3.35 -16.3,8.41 -24.07,15.14 -21.9,18.95 -41.15,50.7 -53.89,95.18 -11.41,39.83 -17.6,89.79 -15.84,149.77l0.12 4.07c-3.35,9.96 -39.22,9.82 -40.82,-0.46l0.2 -4.06c3.12,-60.05 -1.67,-109.85 -11.79,-149.5 -11.28,-44.22 -29.18,-75.74 -50.04,-94.68 -7.5,-6.81 -15.39,-11.95 -23.41,-15.38 -8.09,-3.46 -16.38,-5.21 -24.59,-5.25 -8.25,-0.03 -16.61,1.63 -24.85,5.01 -8.2,3.35 -16.3,8.41 -24.07,15.14 -21.9,18.95 -41.15,50.7 -53.89,95.18 -11.41,39.83 -17.6,89.78 -15.84,149.76l0.12 4.07c-1.11,13.44 -23.13,13.26 -24.37,0.66l-0.12 -4.06z"/>
    <path class="fil7" d="M3270.46 2937.58c90.49,7.6 164.36,88.9 164.36,198.56 0,109.65 -82.13,198.56 -164.36,198.56 -82.23,0 -232.6,30.84 -328.13,61.74 -12.6,47.1 -73.66,81.19 -116.85,81.19 -43.18,0 -104.25,-34.09 -116.84,-81.19 -95.53,-30.9 -245.9,-61.74 -328.13,-61.74 -82.23,0 -164.36,-88.91 -164.36,-198.56 0,-109.66 73.84,-190.95 164.36,-198.56 229.9,-19.32 370.01,184.87 426.8,150.08 4.51,-5.89 10.49,-8.71 18.17,-7.67 7.69,-1.04 13.66,1.79 18.18,7.67 56.79,34.79 196.91,-169.38 426.8,-150.08z"/>
    <path class="fil5" d="M3271.64 2923.36c49.98,4.19 95.25,29.06 127.58,68.12 30.83,37.25 49.88,87.4 49.88,144.66 0,56.95 -20.86,108.72 -52.37,146.8 -33.69,40.7 -79.79,66.03 -126.25,66.03 -38.52,0 -92.41,6.93 -148.47,17.47 -58.86,11.08 -119.98,26.11 -168.32,41.31 -8.25,22.39 -25.52,41.63 -46.17,55.97 -25.37,17.62 -56.37,28.17 -82.02,28.17 -25.64,0 -56.65,-10.56 -82.02,-28.17 -20.65,-14.34 -37.92,-33.57 -46.17,-55.97 -48.34,-15.2 -109.46,-30.24 -168.32,-41.31 -56.05,-10.54 -109.95,-17.47 -148.47,-17.47 -46.46,0 -92.57,-25.34 -126.25,-66.03 -31.52,-38.08 -52.37,-89.85 -52.37,-146.8 0,-57.26 19.04,-107.4 49.87,-144.66 32.32,-39.04 77.59,-63.92 127.58,-68.12 144.24,-12.12 253.06,59.92 329.59,110.59 42.61,28.21 73.96,48.97 89.3,42.42 3.32,-3.64 7.18,-6.44 11.62,-8.31 4.79,-2.02 10,-2.86 15.64,-2.37 5.63,-0.48 10.84,0.35 15.64,2.37 4.44,1.87 8.3,4.67 11.62,8.31 15.33,6.55 46.7,-14.21 89.31,-42.42 76.52,-50.65 185.34,-122.69 329.58,-110.59zm105.62 86.29c-27.47,-33.19 -65.8,-54.32 -107.97,-57.86 -134.47,-11.28 -238.41,57.51 -311.5,105.9 -52.98,35.07 -91.46,60.55 -121.54,42.11l-2.27 -1.39 -1.63 -2.13c-0.8,-1.04 -1.57,-1.75 -2.26,-2.05 -0.62,-0.26 -1.54,-0.32 -2.75,-0.16l-1.84 0.25 -1.84 -0.25c-1.2,-0.16 -2.13,-0.1 -2.75,0.16 -0.69,0.3 -1.47,1 -2.27,2.05l-1.62 2.13 -2.28 1.39c-30.08,18.43 -68.55,-7.04 -121.52,-42.11 -73.1,-48.39 -177.04,-117.2 -311.52,-105.9 -42.19,3.54 -80.51,24.67 -107.98,57.86 -26.76,32.34 -43.28,76.15 -43.28,126.48 0,50 18.23,95.33 45.78,128.63 28.39,34.3 66.51,55.65 104.3,55.65 40.04,0 95.82,7.16 153.7,18.05 62.84,11.82 128.34,28.12 178.77,44.42l7.42 2.41 2 7.46c4.97,18.58 19.45,35.13 37.34,47.56 20.74,14.41 45.59,23.03 65.74,23.03 20.15,0 45,-8.63 65.74,-23.03 17.89,-12.42 32.37,-28.98 37.34,-47.56l2.01 -7.46 7.41 -2.41c50.43,-16.31 115.93,-32.6 178.77,-44.42 57.88,-10.88 113.66,-18.05 153.7,-18.05 37.78,0 75.91,-21.35 104.29,-55.65 27.55,-33.3 45.79,-78.63 45.79,-128.63 0,-50.34 -16.53,-94.16 -43.29,-126.48z"/>
    <ellipse class="fil7" cx="2825.49" cy="3066.72" rx="86.33" ry="88.49"/>
    <path class="fil5" d="M2825.49 2963.96c27.8,0 53,11.58 71.24,30.27 18.12,18.58 29.36,44.22 29.36,72.49 0,28.26 -11.22,53.9 -29.36,72.49 -18.24,18.7 -43.44,30.27 -71.24,30.27 -27.8,0 -53,-11.57 -71.24,-30.27 -18.13,-18.59 -29.36,-44.23 -29.36,-72.49 0,-28.27 11.24,-53.91 29.36,-72.49 18.24,-18.7 43.44,-30.27 71.24,-30.27zm50.84 50.11c-12.98,-13.31 -30.97,-21.56 -50.84,-21.56 -19.86,0 -37.85,8.25 -50.83,21.56 -13.1,13.43 -21.22,32.06 -21.22,52.65 0,20.6 8.11,39.22 21.22,52.65 12.98,13.31 30.97,21.56 50.83,21.56 19.86,0 37.85,-8.24 50.84,-21.56 13.1,-13.43 21.22,-32.05 21.22,-52.65 0,-20.6 -8.12,-39.22 -21.22,-52.65z"/>
    <path class="fil8" d="M3280.3 2017.18c33.88,16.07 1.02,89.51 -15.06,123.4 -47.23,99.55 -125.02,234.34 -149.37,265.64 -24.58,24.14 -82.37,1.79 -71.14,-67.8 11.3,-67.56 125.77,-373.33 235.57,-321.24z"/>
    <path class="fil8" d="M2370.68 2017.18c-33.88,16.08 -1.02,89.5 15.06,123.4 36.18,76.25 104.83,182.17 145.85,258.99 27.95,49.51 97.9,18.27 90.27,-36.66 -37,-117.05 -155.8,-390.97 -251.18,-345.72z"/>
   </g>
   <path class="fil1" d="M4424.73 4526.24c-1.25,-43.98 -2.95,-159.84 -4.93,-213.98 -1310.04,44.73 -1979.56,46.54 -3188.09,-2.21 -2.02,54.97 -3.75,171.62 -5.01,216.19 1018.69,270.52 1993.95,277.98 3198.03,0z"/>
   <path class="fil1" d="M3292.52 922.52c10.47,-2.25 317.93,92.38 327.9,103.1 -83.29,251.65 -119.17,404.19 -273.85,520.26 -79.09,-98.17 -230.81,-282.42 -400.35,-232.8 -63.9,37.73 -111.47,67.12 -120.51,76.6 -9.04,-9.48 -56.61,-38.87 -120.51,-76.6 -169.53,-49.62 -321.26,134.63 -400.35,232.8 -154.67,-116.07 -190.55,-268.61 -273.85,-520.26 9.97,-10.72 317.42,-105.34 327.9,-103.1 121.8,145.02 298.52,323.58 466.81,410.05 168.29,-86.47 345.01,-265.04 466.81,-410.05z"/>
   <path class="fil9" d="M3274.39 1275.82l28.72 29.32c6.8,4.55 15.37,1.41 14.27,-6.65l-17.24 -62.97c-2.91,-10.63 3.41,-21.72 14.06,-24.63l0 0c10.63,-2.91 21.72,3.43 24.62,14.05l17.58 64.29c1.46,5.42 11.81,6.8 14.3,-0.63l10.45 -46.43c1.48,-6.57 1.89,-11.32 2.57,-13.93 5.56,-21.32 34.74,-22.97 37.4,4.33 0.21,2.15 -0.85,4.27 -1.19,6.49l-24.43 123.37c-0.84,4.68 -1.68,9.17 -2.59,13.44 -5.01,23.73 -6.67,42.44 -22.07,46.25 -14.97,3.7 -26.07,-10.62 -42.76,-28.61 -2.91,-3.14 -5.93,-6.57 -8.99,-10.18l-82.69 -93.12c-1.47,-1.68 -2.87,-3.42 -4.39,-4.99 -6.95,-7.17 -3.63,-40.48 28.03,-23.06 4.31,2.38 8.28,7.48 14.35,13.66z"/>
   <path class="fil9" d="M2385.2 1277.26l-28.72 29.32c-6.8,4.55 -15.37,1.41 -14.27,-6.65l17.23 -62.97c2.91,-10.63 -3.41,-21.72 -14.05,-24.63l0 0c-10.63,-2.91 -21.72,3.43 -24.62,14.05l-17.58 64.29c-1.46,5.42 -11.81,6.8 -14.29,-0.63l-10.46 -46.43c-1.48,-6.57 -1.89,-11.32 -2.57,-13.93 -5.56,-21.32 -34.74,-22.97 -37.4,4.34 -0.21,2.15 0.85,4.27 1.19,6.49l24.43 123.37c0.84,4.68 1.68,9.17 2.59,13.44 5.01,23.73 6.67,42.45 22.07,46.25 14.97,3.7 26.07,-10.62 42.76,-28.61 2.91,-3.14 5.93,-6.57 8.99,-10.18l82.69 -93.12c1.47,-1.68 2.87,-3.42 4.39,-4.99 6.95,-7.17 3.63,-40.48 -28.03,-23.06 -4.31,2.38 -8.28,7.48 -14.35,13.66z"/>
  </g>
 </g>
</svg>
