<?xml version="1.0" encoding="UTF-8"?>
<!DOCTYPE svg PUBLIC "-//W3C//DTD SVG 1.1//EN" "http://www.w3.org/Graphics/SVG/1.1/DTD/svg11.dtd">
<!-- Creator: CorelDRAW 2017 -->
<svg xmlns="http://www.w3.org/2000/svg" xml:space="preserve" width="172.156mm" height="172.156mm" version="1.1" style="shape-rendering:geometricPrecision; text-rendering:geometricPrecision; image-rendering:optimizeQuality; fill-rule:evenodd; clip-rule:evenodd"
viewBox="0 0 1045.77 1045.77"
 xmlns:xlink="http://www.w3.org/1999/xlink">
 <defs>
  <style type="text/css">
   <![CDATA[
    .fil0 {fill:none}
    .fil2 {fill:#FEFEFE}
    .fil1 {fill:#1F92BF}
    .fil3 {fill:#FAFAFC}
   ]]>
  </style>
 </defs>
 <g id="Capa_x0020_1">
  <metadata id="CorelCorpID_0Corel-Layer"/>
  <rect class="fil0" x="-0" y="-0" width="1045.77" height="1045.77"/>
  <g id="_2256454281648">
   <path class="fil1" d="M483.51 726.64c0.81,37.41 6.94,61.14 4.62,74.12 0.23,10.95 -54.9,27.01 -112.14,27.18 -70.51,0.21 -78.68,-17.37 -78.3,-25.81 0.88,-19.44 37.13,-52.91 33.59,-73.12 -0.13,-0.75 -0.3,-1.55 -0.49,-2.38l152.71 0zm242.33 0c-0.19,0.83 -0.36,1.64 -0.49,2.38 -3.53,20.21 32.71,53.67 33.59,73.12 0.38,8.44 -7.79,26.02 -78.3,25.81 -57.24,-0.17 -112.37,-16.24 -112.14,-27.18 -2.31,-12.98 3.81,-36.71 4.62,-74.12l152.71 0z"/>
   <path class="fil2" d="M488.31 786.19c0.45,5.87 0.51,10.7 -0.18,14.58 0.23,10.95 -54.9,27.01 -112.14,27.18 -70.51,0.21 -78.68,-17.37 -78.3,-25.81 0.36,-8.02 6.74,-18.41 13.86,-29.28 21.92,-9.52 63.95,7.84 74.72,29.98 25.62,6 63.74,-1.27 102.04,-16.65z"/>
   <path class="fil3" d="M528.32 412.12l-12.68 0c-3.92,12.64 -23.17,171.53 -30.01,283.88 -0.92,15.2 -0.94,28.32 -1.77,40.67 -54.73,11.55 -111.63,9.72 -155.61,-4.6 -6.87,-39.31 -92.3,-199.58 -97.66,-494.44 85.78,10.73 245.18,8.64 297.73,8.64 52.56,0 211.95,2.09 297.73,-8.64 -5.36,294.86 -90.79,455.13 -97.66,494.44 -47.27,21.12 -119.81,13.06 -156.9,4.01 0.52,-11.61 0.41,-25.44 -0.48,-40.07 -6.84,-112.35 -26.09,-271.24 -30.01,-283.88l-12.68 0z"/>
   <path class="fil2" d="M745.42 773.38c6.98,10.68 13.16,20.88 13.52,28.76 0.38,8.44 -7.79,26.02 -78.3,25.81 -57.24,-0.17 -112.37,-16.24 -112.14,-27.18 -0.72,-4.03 -0.62,-9.11 -0.12,-15.3 38.16,15.72 76.28,23.21 101.81,17.14 10.88,-22.68 54.12,-40.36 75.23,-29.23z"/>
  </g>
 </g>
</svg>
