<?xml version="1.0" encoding="UTF-8"?>
<!DOCTYPE svg PUBLIC "-//W3C//DTD SVG 1.1//EN" "http://www.w3.org/Graphics/SVG/1.1/DTD/svg11.dtd">
<!-- Creator: CorelDRAW 2017 -->
<svg xmlns="http://www.w3.org/2000/svg" xml:space="preserve" width="172.156mm" height="172.156mm" version="1.1" style="shape-rendering:geometricPrecision; text-rendering:geometricPrecision; image-rendering:optimizeQuality; fill-rule:evenodd; clip-rule:evenodd"
viewBox="0 0 1440.16 1440.16"
 xmlns:xlink="http://www.w3.org/1999/xlink">
 <defs>
  <style type="text/css">
   <![CDATA[
    .fil0 {fill:none}
    .fil2 {fill:#FEFEFE}
    .fil1 {fill:#373435}
    .fil4 {fill:#41708E}
    .fil3 {fill:#669AB8}
    .fil5 {fill:#B8D8EB}
   ]]>
  </style>
 </defs>
 <g id="Capa_x0020_1">
  <metadata id="CorelCorpID_0Corel-Layer"/>
  <rect class="fil0" x="-0" y="-0" width="1440.16" height="1440.16"/>
  <g id="_2256252393504">
   <path class="fil1" d="M662.32 998.22c1.12,51.52 9.55,84.2 6.37,102.08 0.32,15.08 -75.6,37.2 -154.43,37.44 -97.1,0.29 -108.35,-23.92 -107.83,-35.54 1.22,-26.77 51.13,-72.86 46.26,-100.69 -0.18,-1.03 -0.41,-2.14 -0.67,-3.28l210.3 0zm333.72 0c-0.26,1.14 -0.49,2.25 -0.67,3.28 -4.87,27.83 45.04,73.91 46.26,100.69 0.53,11.63 -10.73,35.83 -107.83,35.54 -78.83,-0.23 -154.74,-22.36 -154.43,-37.44 -3.18,-17.88 5.25,-50.55 6.37,-102.08l210.3 0z"/>
   <path class="fil2" d="M668.94 1080.22c0.62,8.08 0.7,14.74 -0.25,20.07 0.32,15.08 -75.6,37.2 -154.43,37.44 -97.1,0.29 -108.35,-23.92 -107.83,-35.54 0.5,-11.04 9.28,-25.36 19.08,-40.33 30.18,-13.11 88.06,10.8 102.9,41.29 35.29,8.26 87.78,-1.75 140.52,-22.93z"/>
   <path class="fil3" d="M724.04 565.08l-17.47 0c-5.4,17.41 -31.91,236.23 -41.32,390.94 -1.27,20.93 -1.29,39 -2.44,56 -75.37,15.91 -153.73,13.38 -214.29,-6.34 -9.46,-54.14 -127.11,-274.85 -134.49,-680.91 118.13,14.77 337.64,11.9 410.02,11.9 72.38,0 291.89,2.87 410.02,-11.9 -7.38,406.06 -125.03,626.77 -134.49,680.91 -65.09,29.08 -165,17.98 -216.07,5.52 0.71,-15.99 0.57,-35.04 -0.66,-55.18 -9.41,-154.72 -35.93,-373.53 -41.32,-390.94l-17.47 0zm91.17 190.57c33.99,43.63 174.94,49.29 218.99,-1.54 -7.24,-9.27 -212.13,-7.15 -218.99,1.54zm-181.73 0c-33.99,43.63 -174.94,49.29 -218.99,-1.54 7.24,-9.27 212.13,-7.15 218.99,1.54z"/>
   <path class="fil4" d="M718.66 565.08l-10.66 0c-7.03,-34.91 -11.68,-72.97 -13.79,-110.56 -2.32,-41.4 -1.56,-82.27 2.49,-117.77l10.51 -0.04c-4.1,35.18 -4.9,75.9 -2.58,117.23 2.12,37.81 6.85,76.11 14.03,111.14z"/>
   <path class="fil4" d="M741.45 336.72l10.51 0.04c4.1,35.61 4.87,76.64 2.54,118.21 -2.1,37.43 -6.72,75.32 -13.7,110.12l-10.66 0c7.13,-34.9 11.83,-73.04 13.94,-110.69 2.33,-41.5 1.52,-82.4 -2.63,-117.68z"/>
   <path class="fil5" d="M665.25 956.03c3.16,7.09 2.03,50.91 -2.44,56 -2.64,2.39 -59.21,14.65 -111.11,13.17 -52.91,-1.5 -101.17,-16.78 -103.18,-19.51 -5.11,-2.13 -23.97,-55.13 -19.41,-59.51 3.04,-8.3 229.87,1.33 236.14,9.85z"/>
   <path class="fil5" d="M782.77 955.06c-3.16,7.09 -3.76,51.05 0.72,56.15 10.32,9.38 67.63,17.07 119.36,15.42 47.49,-1.52 89.84,-11.59 96.72,-20.94 5.11,-2.13 24.01,-55.25 19.45,-59.63 -3.04,-8.3 -229.98,0.48 -236.24,9z"/>
   <path class="fil2" d="M1023.02 1062.58c9.61,14.71 18.12,28.75 18.61,39.61 0.53,11.63 -10.73,35.83 -107.83,35.54 -78.83,-0.23 -154.74,-22.36 -154.43,-37.44 -0.99,-5.55 -0.86,-12.54 -0.17,-21.07 52.56,21.65 105.05,31.96 140.21,23.61 14.99,-31.24 74.54,-55.58 103.6,-40.26z"/>
  </g>
 </g>
</svg>
