<?xml version="1.0" encoding="UTF-8"?>
<!DOCTYPE svg PUBLIC "-//W3C//DTD SVG 1.1//EN" "http://www.w3.org/Graphics/SVG/1.1/DTD/svg11.dtd">
<!-- Creator: CorelDRAW 2017 -->
<svg xmlns="http://www.w3.org/2000/svg" xml:space="preserve" width="172.156mm" height="172.156mm" version="1.1" style="shape-rendering:geometricPrecision; text-rendering:geometricPrecision; image-rendering:optimizeQuality; fill-rule:evenodd; clip-rule:evenodd"
viewBox="0 0 5640.19 5640.19"
 xmlns:xlink="http://www.w3.org/1999/xlink">
 <defs>
  <style type="text/css">
   <![CDATA[
    .fil0 {fill:none}
    .fil2 {fill:#FEFEFE}
    .fil1 {fill:#373435}
    .fil4 {fill:#1C505F}
    .fil3 {fill:#3D738A}
   ]]>
  </style>
 </defs>
 <g id="Capa_x0020_1">
  <metadata id="CorelCorpID_0Corel-Layer"/>
  <rect class="fil0" x="-0" y="-0" width="5640.19" height="5640.19"/>
  <g id="_2256253463232">
   <path class="fil1" d="M2575.35 3905.17c4.37,201.79 37.41,329.74 24.94,399.78 1.24,59.04 -296.08,145.7 -604.79,146.61 -380.28,1.13 -424.36,-93.66 -422.29,-139.2 4.76,-104.86 200.23,-285.35 181.17,-394.34 -0.7,-4.03 -1.62,-8.38 -2.63,-12.86l823.6 0zm1306.97 0c-1.02,4.48 -1.93,8.83 -2.63,12.86 -19.06,108.99 176.41,289.48 181.17,394.34 2.06,45.54 -42.01,140.33 -422.29,139.2 -308.72,-0.92 -606.04,-87.58 -604.79,-146.61 -12.47,-70.03 20.57,-197.99 24.94,-399.78l823.6 0z"/>
   <path class="fil2" d="M2601.26 4226.33c2.41,31.64 2.75,57.72 -0.97,78.62 1.24,59.04 -296.08,145.7 -604.79,146.61 -380.28,1.13 -424.36,-93.66 -422.29,-139.2 1.97,-43.23 36.34,-99.32 74.73,-157.94 118.2,-51.34 344.89,42.31 402.98,161.7 138.2,32.35 343.78,-6.84 550.34,-89.8z"/>
   <path class="fil3" d="M2817.04 2208.85l-68.41 0c-21.14,68.18 -124.95,925.14 -161.83,1531.08 -4.99,81.98 -5.07,152.75 -9.57,219.33 -295.18,62.31 -602.06,52.4 -839.24,-24.83 -37.06,-212.01 -497.81,-1076.41 -526.73,-2666.69 462.64,57.86 1322.32,46.61 1605.78,46.61 283.45,0 1143.13,11.25 1605.78,-46.61 -28.91,1590.28 -489.67,2454.68 -526.73,2666.69 -254.92,113.89 -646.19,70.43 -846.23,21.61 2.78,-62.62 2.22,-137.22 -2.57,-216.1 -36.87,-605.94 -140.7,-1462.9 -161.84,-1531.08l-68.41 0zm1080.06 588.61c-31.97,-32.82 -565.54,-16.53 -599.15,12.17 -33.61,28.71 40.46,448.16 73.38,466.97 32.91,18.81 365.07,30.23 395.25,2.43 30.17,-27.79 162.49,-448.74 130.51,-481.57zm-2153.9 -0.72c31.97,-32.83 565.55,-16.53 599.15,12.17 33.6,28.7 -40.47,448.17 -73.39,466.97 -32.91,18.8 -365.07,30.23 -395.25,2.43 -30.18,-27.79 -162.5,-448.75 -130.52,-481.58z"/>
   <path class="fil4" d="M2796 2208.85l-41.75 0c-27.53,-136.74 -45.75,-285.79 -54.02,-433 -9.1,-162.16 -6.12,-322.19 9.75,-461.22l41.16 -0.15c-16.07,137.78 -19.17,297.26 -10.09,459.13 8.32,148.07 26.84,298.09 54.96,435.25z"/>
   <path class="fil4" d="M2885.24 1314.48l41.17 0.15c16.04,139.45 19.08,300.13 9.94,462.96 -8.24,146.58 -26.34,294.99 -53.67,431.26l-41.75 0c27.91,-136.68 46.32,-286.06 54.6,-433.5 9.12,-162.54 5.96,-322.69 -10.29,-460.87z"/>
   <path class="fil2" d="M3987.97 4157.24c37.65,57.6 70.97,112.59 72.9,155.13 2.06,45.53 -42.01,140.33 -422.29,139.2 -308.72,-0.92 -606.04,-87.58 -604.79,-146.61 -3.87,-21.75 -3.35,-49.11 -0.67,-82.51 205.83,84.79 411.41,125.16 549.11,92.46 58.69,-122.34 291.91,-217.69 405.74,-157.67z"/>
  </g>
 </g>
</svg>
