<?xml version="1.0" encoding="UTF-8"?>
<!DOCTYPE svg PUBLIC "-//W3C//DTD SVG 1.1//EN" "http://www.w3.org/Graphics/SVG/1.1/DTD/svg11.dtd">
<!-- Creator: CorelDRAW 2017 -->
<svg xmlns="http://www.w3.org/2000/svg" xml:space="preserve" width="172.156mm" height="172.156mm" version="1.1" style="shape-rendering:geometricPrecision; text-rendering:geometricPrecision; image-rendering:optimizeQuality; fill-rule:evenodd; clip-rule:evenodd"
viewBox="0 0 1779.34 1779.34"
 xmlns:xlink="http://www.w3.org/1999/xlink">
 <defs>
  <style type="text/css">
   <![CDATA[
    .fil0 {fill:none}
    .fil2 {fill:#373435}
    .fil3 {fill:#DEC7A1}
    .fil4 {fill:#FAF0EA}
    .fil1 {fill:ivory}
   ]]>
  </style>
 </defs>
 <g id="Capa_x0020_1">
  <metadata id="CorelCorpID_0Corel-Layer"/>
  <rect class="fil0" x="-0" y="-0" width="1779.34" height="1779.34"/>
  <g id="_2256466864224">
   <path class="fil1" d="M822.67 1236.36c0.99,45.78 6.67,79.58 8.31,103.13 -18.1,36.37 -85.38,56.62 -190.55,56.93 -70.71,0.21 -119.53,-2.78 -132.02,-41.43 11.48,-33.59 60.61,-83.88 55.27,-114.57 -0.22,-1.27 -0.51,-2.64 -0.83,-4.06l259.83 0zm412.32 0c-0.32,1.41 -0.61,2.79 -0.83,4.06 -5.52,31.57 45.8,81.37 55.41,115.04 -17.97,42.97 -79.48,39.62 -137.57,39.88 -72.37,0.32 -169.57,-10.65 -185.17,-55.52 1.61,-23.57 7.34,-57.43 8.33,-103.46l259.83 0z"/>
   <path class="fil2" d="M830.98 1339.49c0.64,9.17 0.66,16.8 -0.44,22.99 0.39,18.62 -93.41,45.96 -190.8,46.25 -119.97,0.36 -133.87,-29.55 -133.22,-43.91 0.14,-3.08 1.12,-7.14 1.89,-9.84 42.21,28.29 221.01,46.29 322.57,-15.49zm458.59 15.97c1,3.29 1.61,6.42 1.74,9.36 0.65,14.36 -13.25,44.27 -133.22,43.91 -97.39,-0.29 -191.19,-27.63 -190.8,-46.25 -1.09,-6.12 -1.08,-13.64 -0.46,-22.66 117.16,58.22 289.67,46.27 322.74,15.64z"/>
   <path class="fil3" d="M822.67 1236.36c0.18,8.45 0.53,16.5 0.97,24.14 -57.28,25 -212.4,20.24 -260.3,-7.93 0.82,-4.3 0.98,-8.38 0.33,-12.15 -0.22,-1.27 -0.51,-2.64 -0.83,-4.06l259.83 0zm412.32 0c-0.32,1.41 -0.61,2.79 -0.83,4.06 -0.69,3.93 -0.49,8.14 0.39,12.57 -43.27,26.86 -144.45,37.27 -260.34,7.12 0.43,-7.52 0.77,-15.43 0.95,-23.74l259.83 0z"/>
   <path class="fil4" d="M898.92 701.21l-21.58 0c-6.67,21.51 -39.42,291.86 -51.06,483.02 -1.57,25.86 -1.6,48.19 -3.02,69.2 -93.12,19.66 -189.93,16.53 -264.76,-7.84 -11.69,-66.89 -157.05,-339.58 -166.17,-841.28 145.95,18.25 417.16,14.71 506.58,14.71 89.42,0 360.63,3.55 506.58,-14.71 -9.12,501.69 -154.48,774.39 -166.17,841.28 -80.42,35.93 -203.86,22.22 -266.96,6.82 0.88,-19.75 0.7,-43.29 -0.81,-68.18 -11.63,-191.16 -44.39,-461.51 -51.06,-483.02l-21.58 0z"/>
   <path class="fil3" d="M892.28 701.21l-13.17 0c-8.69,-43.14 -14.43,-90.16 -17.04,-136.6 -2.87,-51.16 -1.93,-101.64 3.07,-145.5l12.99 -0.05c-5.07,43.47 -6.05,93.78 -3.18,144.84 2.62,46.71 8.47,94.04 17.34,137.31z"/>
   <path class="fil3" d="M920.43 419.06l12.99 0.05c5.06,43.99 6.02,94.68 3.14,146.05 -2.6,46.24 -8.31,93.06 -16.93,136.05l-13.17 0c8.8,-43.12 14.61,-90.24 17.23,-136.76 2.88,-51.28 1.88,-101.8 -3.25,-145.39z"/>
  </g>
 </g>
</svg>
