<?xml version="1.0" encoding="UTF-8"?>
<!DOCTYPE svg PUBLIC "-//W3C//DTD SVG 1.1//EN" "http://www.w3.org/Graphics/SVG/1.1/DTD/svg11.dtd">
<!-- Creator: CorelDRAW 2017 -->
<svg xmlns="http://www.w3.org/2000/svg" xml:space="preserve" width="172.156mm" height="172.156mm" version="1.1" style="shape-rendering:geometricPrecision; text-rendering:geometricPrecision; image-rendering:optimizeQuality; fill-rule:evenodd; clip-rule:evenodd"
viewBox="0 0 1211.46 1211.46"
 xmlns:xlink="http://www.w3.org/1999/xlink">
 <defs>
  <style type="text/css">
   <![CDATA[
    .fil0 {fill:none}
    .fil6 {fill:#2F0A00}
    .fil7 {fill:#461724}
    .fil9 {fill:#50090C}
    .fil8 {fill:#7F505D}
    .fil10 {fill:#822927}
    .fil1 {fill:#D9B9A9}
    .fil4 {fill:#DBB8A8}
    .fil3 {fill:#FCE8DE}
    .fil5 {fill:white}
    .fil2 {fill:#AB8A7F;fill-rule:nonzero}
   ]]>
  </style>
 </defs>
 <g id="Capa_x0020_1">
  <metadata id="CorelCorpID_0Corel-Layer"/>
  <rect class="fil0" x="-0" y="-0" width="1211.46" height="1211.46"/>
  <g id="_2256251305552">
   <path class="fil1" d="M279.09 745.05c30.49,25 44.1,125.91 31.29,161.06 -22.55,13.93 -63.82,-11.38 -77.89,-51.14 -16.87,-47.66 -28.15,-99.95 46.61,-109.92z"/>
   <path class="fil2" d="M240.41 777.84c30.91,1.92 38.79,10.17 38.13,20.82 -0.35,5.64 -3.36,11.34 -6.41,17.12 -3.32,6.29 -6.7,12.69 -5.43,17.12 1.26,4.39 5.01,8.74 9.6,14.06 4.41,5.11 9.52,11.04 14.28,18.93 -0.5,3.36 -3.5,5.69 -7.46,4.5 -4.43,-7.34 -9.24,-12.92 -13.39,-17.74 -5.3,-6.14 -9.63,-11.16 -11.41,-17.36 -2.23,-7.77 1.98,-15.73 6.11,-23.56 2.61,-4.95 5.2,-9.84 5.43,-13.57 0.35,-5.62 -5.91,-10.13 -29.95,-11.62 -1.68,-1.83 -2.06,-5.97 0.51,-8.69z"/>
   <path class="fil1" d="M932.37 745.05c-30.49,25 -44.1,125.91 -31.29,161.06 22.55,13.93 63.82,-11.38 77.89,-51.14 16.87,-47.66 28.15,-99.95 -46.61,-109.92z"/>
   <path class="fil2" d="M971.05 777.84c-30.91,1.92 -38.79,10.17 -38.13,20.82 0.35,5.64 3.36,11.34 6.41,17.12 3.32,6.29 6.7,12.69 5.43,17.12 -1.26,4.39 -5.01,8.74 -9.6,14.06 -4.41,5.11 -9.52,11.04 -14.28,18.93 0.5,3.36 3.5,5.69 7.46,4.5 4.43,-7.34 9.24,-12.92 13.39,-17.74 5.3,-6.14 9.63,-11.16 11.41,-17.36 2.23,-7.77 -1.98,-15.73 -6.11,-23.56 -2.61,-4.95 -5.2,-9.84 -5.43,-13.57 -0.35,-5.62 5.91,-10.13 29.95,-11.62 1.68,-1.83 2.06,-5.97 -0.51,-8.69z"/>
   <path class="fil3" d="M605.73 1062.24c-90.81,-3.47 -206.23,-39 -256.49,-83.46 -55.59,-49.17 -44.63,-162.54 -71.43,-237.4 -41.33,-115.41 -64.29,-214.6 11.38,-326.92 95.56,-141.84 243.32,-154.39 316.54,-157.98 73.22,3.59 220.98,16.15 316.54,157.98 75.67,112.32 52.7,211.51 11.38,326.92 -26.8,74.86 -15.84,188.23 -71.43,237.4 -50.26,44.46 -165.67,79.99 -256.49,83.46z"/>
   <path class="fil4" d="M549.25 952.23c17.95,7.05 45.03,6.05 56.48,5.96 11.45,0.09 38.53,1.09 56.48,-5.96 -21.06,0.51 -31.27,0.4 -56.48,0.1 -25.21,0.31 -35.42,0.41 -56.48,-0.1z"/>
   <g>
    <path class="fil5" d="M875.56 788.87c-30.57,-73.26 -142.11,-114.72 -184.92,-33.72 -7.5,79.59 18.93,91.13 65.86,100.57 41.47,8.34 59.3,4.28 102.97,-36.28 6.27,-6.41 13.06,-20.46 16.09,-30.57z"/>
    <path class="fil6" d="M892.24 797.53c-56.94,-129.41 -202.7,-102.2 -203.33,-37.25 37.2,-59.88 137.72,-64.31 173.84,36.5 0.75,7.9 -0.75,14.17 -3.28,22.66 11.4,-2.39 27.06,-5.44 32.77,-21.91z"/>
    <path class="fil6" d="M674.44 754.97c23.31,-32.77 65.35,-50.79 106.22,-41.05 -44.29,-15.4 -99.62,10.79 -106.22,41.05z"/>
    <ellipse class="fil7" cx="768.11" cy="793.56" rx="61.86" ry="61.42"/>
    <path class="fil6" d="M706.32 835.2c15.02,20.29 65.08,34.85 106.87,18.38 -33.15,7.48 -76.04,-1.24 -106.87,-18.38z"/>
    <ellipse class="fil5" transform="matrix(1.82174 0.550456 -0.550456 1.82174 736.365 773.179)" rx="7.53" ry="9.08"/>
    <path class="fil6" d="M646.04 672.93c103.52,-30.12 173.56,-29.68 267.73,-6.7 -70.17,-55.79 -223.92,-30.7 -267.73,6.7z"/>
    <path class="fil8" d="M821.81 776.04c1.82,5.51 2.81,11.4 2.81,17.52 0,30.99 -25.3,56.1 -56.51,56.1 -26.04,0 -47.96,-17.48 -54.51,-41.27l30.12 -8.2c2.93,10.64 12.74,18.46 24.39,18.46 13.96,0 25.28,-11.24 25.28,-25.1 0,-4.52 -1.2,-8.76 -3.31,-12.42l31.72 -5.1z"/>
   </g>
   <g>
    <path class="fil5" d="M335.89 788.87c30.57,-73.26 142.11,-114.72 184.92,-33.72 7.5,79.59 -18.93,91.13 -65.86,100.57 -41.47,8.34 -59.3,4.28 -102.97,-36.28 -6.27,-6.41 -13.06,-20.46 -16.09,-30.57z"/>
    <path class="fil6" d="M319.22 797.53c56.94,-129.41 202.7,-102.2 203.33,-37.25 -37.2,-59.88 -137.72,-64.31 -173.84,36.5 -0.75,7.9 0.75,14.17 3.28,22.66 -11.4,-2.39 -27.07,-5.44 -32.77,-21.91z"/>
    <path class="fil6" d="M537.02 754.97c-23.31,-32.77 -65.35,-50.79 -106.22,-41.05 44.29,-15.4 99.62,10.79 106.22,41.05z"/>
    <ellipse class="fil7" cx="443.35" cy="793.56" rx="61.86" ry="61.42"/>
    <path class="fil6" d="M505.14 835.2c-15.02,20.29 -65.08,34.85 -106.87,18.38 33.15,7.48 76.04,-1.24 106.87,-18.38z"/>
    <ellipse class="fil5" transform="matrix(1.82174 0.550456 -0.550456 1.82174 409.83 771.362)" rx="7.53" ry="9.08"/>
    <path class="fil6" d="M565.42 672.93c-103.52,-30.12 -173.56,-29.68 -267.73,-6.7 70.17,-55.79 223.92,-30.7 267.73,6.7z"/>
    <path class="fil8" d="M388.84 808.39c6.55,23.79 28.47,41.27 54.51,41.27 31.21,0 56.51,-25.12 56.51,-56.11 0,-6.12 -0.99,-12.01 -2.81,-17.52l-31.72 5.1c2.1,3.66 3.31,7.9 3.31,12.42 0,13.86 -11.32,25.1 -25.28,25.1 -11.65,0 -21.46,-7.82 -24.39,-18.46l-30.12 8.2z"/>
   </g>
   <g>
    <path class="fil9" d="M378.71 646.06c70.86,-30.87 64.32,-159.68 79.77,-191.42 45.41,-22.52 139.16,-28.3 187.56,-25.07 62.51,1.44 24.74,153.09 100.95,244.51 -13.56,-41.98 -10.09,-126.86 -3.15,-126.53 43.74,2.08 57.07,85.65 52.74,114.27 24.13,27.47 81.17,60.78 135.79,83.23 -10.09,21.68 -17.18,53.57 -17.02,81.72 17.14,-54.82 29.16,-70.21 69.78,-53.94 70.64,-25.07 88.31,-145.87 73.69,-209.27 -18.7,-118.72 -240.45,-252.03 -345.08,-279.61 -179.09,-17.94 -225.51,-33.44 -376.91,61.15 -48.23,44.53 -153.31,59.33 -193.75,99.15 -18.29,18.01 -27.11,60.13 -28.31,84.85 1.27,21.51 12.15,52.93 21.99,68.94 11.88,4.58 46.06,20.41 46.38,69.41 22.33,73.62 94.47,131.39 114.88,172.22 -5.8,-48.09 -11.45,-95.13 -22.51,-121.28 30.65,-5.36 70.7,-40.53 103.22,-72.33z"/>
    <path class="fil10" d="M270.07 697.09c75.09,-23.42 140.66,-100.18 144.39,-159.79 7.69,45.87 -7.44,75.69 -35.75,108.76 87.69,-18.08 161.81,-56.6 190.3,-217.89 10.39,-60.71 72.07,-53.01 77.04,1.4 -2.38,119.08 37.09,213.5 100.95,244.51 -24.32,-68 -39.81,-138.2 -10.84,-188.08 5.54,80.5 27.76,176.65 97.04,196.62 56.77,16.36 110.16,37.41 175.9,-15.34 2.36,8.34 3.22,14.85 1.16,22.91 36.64,-26.92 42.49,-74.98 42.83,-115.04 12.95,44.04 11.58,77.31 -1.11,114.12 24.33,-25.08 48.56,-127.33 20.14,-174.46 -16.78,-27.83 -17.18,-35.69 -39,-55.86 23.34,11.8 26.21,10.33 57.91,1.69 -65.39,-25.18 -70.04,-81.22 -119.2,-148.17 -137.61,-187.39 -239.24,-160.36 -359.9,-124.57 -45.43,-16.57 -181.06,-74.38 -307.22,76.18 -26.55,31.68 -52.45,72.41 -91.83,97.12 -55.75,34.99 -103.24,95.85 -98.11,167.91 5.68,-34.47 12.97,-60.59 33.77,-76.93 -13.22,20.45 -32.94,84.87 -11.78,145.87 8.29,26.53 123.87,170.76 133.33,99.04z"/>
    <path class="fil9" d="M615.78 214.26c27.94,-15.64 93.57,-32.56 139.46,-21.28 -60.08,-1.98 -109.34,17.82 -139.46,41.02 -1.87,-1.05 -3.12,-2.67 -3.79,-4.62 -19.83,-14.02 -50.54,-25.48 -87.53,-24.26 28.91,-7.11 69.84,2.96 88.99,12.85 0.63,-1.26 1.41,-2.5 2.33,-3.71z"/>
   </g>
  </g>
 </g>
</svg>
