<?xml version="1.0" encoding="UTF-8"?>
<!DOCTYPE svg PUBLIC "-//W3C//DTD SVG 1.1//EN" "http://www.w3.org/Graphics/SVG/1.1/DTD/svg11.dtd">
<!-- Creator: CorelDRAW 2017 -->
<svg xmlns="http://www.w3.org/2000/svg" xml:space="preserve" width="172.156mm" height="172.156mm" version="1.1" style="shape-rendering:geometricPrecision; text-rendering:geometricPrecision; image-rendering:optimizeQuality; fill-rule:evenodd; clip-rule:evenodd"
viewBox="0 0 5712.04 5712.04"
 xmlns:xlink="http://www.w3.org/1999/xlink">
 <defs>
  <style type="text/css">
   <![CDATA[
    .fil0 {fill:none}
    .fil6 {fill:#1E3231}
    .fil5 {fill:#212426}
    .fil8 {fill:#40342A}
    .fil7 {fill:#48515A}
    .fil10 {fill:#BEA46A}
    .fil1 {fill:#D9B9A9}
    .fil9 {fill:#DBB8A8}
    .fil3 {fill:#FCE8DE}
    .fil11 {fill:#FCECB2}
    .fil4 {fill:white}
    .fil2 {fill:#AB8A7F;fill-rule:nonzero}
   ]]>
  </style>
 </defs>
 <g id="Capa_x0020_1">
  <metadata id="CorelCorpID_0Corel-Layer"/>
  <rect class="fil0" x="-0" y="-0" width="5712.04" height="5712.04"/>
  <g id="_2256453068560">
   <g>
    <path class="fil1" d="M1315.9 3400.55c143.78,117.86 207.95,593.65 147.51,759.4 -106.34,65.66 -300.9,-53.65 -367.27,-241.14 -79.55,-224.73 -132.71,-471.27 219.75,-518.26z"/>
    <path class="fil2" d="M1133.53 3555.17c145.72,9.06 182.88,47.94 179.76,98.17 -1.65,26.57 -15.86,53.46 -30.24,80.7 -15.66,29.65 -31.6,59.83 -25.61,80.73 5.93,20.68 23.62,41.19 45.27,66.28 20.79,24.1 44.9,52.05 67.33,89.24 -2.36,15.83 -16.49,26.83 -35.17,21.21 -20.89,-34.63 -43.58,-60.93 -63.16,-83.62 -24.99,-28.96 -45.41,-52.64 -53.79,-81.86 -10.51,-36.61 9.33,-74.18 28.82,-111.08 12.32,-23.34 24.5,-46.38 25.59,-64 1.64,-26.49 -27.85,-47.77 -141.22,-54.81 -7.9,-8.62 -9.72,-28.16 2.41,-40.95z"/>
    <path class="fil1" d="M4396.15 3400.55c-143.78,117.86 -207.95,593.65 -147.51,759.4 106.33,65.66 300.9,-53.65 367.27,-241.14 79.55,-224.73 132.71,-471.27 -219.75,-518.26z"/>
    <path class="fil2" d="M4578.51 3555.17c-145.72,9.06 -182.88,47.94 -179.76,98.17 1.65,26.57 15.86,53.46 30.24,80.7 15.66,29.65 31.6,59.83 25.61,80.73 -5.93,20.68 -23.62,41.19 -45.27,66.28 -20.79,24.1 -44.9,52.05 -67.33,89.24 2.36,15.83 16.49,26.83 35.17,21.21 20.89,-34.63 43.58,-60.93 63.16,-83.62 24.99,-28.96 45.41,-52.64 53.79,-81.86 10.51,-36.61 -9.33,-74.18 -28.82,-111.08 -12.32,-23.34 -24.5,-46.38 -25.59,-64 -1.64,-26.49 27.85,-47.77 141.22,-54.81 7.9,-8.62 9.72,-28.16 -2.41,-40.95z"/>
    <path class="fil3" d="M2856.02 4896.08c-428.19,-16.38 -972.36,-183.89 -1209.34,-393.54 -262.1,-231.86 -210.43,-766.4 -336.81,-1119.35 -194.85,-544.16 -303.14,-1011.85 53.65,-1541.43 450.56,-668.76 1147.24,-727.96 1492.5,-744.89 345.25,16.93 1041.94,76.13 1492.5,744.89 356.79,529.57 248.5,997.26 53.65,1541.43 -126.37,352.95 -74.7,887.5 -336.81,1119.35 -236.99,209.64 -781.15,377.15 -1209.34,393.54z"/>
    <path class="fil4" d="M1597.6 3515.7c96.33,-181.32 612.85,-305.02 876.37,73.74 1.7,249.67 -215.21,336.7 -410.96,327.2 -201.42,-9.78 -428.95,-123.66 -465.41,-400.93z"/>
    <path class="fil5" d="M2388.69 3812.98c-152.64,168.44 -400.61,169.22 -560.17,41.3 193.41,58.93 350.93,68.06 560.17,-41.3z"/>
    <path class="fil6" d="M2339.37 3486.04c15.31,30.43 23.93,64.71 23.93,100.99 0,125.72 -103.36,227.62 -230.85,227.62 -127.5,0 -230.86,-101.9 -230.86,-227.62 0,-85.72 48.07,-160.36 119.08,-199.17 114.34,-22.33 238.36,14 318.69,98.18z"/>
    <path class="fil7" d="M2339.65 3587.03c0,112.83 -92.76,204.29 -207.2,204.29 -92.16,0 -170.28,-59.33 -197.18,-141.37l127.18 -40.58c9.56,29.12 37.28,50.19 70,50.19 40.62,0 73.56,-32.47 73.56,-72.53l133.64 0z"/>
    <path class="fil5" d="M1517.21 3498.17c80.73,-125.47 266.43,-204.55 458.74,-204.39 204.16,0.17 409.15,95.08 510.61,313.15 -240.55,-258.43 -626.3,-294.43 -829.77,-76.35 -0.05,40.79 4.07,128.45 41.09,220.03 -102.29,-54.5 -163.34,-155.64 -180.66,-252.44z"/>
    <ellipse class="fil4" transform="matrix(1.51871 -0.707518 0.707518 1.51871 2032.76 3474.06)" rx="29.99" ry="26.33"/>
    <path class="fil8" d="M2493.29 3250.45c-319.12,-180.39 -723.78,-186.16 -982.75,-82.21 -23.25,-4.23 -57.15,-40.14 -64.06,-71.31 135.39,-145.47 982.74,-166.22 1046.81,153.52z"/>
    <path class="fil4" d="M4114.44 3515.7c-96.33,-181.32 -612.85,-305.02 -876.37,73.74 -1.7,249.67 215.21,336.7 410.96,327.2 201.42,-9.78 428.95,-123.66 465.41,-400.93z"/>
    <path class="fil5" d="M3323.35 3812.98c152.64,168.44 400.61,169.22 560.17,41.3 -193.41,58.93 -350.93,68.06 -560.17,-41.3z"/>
    <path class="fil6" d="M3372.67 3486.04c-15.31,30.43 -23.93,64.71 -23.93,100.99 0,125.72 103.36,227.62 230.85,227.62 127.5,0 230.86,-101.9 230.86,-227.62 0,-85.72 -48.07,-160.36 -119.08,-199.17 -114.34,-22.33 -238.36,14 -318.69,98.18z"/>
    <path class="fil7" d="M3372.39 3587.03c0,112.83 92.76,204.29 207.2,204.29 92.16,0 170.28,-59.33 197.18,-141.37l-127.18 -40.58c-9.56,29.12 -37.28,50.19 -70,50.19 -40.62,0 -73.56,-32.47 -73.56,-72.53l-133.64 0z"/>
    <path class="fil4" d="M3493.87 3426.9c8.3,4.07 15.1,10.6 19.1,19.19 10.29,22.09 -1.76,49.5 -26.93,61.22 -25.16,11.72 -53.89,3.32 -64.18,-18.77 -4.34,-9.31 -4.7,-19.56 -1.8,-29.18 10.31,-36.58 41.01,-46.81 73.8,-32.45z"/>
    <path class="fil5" d="M4194.83 3498.17c-80.74,-125.47 -266.43,-204.55 -458.74,-204.39 -204.16,0.17 -409.15,95.08 -510.61,313.15 240.55,-258.43 626.3,-294.43 829.77,-76.35 0.05,40.79 -4.07,128.45 -41.09,220.03 102.29,-54.5 163.34,-155.64 180.66,-252.44z"/>
    <path class="fil8" d="M3218.75 3250.45c319.12,-180.39 723.78,-186.16 982.75,-82.21 23.25,-4.23 57.15,-40.14 64.06,-71.31 -135.39,-145.47 -982.74,-166.22 -1046.81,153.52z"/>
    <path class="fil9" d="M2589.72 4377.4c84.65,33.24 212.31,28.52 266.3,28.11 53.99,0.41 181.65,5.13 266.3,-28.11 -99.32,2.4 -147.44,1.89 -266.3,0.45 -118.86,1.44 -166.98,1.94 -266.3,-0.45z"/>
   </g>
   <g>
    <path class="fil10" d="M1653.36 3159.55c24.09,21.46 2.53,85.8 -47.46,118.42 420.82,-28.79 678.19,-189.71 914.49,-532.34 19.4,115.95 -32.69,186.36 -173.77,394.42 433.75,-96.34 773.76,-709.77 853.92,-1153.45 9.44,21.29 25.63,277.36 34.89,334.34 39.83,245.08 141.88,609.96 394.26,724.34 -23.03,-67.05 -55.75,-120.59 -61.88,-208.07 223.79,226.33 489.4,441.14 833.02,547.34 -47.57,102.2 -81.02,252.6 -80.27,385.33 80.8,-258.47 137.48,-331.03 329,-254.34 86.26,-30.61 198.72,-101.58 268.38,-277.52 91.54,-245.06 96.9,-522.89 36.7,-784.01 -19.09,-82.8 -59.65,-176.66 -81.33,-252.1 78.77,38.93 112.8,55.68 165.63,103.23 -4.05,-8.85 -102.68,-230.11 -283.97,-184.49 -616.37,114.32 -1247.03,-193.69 -1513.93,-495.15 -165.76,74.48 -295.43,375.53 -605.48,370.66 -756.09,698.18 -1314.19,944.62 -1814.75,959.08 45.61,195.1 454.29,606.04 589,875.41 -27.37,-226.73 -37.08,-322.85 -89.23,-446.11 144.5,-25.29 251.99,-128.25 332.78,-225.01z"/>
    <path class="fil11" d="M820.81 2955.26c25.85,28.97 79.64,224.52 327.62,307.86 274.34,78.82 420.25,-38.96 504.93,-103.56 -2.56,46.23 -17.17,90.42 -47.47,118.42 23.88,-0.03 98.43,-26.12 123.66,-35.15 221.71,-79.4 388.32,-225.84 536.18,-401.61 78.86,-93.74 147.05,-205.45 212.94,-328.08 31.13,-57.94 61.82,-122.18 86.67,-183.6 14.41,-35.65 60.43,-169.99 74.97,-190.55 4.98,127.26 -55.35,400.87 -97.19,536.52 -38.59,123.67 -125.27,372.05 -196.51,464.55 358.03,-199.55 728.98,-906.7 857.32,-1310.52 89.05,282.72 195.76,496 407.09,783.23 105.11,142.85 199.27,236.83 326,364.31 164.75,134.21 459.5,376.65 683.28,245.35 93.24,-54.71 114.99,-153.68 131.27,-172.09 16.03,50.38 13.29,106.73 46.75,145.64 212.57,-177.7 161.72,-486.83 121.63,-729.9l-46.65 -264.15c89.82,11.85 110.69,49.78 165.63,103.23 -8.28,-146.92 -178.45,-359.22 -305.73,-443.72 77.3,-9.34 160.02,-24.9 212.61,-66.99 -368.52,-95.73 -472.79,-425.48 -634.79,-684.46 -176.02,-281.39 -603.92,-401.88 -1145.53,-202.59 -229.74,-123.57 -318.13,-183.86 -646.15,-189.97 -382.87,-10.75 -626.78,117.26 -826.6,292.91 -282.58,248.41 -476.99,592.13 -851.56,773.43 49.06,50.89 50.54,49.4 129.94,78.8 -218.05,392.33 -250.66,658.22 -150.33,1092.67z"/>
   </g>
  </g>
 </g>
</svg>
