<?xml version="1.0" encoding="UTF-8"?>
<!DOCTYPE svg PUBLIC "-//W3C//DTD SVG 1.1//EN" "http://www.w3.org/Graphics/SVG/1.1/DTD/svg11.dtd">
<!-- Creator: CorelDRAW 2017 -->
<svg xmlns="http://www.w3.org/2000/svg" xml:space="preserve" width="172.156mm" height="172.156mm" version="1.1" style="shape-rendering:geometricPrecision; text-rendering:geometricPrecision; image-rendering:optimizeQuality; fill-rule:evenodd; clip-rule:evenodd"
viewBox="0 0 2308.79 2308.79"
 xmlns:xlink="http://www.w3.org/1999/xlink">
 <defs>
  <style type="text/css">
   <![CDATA[
    .fil0 {fill:none}
    .fil4 {fill:#209575}
    .fil3 {fill:#3D4F70}
    .fil1 {fill:#47B796}
    .fil2 {fill:#FCFCFC}
   ]]>
  </style>
 </defs>
 <g id="Capa_x0020_1">
  <metadata id="CorelCorpID_0Corel-Layer"/>
  <rect class="fil0" x="-0" y="-0" width="2308.79" height="2308.79"/>
  <g id="_2256453084944">
   <path class="fil1" d="M1824.31 1862.33c-2.74,-96.7 -10.83,-271.75 -13.78,-329.46 119.57,-190.63 170.22,-438.54 245.19,-456.8 -45.09,-120.64 -102.61,-222.52 -162.02,-306.8 -159.41,-34.86 -201.52,-92.68 -214.98,-229.78 -6.49,-4.26 -10.86,-6.68 -15.86,-9.07 -94.55,-45.32 -170.01,-73.06 -280.05,-107.64 -39.71,108.1 -174.48,140.82 -211.84,171.3 -43.06,-34.22 -166.84,-91.83 -211.84,-171.3 -110.05,34.59 -185.51,62.33 -280.05,107.64 -4.29,2.05 -10.48,5.65 -15.86,9.07 1.43,114.11 -78.74,215.04 -214.98,229.79 -57.73,85.85 -118.75,189.19 -163.34,308.61 122.21,114.9 125.92,381.19 246.51,454.98 -2.95,57.71 -11.04,232.76 -13.78,329.46 486.85,106.48 810.24,104.15 1306.7,0z"/>
   <path class="fil2" d="M1893.7 769.27c-20.2,-28.89 -38.84,-53.48 -58.59,-77.59 -45.8,-9.23 -81.98,-45.84 -79.55,-87.8 -30.49,-29.95 -56.98,-51.56 -76.84,-64.39 -178.25,100.8 -317.22,219.75 -477.41,355.31 -19.38,12.85 -40.42,11.92 -61.46,-0.59 -175.04,-156.45 -329.51,-267.34 -476.63,-354.72 -20.88,13.49 -50.26,37.9 -82.5,69.99 -2.54,53.15 -24.16,66.64 -70.84,78.45 -19.94,24.3 -41.21,52.12 -61.65,81.34 242.84,132.38 463.63,300.03 666.79,511.77 40.44,25.96 70.58,28.41 108.08,2.93 214.72,-209.78 414.73,-372.53 670.61,-514.71z"/>
   <path class="fil3" d="M1835.11 691.68c-28.01,-34.34 -55.03,-63.72 -79.55,-87.8 -165.65,92.88 -370.97,237.19 -554.26,410.91 -19.38,12.85 -40.42,11.92 -61.46,-0.59 -174.62,-152.54 -349.24,-283.04 -559.13,-404.71 -22.09,22.08 -46.05,48.31 -70.84,78.45 236.67,130.5 445.4,299.22 621.81,466.46 40.44,25.96 37.25,28.41 74.75,2.93 205.15,-183.14 413.24,-366.28 628.68,-465.65z"/>
   <path class="fil2" d="M1361.7 413.2c4.28,-0.92 129.9,37.75 133.98,42.13 -34.03,102.82 -48.69,165.15 -111.89,212.57 -32.32,-40.11 -94.31,-115.4 -163.58,-95.12 -26.11,15.41 -45.55,27.43 -49.24,31.3 -3.69,-3.87 -23.13,-15.89 -49.24,-31.3 -69.27,-20.27 -131.26,55.01 -163.58,95.12 -63.2,-47.42 -77.86,-109.75 -111.89,-212.57 4.07,-4.38 129.7,-43.04 133.98,-42.13 49.77,59.25 121.97,132.21 190.74,167.55 68.76,-35.33 140.97,-108.29 190.74,-167.55z"/>
   <g>
    <path class="fil3" d="M529.07 1137.23c16.18,5.43 30.82,11.46 35.4,15.27 -6.44,33.81 -25.09,164.86 -27.8,232.57 -3.14,2.09 -6.71,4.38 -9.83,6.32 -65.55,-95.39 -36.32,-228.19 2.24,-254.16z"/>
    <path class="fil2" d="M463.86 1121.68c23.7,5.35 46.21,10.88 65.2,15.55 -18.54,77.23 -15.45,180.2 -2.24,254.16 -20.67,12.82 -38.89,21.7 -59.06,28.39 -65.76,-52.65 -51.17,-267.34 -3.9,-298.1z"/>
    <path class="fil3" d="M396.14 1107.16c22.41,3.89 45.64,8.98 67.72,14.52 -28.19,89.91 -15.63,220.25 3.9,298.1 -21.66,7.41 -42.6,11.44 -63.83,12.49 -68.59,-99.46 -76.14,-230.03 -7.8,-325.11z"/>
    <path class="fil2" d="M326.71 1101.91c19.74,0.41 45.53,0.32 69.43,5.25 -29.1,101.7 -15.56,247.04 7.8,325.11 -22.54,1.17 -43.58,-0.76 -65.79,-5.91 -59.66,-97.27 -56.88,-220.66 -11.43,-324.45z"/>
    <path class="fil3" d="M286.1 1409.31c-25.57,-66.67 -37.58,-118.13 -38.94,-163.86 -1.38,-46.26 8.14,-86.67 25.5,-131.02 6.84,-11.26 27.03,-14.27 54.04,-12.52 -28.22,108.29 -13.63,253.47 11.43,324.45 -17.4,-3.95 -34.74,-9.7 -52.04,-17.05z"/>
   </g>
   <g>
    <path class="fil3" d="M536.66 1385.06l-8.34 211.46c-13.13,-1.31 -27.98,1.05 -41.75,5.01 -28.04,-51.09 -34.4,-143.07 -6.56,-215.38 20.77,-0.95 40.66,-1.38 56.65,-1.09z"/>
    <path class="fil2" d="M486.57 1601.53c-10.63,3.13 -21.64,7.57 -31.67,12.19 -44.4,-62.39 -56.84,-160.15 -30.49,-223.98 18.67,-1.52 38.03,-2.78 55.6,-3.59 2.92,64.15 4.33,142.54 6.56,215.38z"/>
    <path class="fil3" d="M454.9 1613.73c-10.09,4.67 -20.03,9.93 -28.65,14.67 -53.87,-73.76 -85.56,-153.28 -66.71,-232.02 19.06,-2.31 44.45,-4.96 64.87,-6.63 4.78,67.79 17.17,147.81 30.49,223.98z"/>
    <path class="fil2" d="M426.25 1628.39c-8.36,4.6 -16.96,9.5 -23.13,12.81 -48.36,-53.02 -99.5,-123.62 -93.75,-237.17 14.7,-2.86 31.35,-5.27 50.17,-7.67 7.63,67.94 35.66,155.65 66.71,232.02z"/>
    <path class="fil3" d="M403.13 1641.21c-7.66,4.07 -13.19,6.49 -15.74,5.89 -9.01,-2.12 -128.71,-168.25 -120.79,-227.65 0.7,-5.25 17.41,-10.57 42.78,-15.41 20.68,90.23 61.92,166.21 93.75,237.17z"/>
   </g>
   <g>
    <path class="fil2" d="M581.4 1082.28c-2.66,10.24 -4.93,20.47 -7.43,30.81 -85.76,18.26 -230.9,-6.53 -295.71,-70.95 7.63,-18.83 16.64,-39.98 25.32,-58.82 94.39,-5.17 221.66,40.52 277.82,98.96z"/>
    <path class="fil3" d="M573.97 1113.08l-9.51 39.42c-66.03,-1.52 -303.47,-30.78 -308.14,-45.51 -1.01,-3.18 12.27,-39.87 21.93,-64.85 57.14,23.65 187.72,51.13 295.71,70.95z"/>
    <path class="fil3" d="M592.4 1036.69l-11 45.58c-74.81,-27.94 -194.15,-71.77 -277.82,-98.96 11.37,-23.07 32.1,-62.77 36.81,-64.09 18.4,-5.15 168.58,73.94 252.01,117.46z"/>
   </g>
   <path class="fil4" d="M600.49 1008.18c-57.58,99.5 -93.85,389.38 -72.17,588.34 7.84,-195.67 53.03,-480.47 72.17,-588.34z"/>
   <g>
    <path class="fil3" d="M1812.86 1137.23c-16.18,5.43 -30.82,11.46 -35.4,15.27 6.44,33.81 25.09,164.86 27.8,232.57 3.14,2.09 6.71,4.38 9.83,6.32 65.55,-95.39 36.32,-228.19 -2.24,-254.16z"/>
    <path class="fil2" d="M1878.06 1121.68c-23.7,5.35 -46.21,10.88 -65.2,15.55 18.54,77.23 15.45,180.2 2.24,254.16 20.67,12.82 38.89,21.7 59.06,28.39 65.76,-52.65 51.17,-267.34 3.9,-298.1z"/>
    <path class="fil3" d="M1945.79 1107.16c-22.41,3.89 -45.64,8.98 -67.72,14.52 28.19,89.91 15.63,220.25 -3.9,298.1 21.66,7.41 42.6,11.44 63.83,12.49 68.59,-99.46 76.14,-230.03 7.8,-325.11z"/>
    <path class="fil2" d="M2015.22 1101.91c-19.74,0.41 -45.53,0.32 -69.43,5.25 29.1,101.7 15.56,247.04 -7.8,325.11 22.54,1.17 43.58,-0.76 65.79,-5.91 59.66,-97.27 56.88,-220.66 11.43,-324.45z"/>
    <path class="fil3" d="M2055.83 1409.31c25.57,-66.67 37.58,-118.13 38.94,-163.86 1.38,-46.26 -8.14,-86.67 -25.5,-131.02 -6.84,-11.26 -27.03,-14.27 -54.04,-12.52 28.22,108.29 13.63,253.47 -11.43,324.45 17.4,-3.95 34.74,-9.7 52.04,-17.05z"/>
   </g>
   <g>
    <path class="fil3" d="M1805.27 1385.06l8.34 211.46c13.13,-1.31 27.98,1.05 41.75,5.01 28.04,-51.09 34.4,-143.07 6.56,-215.38 -20.77,-0.95 -40.66,-1.38 -56.65,-1.09z"/>
    <path class="fil2" d="M1855.36 1601.53c10.63,3.13 21.64,7.57 31.67,12.19 44.4,-62.39 56.84,-160.15 30.49,-223.98 -18.67,-1.52 -38.03,-2.78 -55.6,-3.59 -2.92,64.15 -4.33,142.54 -6.56,215.38z"/>
    <path class="fil3" d="M1887.03 1613.73c10.09,4.67 20.03,9.93 28.65,14.67 53.87,-73.76 85.56,-153.28 66.71,-232.02 -19.06,-2.31 -44.45,-4.96 -64.87,-6.63 -4.78,67.79 -17.17,147.81 -30.49,223.98z"/>
    <path class="fil2" d="M1915.68 1628.39c8.36,4.6 16.96,9.5 23.13,12.81 48.36,-53.02 99.5,-123.62 93.75,-237.17 -14.7,-2.86 -31.35,-5.27 -50.17,-7.67 -7.63,67.94 -35.66,155.65 -66.71,232.02z"/>
    <path class="fil3" d="M1938.8 1641.21c7.66,4.07 13.19,6.49 15.74,5.89 9.01,-2.12 128.71,-168.25 120.79,-227.65 -0.7,-5.25 -17.41,-10.57 -42.78,-15.41 -20.68,90.23 -61.92,166.21 -93.75,237.17z"/>
   </g>
   <g>
    <path class="fil2" d="M1760.53 1082.28c2.66,10.24 4.93,20.47 7.43,30.81 85.76,18.26 230.9,-6.53 295.71,-70.95 -7.63,-18.83 -16.64,-39.98 -25.32,-58.82 -94.39,-5.17 -221.66,40.52 -277.82,98.96z"/>
    <path class="fil3" d="M1767.96 1113.08l9.51 39.42c66.03,-1.52 303.47,-30.78 308.14,-45.51 1.01,-3.18 -12.27,-39.87 -21.93,-64.85 -57.14,23.65 -187.72,51.13 -295.71,70.95z"/>
    <path class="fil3" d="M1749.53 1036.69l11 45.58c74.81,-27.94 194.15,-71.77 277.82,-98.96 -11.37,-23.07 -32.1,-62.77 -36.81,-64.09 -18.4,-5.15 -168.58,73.94 -252.01,117.46z"/>
   </g>
   <path class="fil4" d="M1741.44 1008.18c57.58,99.5 93.85,389.38 72.17,588.34 -7.84,-195.67 -53.03,-480.47 -72.17,-588.34z"/>
  </g>
 </g>
</svg>
