<?xml version="1.0" encoding="UTF-8"?>
<!DOCTYPE svg PUBLIC "-//W3C//DTD SVG 1.1//EN" "http://www.w3.org/Graphics/SVG/1.1/DTD/svg11.dtd">
<!-- Creator: CorelDRAW 2017 -->
<svg xmlns="http://www.w3.org/2000/svg" xml:space="preserve" width="172.156mm" height="172.156mm" version="1.1" style="shape-rendering:geometricPrecision; text-rendering:geometricPrecision; image-rendering:optimizeQuality; fill-rule:evenodd; clip-rule:evenodd"
viewBox="0 0 3273.04 3273.04"
 xmlns:xlink="http://www.w3.org/1999/xlink">
 <defs>
  <style type="text/css">
   <![CDATA[
    .fil0 {fill:none}
    .fil7 {fill:#606062}
    .fil9 {fill:#1F92BF}
    .fil3 {fill:#DEDEDE}
    .fil4 {fill:#E3594B}
    .fil5 {fill:#EDEDED}
    .fil1 {fill:#FAFAFC}
    .fil2 {fill:#606062;fill-rule:nonzero}
    .fil6 {fill:#1F92BF;fill-rule:nonzero}
    .fil8 {fill:#E3594B;fill-rule:nonzero}
   ]]>
  </style>
 </defs>
 <g id="Capa_x0020_1">
  <metadata id="CorelCorpID_0Corel-Layer"/>
  <rect class="fil0" x="-0" y="-0" width="3273.04" height="3273.04"/>
  <g id="_2256458254544">
   <path class="fil1" d="M2562.93 2602.2c-2.02,-71.46 -8.81,-252.2 -19.54,-467.06 9.41,-166.03 -22.46,-425.65 -50.15,-576.59 103.03,-14.6 282.36,-87.64 362.64,-157.38 -13.77,-31.85 -28.61,-63.74 -43.55,-93.85 -23.6,-11.93 -30.62,-29.52 -27.12,-52.61 -165.3,-309.79 -374.12,-503.76 -451.17,-540.69 -84.97,-40.73 -154.53,-69.82 -237.13,-99.34 -56.03,10.05 -115.64,8.94 -172.74,-9.01 -71.92,139.7 -234.5,155.37 -287.46,198.59 -61.05,-48.52 -231.83,-78.09 -295.63,-190.76 -56.33,17.7 -109.36,44.8 -164.82,1.17 -83.39,29.73 -151.25,58.29 -236.88,99.34 -76.6,36.72 -283.72,229.18 -448.55,535.81 2.69,29.9 -5.62,50.23 -29.65,57.32 -14.91,30.1 -30.19,62.89 -44.02,94.91 73.48,63.78 216.61,122.37 365.37,159.62 -8.55,42.07 -57.64,291.2 -52.5,573.46 -4.18,81.82 -15.65,329.97 -19.54,467.06 660.08,39.18 1194.98,48.5 1852.43,0z"/>
   <path class="fil2" d="M1397.95 797.98c103.11,86.51 212.17,146.21 241.49,146.28 26.66,0.06 139.03,-76.92 240.47,-162.84 13.47,-2.7 18.13,5.22 15.22,17.99 -104.9,88.85 -224.23,168.46 -255.69,168.38 -33.1,-0.09 -149.69,-62 -256.63,-151.73 -3.49,-12.29 3.46,-19.65 15.14,-18.09z"/>
   <path class="fil3" d="M1906.98 554.96c6.07,-1.3 184.16,53.51 189.93,59.72 -48.25,145.76 -69.03,234.12 -158.62,301.35 -45.81,-56.87 -133.69,-163.59 -231.9,-134.85 -37.01,21.85 -64.57,38.88 -69.8,44.37 -5.24,-5.49 -32.79,-22.52 -69.8,-44.37 -98.2,-28.74 -186.09,77.98 -231.9,134.85 -89.59,-67.23 -110.38,-155.59 -158.62,-301.35 5.77,-6.21 183.86,-61.02 189.93,-59.72 70.55,84 172.92,187.43 270.4,237.52 97.48,-50.09 199.84,-153.52 270.4,-237.52z"/>
   <path class="fil4" d="M490.83 1249.82c-7.39,13.75 -22.44,43.11 -29.65,57.32 104.84,68.32 223.61,127.47 344.38,161.98l15 -55.83c-74.84,-21.38 -147.43,-55.07 -217.43,-94.59 -38.01,-21.46 -75.5,-44.78 -112.3,-68.88z"/>
   <path class="fil4" d="M2812.34 1307.32c-7.17,-14.23 -19.76,-38.83 -27.12,-52.61 -37.17,24.37 -75.04,47.94 -113.45,69.63 -70.01,39.52 -142.59,73.21 -217.43,94.59l16.57 57.91c121.13,-34.61 236.32,-100.93 341.44,-169.51z"/>
   <path class="fil5" d="M827.98 1391.32c-81.63,141.05 -128.68,461.77 -97.95,743.82 11.12,-277.39 70.81,-590.9 97.95,-743.82z"/>
   <path class="fil5" d="M2445.44 1391.32c81.63,141.05 128.68,461.77 97.95,743.82 -11.12,-277.39 -70.81,-590.9 -97.95,-743.82z"/>
   <path class="fil3" d="M2562.93 2639.99c-0.72,-25.48 -1.71,-92.58 -2.86,-123.95 -758.83,25.91 -1146.64,26.96 -1846.67,-1.28 -1.17,31.84 -2.17,99.41 -2.9,125.23 590.07,156.7 1154.98,161.02 1852.43,0z"/>
   <path class="fil4" d="M2066.6 2530.38c-63.42,1.4 -124.7,2.53 -184.53,3.38 1.22,31.85 10.46,96.11 16.99,100.61 8.27,5.7 171.35,-10.99 174.49,-20.57 2.01,-6.14 -2.09,-50.32 -6.94,-83.42zm-915.17 -0.82c-53.99,-1.37 -109.29,-2.99 -166.38,-4.83 -11.54,24.18 -21.23,48.19 -19.38,52.71 3.79,9.3 149.4,84.6 157.28,78.3 7.87,-6.3 54.06,-98.4 53.25,-108.6 -0.2,-2.6 -10.06,-9.24 -24.77,-17.58zm-440.11 73.28c-0.31,15.13 -0.58,28.5 -0.82,37.16 24.18,6.42 48.32,12.56 72.43,18.47 0.06,-23.73 -0.82,-45.02 -3.03,-48.83 -2.17,-3.75 -33.12,-6.07 -68.58,-6.79zm689.06 150.29c60.93,3.65 122.25,5.61 184.12,5.94 6.76,-32.57 13.48,-74.7 11.24,-80.71 -3.58,-9.59 -166.99,-38.14 -174.61,-30.04 -6.25,6.64 -19.61,75.89 -20.74,104.82zm837.12 -48.48c59.72,-9.82 120.33,-21 181.93,-33.51 -4.55,-22.91 -9.5,-43.13 -12.37,-46.4 -6.76,-7.68 -169.6,23.98 -173.82,34.26 -1.74,4.23 0.47,23.76 4.26,45.65z"/>
   <path class="fil6" d="M1639.45 1097.8c271.15,-79.83 383.47,-198.64 459.33,-278.92 30.96,-32.76 56.24,-59.51 84.91,-76.64l9.47 -5.66 10.28 3.53c22.7,7.82 44.02,16.5 66.21,28.86 21.93,12.21 44.19,27.84 68.75,49.54 32.91,29.09 69.93,69.09 116.06,126.68 45.44,56.73 100.32,131.31 169.57,230.33l1.94 2.78 1.1 3.31c24.33,73 -200.84,139.33 -201.48,139.52l-13.11 -45.22c0.5,-0.14 169.71,-49.83 170.22,-77.36 -66.92,-95.59 -120.35,-168.11 -164.98,-223.82 -44.55,-55.62 -79.77,-93.78 -110.52,-120.96 -21.76,-19.23 -41.32,-32.98 -60.45,-43.63 -15.57,-8.67 -31.27,-15.43 -47.92,-21.54 -20.11,14.34 -40.94,36.37 -65.72,62.59 -80.36,85.03 -199.74,211.36 -490.07,294.75l-8.07 -0.26c-290.33,-83.39 -409.71,-209.71 -490.07,-294.75 -24.78,-26.22 -45.61,-48.25 -65.72,-62.59 -16.65,6.11 -32.35,12.87 -47.92,21.53 -19.13,10.65 -38.68,24.4 -60.45,43.63 -30.75,27.18 -65.97,65.34 -110.52,120.96 -44.63,55.72 -98.05,128.23 -164.98,223.82 0.5,27.53 169.72,77.22 170.22,77.37l-13.11 45.22c-0.65,-0.19 -225.81,-66.51 -201.48,-139.52l1.11 -3.31 1.94 -2.78c69.25,-99.02 124.13,-173.6 169.57,-230.33 46.13,-57.59 83.15,-97.59 116.06,-126.67 24.56,-21.7 46.82,-37.33 68.75,-49.54 22.19,-12.36 43.51,-21.04 66.21,-28.86l10.28 -3.53 9.47 5.66c28.67,17.14 53.94,43.89 84.91,76.64 75.94,80.37 188.43,199.35 460.22,279.18z"/>
   <path class="fil7" d="M2673.98 1070.9c-6.68,-9.8 -13.38,-19.43 -20.07,-28.87 -24.61,-5.56 -51.43,-11.24 -79.34,-17.15 -48.97,-10.38 -101.37,-21.47 -151.15,-33.88 8.33,-37.06 17.46,-72.35 25.87,-104.81 6.25,-24.16 12.12,-46.8 16.95,-67.38 -6.75,-6.64 -13.38,-12.99 -19.85,-19.06 -5.3,24.16 -12.3,51.19 -19.89,80.53 -8.41,32.5 -17.56,67.8 -25.92,104.88 -33.12,-8.69 -64.6,-18.03 -92.57,-28.17 -1.78,-11.28 -11.54,-19.92 -23.33,-19.92 -13.05,0 -23.62,10.58 -23.62,23.62 0,13.05 10.57,23.62 23.62,23.62 5.66,0 10.86,-2 14.93,-5.32 29.1,10.57 61.72,20.24 95.93,29.21 -7.89,37.38 -14.73,76.31 -19.04,115.83 -8.18,3.72 -13.86,11.95 -13.86,21.52 0,13.05 10.57,23.62 23.62,23.62 13.05,0 23.62,-10.58 23.62,-23.62 0,-7.92 -3.9,-14.94 -9.89,-19.23 4.17,-38.24 10.76,-75.98 18.39,-112.29 49.98,12.44 102.32,23.53 151.27,33.9 37.68,7.99 73.35,15.54 104.31,22.95z"/>
   <path class="fil7" d="M829.74 797.32c-6.47,6.03 -13.1,12.35 -19.86,18.96 4.81,20.45 10.63,42.93 16.84,66.91 8.41,32.46 17.54,67.75 25.87,104.81 -49.78,12.4 -102.18,23.5 -151.15,33.88 -28.07,5.95 -55.03,11.66 -79.76,17.25 -6.73,9.45 -13.47,19.08 -20.19,28.9 31.09,-7.45 66.94,-15.05 104.84,-23.08 48.95,-10.37 101.3,-21.46 151.27,-33.9 7.63,36.31 14.22,74.05 18.39,112.29 -5.99,4.29 -9.89,11.3 -9.89,19.22 0,13.05 10.57,23.62 23.62,23.62 13.05,0 23.62,-10.58 23.62,-23.62 0,-9.56 -5.68,-17.8 -13.86,-21.52 -4.31,-39.52 -11.14,-78.45 -19.04,-115.83 34.21,-8.97 66.83,-18.64 95.93,-29.21 4.07,3.32 9.27,5.32 14.93,5.32 13.05,0 23.62,-10.58 23.62,-23.62 0,-13.05 -10.57,-23.62 -23.62,-23.62 -11.79,0 -21.55,8.63 -23.33,19.92 -27.96,10.14 -59.45,19.48 -92.57,28.17 -8.36,-37.08 -17.5,-72.38 -25.92,-104.88 -7.54,-29.11 -14.49,-55.95 -19.77,-79.96z"/>
   <path class="fil2" d="M2510.67 2617.76c-24.9,-23.48 -50.2,-31.28 -57.79,-33.61l-0.79 -0.25c-13.19,-7.64 -8.02,-24.13 6.92,-22.52l0.79 0.25c8.8,2.71 38.15,11.75 67.02,38.97 11.81,11.32 -5.42,28.63 -16.15,17.16zm-1649.34 -59.13c11.41,32.25 30.3,50.71 35.98,56.26l0.66 0.65c7.91,11.85 -4.96,23.3 -16.52,16.79l-0.56 -0.55c-6.61,-6.46 -28.59,-27.93 -41.81,-65.3 0.12,-11.21 14.05,-15.91 22.24,-7.84zm355.7 122.38c32.12,-11.55 50.54,-30.57 56.07,-36.29l0.64 -0.65c12.4,-5.85 23.24,4.76 16.89,16.42l-0.55 0.56c-6.4,6.64 -27.73,28.68 -65.1,42.11 -16.06,1.6 -20.14,-13.98 -7.94,-22.15zm295.78 -61.07c24.09,-24.36 32.48,-49.4 34.99,-56.93l0.27 -0.81c7.05,-10.14 22.83,-6.87 22.33,7.47l-0.27 0.81c-2.93,8.77 -12.69,37.92 -40.53,66.06 -13.81,5.92 -23.5,-6.06 -16.79,-16.61zm258.41 34.51c23.06,25.25 47.69,34.91 55.08,37.8l0.78 0.31c12.05,11.23 3.07,25.78 -8.58,21.96l-0.78 -0.31c-8.57,-3.36 -37.17,-14.57 -63.94,-43.89 -5.13,-14.02 4.98,-21.79 17.45,-15.88zm411.64 -65.16c-16.53,30.03 -17.74,56.43 -18.1,64.34l-0.04 0.82c-0.49,15.42 -23.63,15.02 -23.53,-1.01l0.04 -0.82c0.42,-9.19 1.83,-39.93 20.96,-74.67 9.37,-8.07 23.55,-3.18 20.68,11.35z"/>
   <g>
    <path class="fil8" d="M1698.21 1412.68l150.89 -5.44 4.9 133.81 57.71 -135.04 196.18 3.38 -133.25 328.54 210.6 319.46 -227.72 3.3 -89.43 -137.98 2.49 147.37 -195.39 6.02 -11.66 -662.17 34.66 -1.25zm-447.65 2.06l374.54 -4.19 2.72 165.86 -105.06 4.6 10.22 283.17c0,52.87 -17.26,106.92 -50.61,148.64 -34.24,42.83 -84.87,72.48 -150.62,74.86l-12.13 0.1c-68.72,-1.13 -112.13,-32.15 -138.48,-76.64 -24.13,-40.74 -32.24,-91.95 -32.24,-139.98 0,-2.77 0.07,0.36 0.19,-7.24l0.53 -31.63 156.59 -14.74 -0.76 39.41c-0.65,33.68 6.36,50.6 15.65,56.22 5.02,3.04 10.72,1.86 15.69,-0.66 8.27,-4.18 14.68,-12.85 14.49,-23.38l-7.06 -300.42 -124.94 3.68 -4.71 -177.26 35.97 -0.4z"/>
    <path class="fil9" d="M1699.45 1447.98l115.64 -4.17 9.37 256.28 110.43 -258.36 120.84 2.08 -120.84 297.95 185.43 281.28 -143.76 2.08 -145.85 -225.02 3.98 235.77 -124.83 3.84 -10.42 -591.72zm-448.62 2.06l339.54 -3.79 1.58 96.38 -105.77 4.63 11.21 309.29c3.44,94.98 -57.56,195.97 -174.08,195.97 -113.95,0 -140.39,-100.22 -138.94,-188.04l85.77 -8.07c-2.64,137.01 118.1,102.74 116.44,31.9l-7.88 -335.94 -125.04 3.7 -2.82 -106.03z"/>
   </g>
  </g>
 </g>
</svg>
