<?xml version="1.0" encoding="UTF-8"?>
<!DOCTYPE svg PUBLIC "-//W3C//DTD SVG 1.1//EN" "http://www.w3.org/Graphics/SVG/1.1/DTD/svg11.dtd">
<!-- Creator: CorelDRAW 2017 -->
<svg xmlns="http://www.w3.org/2000/svg" xml:space="preserve" width="172.156mm" height="172.156mm" version="1.1" style="shape-rendering:geometricPrecision; text-rendering:geometricPrecision; image-rendering:optimizeQuality; fill-rule:evenodd; clip-rule:evenodd"
viewBox="0 0 1046.12 1046.12"
 xmlns:xlink="http://www.w3.org/1999/xlink">
 <defs>
  <style type="text/css">
   <![CDATA[
    .fil0 {fill:none}
    .fil3 {fill:#D2D3D5}
    .fil2 {fill:#A9ABAE}
    .fil5 {fill:#373435}
    .fil7 {fill:#BA3446}
    .fil1 {fill:#FAFDF9}
    .fil6 {fill:#D2D3D5;fill-rule:nonzero}
    .fil4 {fill:#BA3446;fill-rule:nonzero}
   ]]>
  </style>
 </defs>
 <g id="Capa_x0020_1">
  <metadata id="CorelCorpID_0Corel-Layer"/>
  <rect class="fil0" x="-0" y="-0" width="1046.12" height="1046.12"/>
  <g id="_2256252919984">
   <path class="fil1" d="M237.41 829.92c1.39,-53.49 2.65,-99.77 4.08,-124.28 -15.78,-1.58 -38.11,5.35 -47.21,14.99 -7.4,-26.02 -91.43,-127.07 -69.48,-201.15 49.04,-165.47 155.64,-271.11 188.79,-287.01 14.74,-7.07 28.91,-13.35 43.69,-19.41 5.57,-2.67 11.87,-5.67 18.88,-8.74 15.86,-6.95 35.35,-14.3 58.23,-19.15 33.19,69.13 92.76,101.59 99.06,101.18 6.3,-0.4 59.18,-28.81 99.06,-101.19 27.16,6.51 51.84,15.87 77.1,27.9 14.65,6.01 29.09,12.41 43.69,19.41 33.15,15.89 139.75,121.53 188.79,287.01 21.95,74.09 -62.08,175.14 -69.48,201.15 -15.63,-10.14 -31.08,-14.02 -47.71,-15.86 1.7,32.1 3.46,80.35 4.57,125.15 -67.72,14.68 -183.86,26.48 -296.04,26.69 -126.16,0.24 -251.31,-17.3 -296.04,-26.69z"/>
   <path class="fil2" d="M429.98 186.14c1.45,-0.33 2.92,-0.66 4.4,-0.97 1.07,2.22 2.16,4.41 3.29,6.56 0.73,21.85 2.63,41.33 5.98,58.83 3.66,19.19 9.05,35.95 16.49,50.81 18.56,-26.87 35.97,-27.7 55.85,-23.34 9.09,5.71 15.6,8.45 17.46,8.33 1.85,-0.12 7.74,-2.67 16.14,-8.04 20.43,-4.67 38.2,-4.42 57.17,23.05 7.44,-14.86 12.83,-31.62 16.49,-50.81 3.38,-17.71 5.3,-37.46 6,-59.63 1.09,-1.89 2.18,-3.81 3.26,-5.76 1.47,0.35 2.94,0.71 4.39,1.08 -0.58,24.62 -2.55,46.36 -6.25,65.72 -4.28,22.39 -10.86,41.68 -20.26,58.63l-3.11 5.61 -3.38 -5.46c-20.84,-33.69 -40,-28.59 -63.76,-22.26l-5.77 1.51 -1.86 0 -5.77 -1.51c-23.77,-6.33 -42.93,-11.42 -63.76,22.26l-3.38 5.46 -3.11 -5.61c-9.39,-16.95 -15.98,-36.24 -20.26,-58.63 -3.7,-19.39 -5.68,-41.17 -6.25,-65.83z"/>
   <path class="fil3" d="M213.97 709.49c-1.21,0.4 -2.4,0.83 -3.56,1.28 -38.62,-87.65 -59.54,-139.25 -48.27,-200.38 11.3,-61.27 55.02,-131.68 145.83,-257.33 -0.02,2.86 -0.56,5.66 -1.46,8.46 -87.41,121.28 -129.68,189.98 -140.66,249.54 -11.08,60.07 9.73,111.3 48.12,198.42z"/>
   <path class="fil4" d="M815.72 621.37c2.27,-5.04 3.33,-6.84 9.83,-8.54 8.75,-2.28 17.3,1.4 19.08,8.23 3.23,12.37 -9.39,28.88 -22.01,45.39 -1.76,-0.76 -1.72,-5.11 -3.46,-5.87 -1.8,-21.71 -1.76,-25.64 -3.44,-39.21z"/>
   <path class="fil3" d="M750.88 231.31l2.42 1.15c0.64,0.31 1.31,0.66 2,1.03 15.92,64.71 35.97,176.78 51.44,296.89 7.43,57.72 13.81,117.31 18.17,174.39 -0.04,-0 8.52,95.53 4.57,125.15l-2.31 0.49 -0.01 -0.53c-1.2,-89.4 -11.03,-197.11 -24.16,-299.03 -15.7,-121.89 -36.11,-235.47 -52.12,-299.54z"/>
   <path class="fil3" d="M237.41 829.92c-2.17,-44.3 4.31,-124.26 4.08,-124.28 4.36,-57.33 10.76,-117.2 18.23,-175.2 15.45,-119.98 35.47,-231.94 51.39,-296.68 0.86,-0.48 1.7,-0.92 2.48,-1.29l1.94 -0.93c-16.01,64.1 -36.4,177.59 -52.08,299.37 -13.12,101.92 -22.95,209.64 -24.16,299.03l-0 0.37 -1.88 -0.39z"/>
   <path class="fil3" d="M364.03 209.84c1.39,-0.65 2.81,-1.32 4.27,-1.99 -20.63,98.3 -35.03,213.34 -45.13,326.5 -9.78,109.5 -15.54,217.29 -19.03,306.47l-3.75 -0.51c3.49,-89.13 9.25,-196.82 19.02,-306.28 10.02,-112.29 24.27,-226.4 44.61,-324.18zm54.86 -20.9c1.34,-0.37 2.7,-0.73 4.07,-1.09 -20.14,97.91 -33.52,218.74 -42.73,337.77 -9.04,116.99 -14.05,232.11 -17.46,322.06l-3.75 -0.38c3.41,-90.04 8.42,-205.19 17.45,-321.97 9.15,-118.42 22.45,-238.65 42.41,-336.4zm43.51 118.46c-23.59,154.15 -28.93,340.28 -33.26,491.36 -0.53,18.69 -1.06,36.84 -1.59,54.32l-3.76 -0.25c0.54,-17.45 1.06,-35.54 1.59,-54.17 4.34,-151.33 9.68,-337.79 33.35,-492.23 1.2,-0.27 3.17,-0.26 3.67,0.98zm65.85 36.2c-15.28,136.04 -18.95,290.97 -22.03,421.17 -0.76,32.27 -1.49,63.03 -2.35,91.59l-3.76 -0.08c0.86,-28.59 1.59,-59.33 2.35,-91.6 3.08,-130.33 6.76,-285.42 22.07,-421.66l3.73 0.57zm19.9 -0.79c16.27,137.94 20.38,293.38 23.84,424.11 0.83,31.3 1.62,61.19 2.53,89.12l-3.76 0.09c-0.91,-27.87 -1.7,-57.79 -2.53,-89.12 -3.45,-130.58 -7.56,-285.81 -23.8,-423.54l3.72 -0.66zm58.1 -36.02c26.81,174.3 34.44,384.39 40.09,540.22l0.21 5.76 -3.76 0.24 -0.21 -5.87c-5.71,-157.42 -13.44,-370.25 -40.94,-545.44l4.61 5.09zm39.04 -118.3c1.37,0.38 2.73,0.77 4.09,1.17 20.09,97.96 33.46,218.67 42.65,337.55 8.98,116.1 13.98,230.59 17.39,320.4l-3.75 0.37c-3.41,-89.72 -8.41,-204.18 -17.4,-320.49 -9.24,-119.53 -22.7,-240.88 -42.98,-339zm55.97 20.69c1.41,0.64 2.83,1.29 4.24,1.95 19.2,95.4 32.79,205.38 42.46,313.66 10.13,113.43 15.95,224.96 19.4,315.91l-3.75 0.52c-3.45,-90.99 -9.27,-202.63 -19.4,-316.1 -9.74,-109.13 -23.49,-220.01 -42.95,-315.93z"/>
   <path class="fil5" d="M513.49 364.58c-6.21,21.59 -25.13,174.19 -39.97,296.25 -2.04,16.83 49.91,88.71 58.97,87.55 15.7,-2 61,-69.31 58.27,-87.57 -17.81,-118.74 -33.37,-280.7 -39.42,-295.16 -6.87,-16.42 -30.71,-25.87 -37.84,-1.07z"/>
   <path class="fil5" d="M513.49 364.58c-7.7,-4.22 -21.57,-59.25 -13.64,-68.53 6.64,-7.77 61.78,-6.06 67.31,0.13 5.5,6.16 -8.37,66.66 -15.83,69.47 -6.88,2.59 -30.7,2.83 -37.84,-1.08z"/>
   <path class="fil5" d="M580.55 283.09c6.39,3.4 13.98,5.79 13.98,9.39 0,3.6 -27.57,21.18 -32.36,20.98 -4.79,-0.2 -7.79,-2.6 -5.79,-6.2 2,-3.6 15.78,-19.18 24.17,-24.17z"/>
   <path class="fil5" d="M487.63 282.68c-6.39,3.4 -13.98,5.79 -13.98,9.39 0,3.6 27.57,21.18 32.36,20.98 4.79,-0.2 7.79,-2.6 5.79,-6.19 -2,-3.6 -15.78,-19.18 -24.17,-24.17z"/>
   <path class="fil6" d="M243.46 702.09c-31.69,-72.27 -50.21,-119.71 -46.68,-170.35 3.73,-53.62 32.21,-110.42 96,-203.59 -0.01,2.82 -0.55,6.52 -0.93,8.04 -60.54,89.08 -87.71,144.1 -91.31,195.8 -3.37,48.38 13.91,94.22 43.77,162.63 -0.16,2.37 -0.57,4.82 -0.85,7.46z"/>
   <path class="fil6" d="M249.69 632.25c-12.35,-35.99 -17.91,-66.59 -14.43,-98.93 3.56,-33.1 16.61,-67.91 41.56,-112.1 0.04,2.66 -0.19,4.92 -0.59,8.8 -22.18,40.45 -33.91,72.88 -37.23,103.7 -3.18,29.52 1.36,57.66 11.82,90.03 -1.77,14.79 -0.8,5.83 -1.14,8.5z"/>
   <path class="fil6" d="M849.01 709.49c39.61,-89.79 61.3,-141.71 50.04,-202.77 -10.97,-59.5 -53.17,-128.13 -140.4,-249.17 -0.84,-2.37 -1.01,-5.14 -1.23,-8.14 90.47,125.22 134.05,195.47 145.33,256.64 11.46,62.11 -10.33,114.39 -50.15,204.64 -1.55,-0.47 -2.4,-0.75 -3.6,-1.19z"/>
   <path class="fil6" d="M821.66 687.8c29.2,-67.06 46.03,-112.37 42.7,-160.17 -3.58,-51.41 -30.46,-106.11 -90.28,-194.29 -0.54,-2.61 -0.93,-4.94 -0.94,-8.07 63.07,92.29 91.27,148.78 94.98,202.11 3.49,50.14 -14.63,97.15 -45.74,168.21 -0.59,-1.8 -0.8,-5.43 -0.71,-7.79z"/>
   <path class="fil6" d="M815.12 616.09c9.71,-31 13.84,-58.22 10.78,-86.73 -3.24,-30.14 -14.53,-61.83 -35.78,-101.04 -0.64,-2.44 -0.57,-4.69 -0.89,-9.41 24.21,43.22 36.9,77.47 40.41,110.05 3.39,31.5 -1.8,61.35 -13.48,96.13 -0.23,-3.01 0.69,6.41 -1.04,-9z"/>
   <path class="fil7" d="M680.88 200.5c3.27,-2.78 44.93,15.14 49.77,21.52 5.46,48.77 8.72,177.95 17.16,309.44 6.23,97.07 15.32,195.44 19.99,264.59 -18.16,25.01 -36.62,31.56 -57.62,1.62 -5.58,-148.91 -16.47,-423.89 -29.3,-597.17z"/>
   <path class="fil7" d="M340.09 220.32c0,-5.08 39.73,-21.9 49.45,-21.57 2.49,106.17 -25.25,434.52 -36.14,600.52 -14.19,26.62 -39.28,22.62 -48.33,-4.21 12.9,-133.45 32.5,-442.53 35.02,-574.74z"/>
   <path class="fil4" d="M431.15 451.58c4.42,-3.58 8.09,-4.89 13.92,-2.95 6.43,2.14 10.3,7.95 8.63,12.97 -3.02,9.1 -17.7,14.32 -32.37,19.55 -8.63,-12.97 -17.27,-25.93 -14.25,-35.03 1.67,-5.02 8.24,-7.36 14.68,-5.23 5.83,1.94 7.99,5.18 9.39,10.69z"/>
   <path class="fil4" d="M288.95 672.17c3.1,-4.84 6.21,-7.27 12.41,-7.27 6.85,0 12.41,4.34 12.41,9.69 0,9.69 -12.41,19.38 -24.83,29.07 -12.41,-9.69 -24.83,-19.38 -24.83,-29.07 0,-5.35 5.56,-9.69 12.41,-9.69 6.21,0 9.31,2.42 12.41,7.27z"/>
   <path class="fil4" d="M459.27 774.78c1.98,-6.07 4.63,-9.54 11.3,-11.28 7.36,-1.92 14.55,1.18 16.05,6.93 2.71,10.41 -7.9,24.29 -18.52,38.17 -16.05,-6.93 -32.09,-13.86 -34.81,-24.26 -1.5,-5.74 3.26,-11.96 10.62,-13.88 6.67,-1.74 10.68,-0.01 15.37,4.33z"/>
   <path class="fil4" d="M651.4 407.37c4.51,-2.97 8.1,-3.87 13.43,-1.5 5.88,2.61 9,8.46 6.96,13.05 -3.7,8.31 -18.05,11.89 -32.4,15.47 -6.96,-13.05 -13.91,-26.1 -10.22,-34.42 2.04,-4.59 8.47,-6.19 14.35,-3.58 5.33,2.37 7.07,5.63 7.88,10.97z"/>
   <path class="fil4" d="M629.3 572.03c2.75,-5.69 5.82,-8.74 12.6,-9.55 7.47,-0.89 14.11,3.12 14.8,8.95 1.26,10.57 -11.02,22.76 -23.29,34.94 -14.81,-8.95 -29.61,-17.9 -30.87,-28.47 -0.7,-5.83 4.8,-11.29 12.28,-12.19 6.77,-0.81 10.47,1.43 14.49,6.31z"/>
   <path class="fil4" d="M660.19 720.91c4.42,-4.21 8.23,-5.92 14.63,-4.35 7.06,1.73 11.7,7.61 10.35,13.12 -2.45,9.99 -17.69,16.84 -32.93,23.69 -10.35,-13.12 -20.7,-26.25 -18.25,-36.23 1.35,-5.51 8.18,-8.58 15.24,-6.85 6.4,1.57 8.99,4.85 10.96,10.63z"/>
   <path class="fil4" d="M829.43 359.84c2.25,-5.66 4.99,-8.8 11.45,-10.04 7.12,-1.37 13.77,2.02 14.85,7.58 1.94,10.07 -9.02,22.63 -19.98,35.19 -14.85,-7.58 -29.69,-15.16 -31.63,-25.23 -1.07,-5.56 3.84,-11.19 10.96,-12.56 6.45,-1.25 10.16,0.65 14.36,5.06z"/>
   <path class="fil4" d="M908.95 527.38c5.69,-3.38 10.14,-4.27 16.52,-1.06 7.05,3.54 10.53,10.88 7.77,16.38 -5,9.97 -22.78,13.53 -40.55,17.08 -7.77,-16.38 -15.54,-32.76 -10.53,-42.72 2.76,-5.5 10.72,-7.1 17.77,-3.56 6.39,3.21 8.33,7.3 9.02,13.89z"/>
   <path class="fil4" d="M252.74 385.91c4.82,-3.57 8.74,-4.78 14.79,-2.48 6.68,2.54 10.49,8.83 8.51,14.04 -3.59,9.44 -19.28,14.29 -34.97,19.14 -8.51,-14.04 -17.03,-28.09 -13.44,-37.53 1.98,-5.21 9.01,-7.38 15.69,-4.85 6.05,2.3 8.18,5.81 9.41,11.68z"/>
   <path class="fil4" d="M196.4 534.58c1.8,-5.44 4.2,-8.55 10.19,-10.08 6.62,-1.69 13.06,1.12 14.38,6.29 2.39,9.36 -7.2,21.78 -16.8,34.2 -14.38,-6.29 -28.76,-12.58 -31.16,-21.94 -1.32,-5.16 2.98,-10.73 9.59,-12.42 6,-1.53 9.59,0.04 13.78,3.95z"/>
   <path class="fil5" d="M305.65 845.09c-6.32,-4.34 -13.55,-53.36 -5.85,-60.72 6.45,-6.17 54.2,0.15 58.46,6.01 4.24,5.83 -10.51,57.77 -17.24,59.56 -6.2,1.65 -29.52,-0.83 -35.38,-4.85z"/>
   <path class="fil5" d="M761.61 845.17c6.32,-4.34 13.55,-53.36 5.85,-60.72 -6.45,-6.17 -54.2,0.15 -58.46,6.02 -4.24,5.83 13.11,57.17 19.84,58.96 6.2,1.65 26.92,-0.23 32.78,-4.25z"/>
  </g>
 </g>
</svg>
