<?xml version="1.0" encoding="UTF-8"?>
<!DOCTYPE svg PUBLIC "-//W3C//DTD SVG 1.1//EN" "http://www.w3.org/Graphics/SVG/1.1/DTD/svg11.dtd">
<!-- Creator: CorelDRAW 2017 -->
<svg xmlns="http://www.w3.org/2000/svg" xml:space="preserve" width="172.156mm" height="172.156mm" version="1.1" style="shape-rendering:geometricPrecision; text-rendering:geometricPrecision; image-rendering:optimizeQuality; fill-rule:evenodd; clip-rule:evenodd"
viewBox="0 0 3269.56 3269.56"
 xmlns:xlink="http://www.w3.org/1999/xlink">
 <defs>
  <style type="text/css">
   <![CDATA[
    .fil0 {fill:none}
    .fil3 {fill:#FEFEFE}
    .fil2 {fill:#0B1650}
    .fil1 {fill:#14275E}
   ]]>
  </style>
 </defs>
 <g id="Capa_x0020_1">
  <metadata id="CorelCorpID_0Corel-Layer"/>
  <rect class="fil0" x="-0" y="-0" width="3269.56" height="3269.56"/>
  <g id="_2256252388256">
   <path class="fil1" d="M1697.02 1296.04l-39.66 0c-0.94,123.63 -9.99,241.93 -22.59,322.66 -183.25,123.08 -587.26,122.89 -834.49,-1.34 -63.8,-245.92 -67.38,-606.73 -29.37,-847.87 192.62,-8.53 610.87,6.36 925.9,7.93 317.39,1.58 619.64,2.47 926.3,-7.93 38.01,241.14 34.43,601.95 -29.37,847.87 -247.22,124.23 -651.23,124.42 -834.48,1.34 -12.6,-80.73 -21.65,-199.02 -22.59,-322.66l-39.66 0z"/>
   <path class="fil2" d="M1684.68 1296.04l-24.2 0c-15.96,-79.27 -26.52,-165.67 -31.32,-251.01 -5.28,-94 -3.55,-186.77 5.65,-267.37l23.86 -0.09c-9.32,79.87 -11.11,172.32 -5.85,266.15 4.82,85.83 15.56,172.8 31.86,252.31z"/>
   <path class="fil2" d="M1736.41 777.58l23.87 0.09c9.3,80.84 11.06,173.98 5.76,268.37 -4.77,84.97 -15.27,171 -31.11,250l-24.2 0c16.18,-79.23 26.85,-165.83 31.65,-251.3 5.29,-94.22 3.45,-187.06 -5.97,-267.16z"/>
   <path class="fil3" d="M1564.98 2160.16c-16.33,166 18.38,329.38 11.16,369.97 0.72,34.22 -176.41,84.48 -355.34,84.99 -220.42,0.63 -249.03,-57.34 -248.26,-83.72 1.99,-68.29 84.72,-128.12 103.89,-206.4 9.01,-36.77 -30.43,-111.23 -36.41,-134.81l524.96 -30.03z"/>
   <path class="fil1" d="M1562.51 2190.97c-0.85,13.57 -1.4,27.08 -1.69,40.45 -187.24,8.91 -414.58,22.29 -494.69,27.71 -4.51,-13.05 -9.68,-25.92 -14.27,-37.26 91.34,-7.31 371.5,-21.8 510.65,-30.9z"/>
   <path class="fil3" d="M1828.32 2153.41c16.33,166 -17.46,333.99 -10.23,374.58 -0.72,34.22 175.51,86.09 354.42,86.58 220.4,0.61 248.75,-55.52 247.99,-81.86 -1.96,-68.28 -83.49,-127.63 -102.64,-205.89 -8.99,-36.75 30.7,-119.8 36.68,-143.38l-526.21 -30.03z"/>
   <path class="fil1" d="M1831.15 2190.27c0.78,13.74 1.26,27.42 1.5,40.98 174.68,8.07 394.08,20.75 495.2,27.24 4.15,-13.01 8.9,-25.94 13.26,-37.55 -118.95,-8.29 -393.53,-22.5 -509.96,-30.68z"/>
  </g>
 </g>
</svg>
