<?xml version="1.0" encoding="UTF-8"?>
<!DOCTYPE svg PUBLIC "-//W3C//DTD SVG 1.1//EN" "http://www.w3.org/Graphics/SVG/1.1/DTD/svg11.dtd">
<!-- Creator: CorelDRAW 2017 -->
<svg xmlns="http://www.w3.org/2000/svg" xml:space="preserve" width="172.156mm" height="172.156mm" version="1.1" style="shape-rendering:geometricPrecision; text-rendering:geometricPrecision; image-rendering:optimizeQuality; fill-rule:evenodd; clip-rule:evenodd"
viewBox="0 0 2307.06 2307.06"
 xmlns:xlink="http://www.w3.org/1999/xlink">
 <defs>
  <style type="text/css">
   <![CDATA[
    .fil0 {fill:none}
    .fil1 {fill:#FEFEFE}
    .fil3 {fill:#B5D1CE}
    .fil2 {fill:#D4ECF1}
   ]]>
  </style>
 </defs>
 <g id="Capa_x0020_1">
  <metadata id="CorelCorpID_0Corel-Layer"/>
  <rect class="fil0" x="-0" y="-0" width="2307.06" height="2307.06"/>
  <g id="_2256454257520">
   <path class="fil1" d="M1078.01 1603.04c1.79,82.54 15.3,134.88 10.2,163.52 0.51,24.15 -121.11,59.6 -247.38,59.97 -155.55,0.46 -173.58,-38.31 -172.73,-56.94 1.95,-42.89 81.9,-116.72 74.11,-161.3 -0.29,-1.65 -0.66,-3.43 -1.08,-5.26l336.88 0zm534.6 0c-0.42,1.83 -0.79,3.61 -1.08,5.26 -7.8,44.58 72.16,118.41 74.11,161.3 0.84,18.63 -17.19,57.4 -172.73,56.94 -126.28,-0.38 -247.89,-35.82 -247.38,-59.97 -5.1,-28.64 8.42,-80.99 10.2,-163.52l336.88 0z"/>
   <path class="fil2" d="M1176.86 909.18l-27.98 0c-8.64,27.89 -51.11,378.42 -66.2,626.27 -2.04,33.54 -2.07,62.48 -3.91,89.72 -120.74,25.49 -246.26,21.43 -343.28,-10.16 -15.16,-86.72 -203.62,-440.3 -215.45,-1090.78 189.24,23.67 540.88,19.07 656.83,19.07 115.94,0 467.59,4.6 656.82,-19.07 -11.83,650.49 -200.29,1004.06 -215.45,1090.78 -104.27,46.58 -264.32,28.81 -346.14,8.84 1.14,-25.61 0.91,-56.12 -1.05,-88.39 -15.08,-247.85 -57.55,-598.38 -66.2,-626.27l-27.98 0zm146.05 305.28c54.45,69.89 280.24,78.96 350.82,-2.47 -70.57,-81.43 -296.37,-67.42 -350.82,2.47zm-291.12 0c-54.45,69.89 -280.24,78.96 -350.82,-2.47 54.45,-69.89 280.24,-78.96 350.82,2.47z"/>
   <path class="fil3" d="M1168.26 909.18l-17.08 0c-11.26,-55.93 -18.71,-116.9 -22.1,-177.12 -3.72,-66.33 -2.5,-131.79 3.99,-188.66l16.84 -0.06c-6.57,56.36 -7.84,121.59 -4.13,187.8 3.4,60.57 10.98,121.93 22.48,178.03z"/>
   <path class="fil3" d="M1204.76 543.35l16.84 0.06c6.56,57.04 7.8,122.77 4.07,189.37 -3.37,59.96 -10.77,120.66 -21.95,176.4l-17.08 0c11.42,-55.91 18.95,-117.01 22.34,-177.32 3.73,-66.49 2.44,-131.99 -4.21,-188.51z"/>
  </g>
 </g>
</svg>
