<?xml version="1.0" encoding="UTF-8"?>
<!DOCTYPE svg PUBLIC "-//W3C//DTD SVG 1.1//EN" "http://www.w3.org/Graphics/SVG/1.1/DTD/svg11.dtd">
<!-- Creator: CorelDRAW 2017 -->
<svg xmlns="http://www.w3.org/2000/svg" xml:space="preserve" width="172.156mm" height="172.156mm" version="1.1" style="shape-rendering:geometricPrecision; text-rendering:geometricPrecision; image-rendering:optimizeQuality; fill-rule:evenodd; clip-rule:evenodd"
viewBox="0 0 1208.19 1208.19"
 xmlns:xlink="http://www.w3.org/1999/xlink">
 <defs>
  <style type="text/css">
   <![CDATA[
    .fil0 {fill:none}
    .fil1 {fill:#290D02}
    .fil3 {fill:#C4BFA8}
    .fil2 {fill:#E6D8C7}
   ]]>
  </style>
 </defs>
 <g id="Capa_x0020_1">
  <metadata id="CorelCorpID_0Corel-Layer"/>
  <rect class="fil0" x="-0" y="-0" width="1208.19" height="1208.19"/>
  <g id="_2256466872416">
   <path class="fil1" d="M558.6 839.5c0.94,43.22 8.01,70.64 5.34,85.64 0.27,12.65 -63.42,31.21 -129.55,31.41 -81.46,0.24 -90.9,-20.06 -90.46,-29.82 1.02,-22.46 42.89,-61.12 38.81,-84.47 -0.15,-0.86 -0.35,-1.79 -0.56,-2.75l176.42 0zm279.97 0c-0.22,0.96 -0.41,1.89 -0.56,2.75 -4.08,23.35 37.79,62.01 38.81,84.47 0.44,9.76 -9,30.06 -90.46,29.82 -66.13,-0.2 -129.82,-18.76 -129.55,-31.41 -2.67,-15 4.41,-42.41 5.34,-85.64l176.42 0z"/>
   <path class="fil2" d="M610.37 476.13l-14.65 0c-4.53,14.6 -26.77,198.18 -34.67,327.97 -1.07,17.56 -1.09,32.72 -2.05,46.98 -63.23,13.35 -128.97,11.22 -179.77,-5.32 -7.94,-45.42 -106.64,-230.58 -112.83,-571.24 99.1,12.4 283.26,9.98 343.98,9.98 60.72,0 244.87,2.41 343.98,-9.98 -6.19,340.66 -104.89,525.82 -112.83,571.24 -54.61,24.4 -138.42,15.09 -181.27,4.63 0.59,-13.41 0.48,-29.39 -0.55,-46.29 -7.9,-129.8 -30.14,-313.37 -34.67,-327.97l-14.65 0zm69.01 162.96c-2.39,12.47 0.63,37.66 7.42,44.07 8.2,7.75 151.2,20.24 168.75,2.51 5.22,-5.28 12.14,-31.43 11.64,-45.61 -27.48,-12.11 -67.26,-7.1 -100.46,-6.12 -34.49,1.02 -62.34,-1.62 -87.35,5.15zm-150.71 -2c1.51,0.41 7.36,1.85 7.86,4.37 2.45,12.41 -0.6,37.63 -7.42,44.07 -8.2,7.75 -151.2,20.24 -168.75,2.51 -5.26,-5.31 -12.24,-31.49 -11.64,-45.61 0.15,-3.46 5.24,-2.78 6.43,-4.31 3.07,-3.93 45.45,-2.48 87.47,-2.02 41.1,0.45 81.85,-0.15 86.04,0.99z"/>
   <path class="fil3" d="M605.87 476.13l-8.94 0c-5.9,-29.29 -9.8,-61.22 -11.57,-92.75 -1.95,-34.74 -1.31,-69.02 2.09,-98.8l8.82 -0.03c-3.44,29.51 -4.11,63.68 -2.16,98.35 1.78,31.72 5.75,63.85 11.77,93.24z"/>
   <path class="fil3" d="M624.98 284.55l8.82 0.03c3.44,29.87 4.09,64.29 2.13,99.17 -1.76,31.4 -5.64,63.19 -11.5,92.38l-8.94 0c5.98,-29.28 9.92,-61.28 11.7,-92.86 1.95,-34.82 1.28,-69.12 -2.21,-98.72z"/>
   <path class="fil3" d="M681.52 633.64c-0.93,1.18 -1.64,3.07 -2.13,5.45 55.89,2.71 109.4,-0.7 187.8,0.98 -0.15,-3.46 -0.75,-6.19 -1.95,-7.72 -6.07,-7.78 -177.96,-6 -183.72,1.29z"/>
   <path class="fil3" d="M534.4 636c0.93,1.18 1.64,3.07 2.13,5.45 -55.89,2.71 -109.4,-0.7 -187.8,0.98 0.15,-3.46 0.75,-6.19 1.95,-7.72 6.07,-7.78 177.96,-6 183.72,1.29z"/>
  </g>
 </g>
</svg>
