<?xml version="1.0" encoding="UTF-8"?>
<!DOCTYPE svg PUBLIC "-//W3C//DTD SVG 1.1//EN" "http://www.w3.org/Graphics/SVG/1.1/DTD/svg11.dtd">
<!-- Creator: CorelDRAW 2017 -->
<svg xmlns="http://www.w3.org/2000/svg" xml:space="preserve" width="172.156mm" height="172.156mm" version="1.1" style="shape-rendering:geometricPrecision; text-rendering:geometricPrecision; image-rendering:optimizeQuality; fill-rule:evenodd; clip-rule:evenodd"
viewBox="0 0 1048.21 1048.21"
 xmlns:xlink="http://www.w3.org/1999/xlink">
 <defs>
  <style type="text/css">
   <![CDATA[
    .fil0 {fill:none}
    .fil6 {fill:#30231E}
    .fil10 {fill:#70543B}
    .fil7 {fill:#72625E}
    .fil8 {fill:#7C725A}
    .fil12 {fill:#91181A}
    .fil11 {fill:#99776B}
    .fil13 {fill:#B83032}
    .fil9 {fill:#C0B0AC}
    .fil1 {fill:#D9B9A9}
    .fil4 {fill:#DBB8A8}
    .fil3 {fill:#FCE8DE}
    .fil5 {fill:white}
    .fil2 {fill:#AB8A7F;fill-rule:nonzero}
   ]]>
  </style>
 </defs>
 <g id="Capa_x0020_1">
  <metadata id="CorelCorpID_0Corel-Layer"/>
  <rect class="fil0" x="-0" y="-0" width="1048.21" height="1048.21"/>
  <g id="_2256455970224">
   <path class="fil1" d="M256.76 667.93c26.38,21.63 38.16,108.94 27.07,139.36 -19.51,12.05 -55.22,-9.84 -67.4,-44.25 -14.6,-41.24 -24.35,-86.48 40.33,-95.11z"/>
   <path class="fil2" d="M223.29 696.3c26.74,1.66 33.56,8.8 32.99,18.02 -0.3,4.88 -2.91,9.81 -5.55,14.81 -2.87,5.44 -5.8,10.98 -4.7,14.81 1.09,3.8 4.34,7.56 8.31,12.16 3.82,4.42 8.24,9.55 12.36,16.38 -0.43,2.91 -3.03,4.92 -6.45,3.89 -3.83,-6.35 -8,-11.18 -11.59,-15.35 -4.59,-5.31 -8.33,-9.66 -9.87,-15.02 -1.93,-6.72 1.71,-13.61 5.29,-20.38 2.26,-4.28 4.5,-8.51 4.7,-11.75 0.3,-4.86 -5.11,-8.76 -25.92,-10.06 -1.45,-1.58 -1.78,-5.17 0.44,-7.52z"/>
   <path class="fil1" d="M822.01 667.93c-26.38,21.63 -38.16,108.94 -27.07,139.36 19.51,12.05 55.22,-9.84 67.4,-44.25 14.6,-41.24 24.35,-86.48 -40.33,-95.11z"/>
   <path class="fil2" d="M855.48 696.3c-26.74,1.66 -33.56,8.8 -32.99,18.02 0.3,4.88 2.91,9.81 5.55,14.81 2.87,5.44 5.8,10.98 4.7,14.81 -1.09,3.8 -4.33,7.56 -8.31,12.16 -3.82,4.42 -8.24,9.55 -12.36,16.38 0.43,2.91 3.03,4.92 6.45,3.89 3.83,-6.35 8,-11.18 11.59,-15.35 4.59,-5.31 8.33,-9.66 9.87,-15.02 1.93,-6.72 -1.71,-13.61 -5.29,-20.38 -2.26,-4.28 -4.5,-8.51 -4.7,-11.75 -0.3,-4.86 5.11,-8.76 25.92,-10.06 1.45,-1.58 1.78,-5.17 -0.44,-7.52z"/>
   <path class="fil3" d="M539.39 942.37c-78.58,-3.01 -178.44,-33.75 -221.93,-72.22 -48.1,-42.55 -38.62,-140.64 -61.81,-205.41 -35.76,-99.86 -55.63,-185.68 9.85,-282.87 82.68,-122.72 210.53,-133.59 273.89,-136.69 63.36,3.11 191.21,13.97 273.89,136.69 65.47,97.18 45.6,183.01 9.85,282.87 -23.19,64.77 -13.71,162.86 -61.81,205.41 -43.49,38.47 -143.35,69.21 -221.93,72.22z"/>
   <path class="fil4" d="M490.52 847.19c15.53,6.1 38.96,5.23 48.87,5.16 9.91,0.08 33.33,0.94 48.87,-5.16 -18.23,0.44 -27.06,0.35 -48.87,0.08 -21.81,0.26 -30.64,0.36 -48.87,-0.08z"/>
   <g>
    <path class="fil5" d="M766.99 693.43c-11.04,-26.3 -99.18,-57.51 -155.06,-21.73 -1.08,56.65 12.07,78.81 52.53,92.73 49.1,16.9 96.17,-16.83 113.83,-48.38 -3.83,-10.3 -7.87,-17.83 -11.3,-22.62z"/>
    <path class="fil6" d="M598.38 663.5c32.55,-11.66 52.69,-13.35 90.12,-9.09 -25.06,-9.25 -55.01,-13.75 -90.12,9.09z"/>
    <ellipse class="fil7" cx="677.44" cy="710.08" rx="44.36" ry="53.67"/>
    <path class="fil6" d="M627.21 741.22c12.72,23.22 64.5,38.51 95.65,21.76 -37.27,5.77 -69.64,-0.2 -95.65,-21.76z"/>
    <path class="fil6" d="M769.56 683.44c-40.5,-36.19 -132.08,-52.12 -161.11,-8.64 45.46,-29.19 115.85,-11.75 156.23,26.69 4.5,4.6 9.99,9.53 13.61,14.56 -0.09,-10.83 -3.28,-25.78 -8.73,-32.61z"/>
    <ellipse class="fil5" transform="matrix(1.75222 0.529451 -0.529451 1.75222 656.297 688.061)" rx="6.51" ry="7.85"/>
    <path class="fil8" d="M589.48 579.4c60.49,-10.15 126.52,0.53 191.85,21.95 -28.17,-59.44 -185.53,-54.75 -191.85,-21.95z"/>
    <path class="fil9" d="M716.11 696.35c1.05,4.36 1.62,8.96 1.62,13.73 0,26.93 -18.04,48.76 -40.3,48.76 -19.22,0 -35.29,-16.28 -39.32,-38.06l20.97 -5.71c1.88,10.16 9.38,17.76 18.35,17.76 10.39,0 18.81,-10.19 18.81,-22.75 0,-3.67 -0.72,-7.14 -2,-10.21l21.87 -3.52z"/>
   </g>
   <g>
    <path class="fil5" d="M311.79 693.43c11.93,-32.96 106.27,-59.28 155.06,-21.73 1.08,56.65 -12.07,78.81 -52.53,92.73 -49.1,16.9 -96.17,-16.83 -113.83,-48.38 3.83,-10.3 7.87,-17.83 11.3,-22.62z"/>
    <path class="fil6" d="M480.4 663.5c-32.55,-11.66 -52.69,-13.35 -90.12,-9.09 25.06,-9.25 55.01,-13.75 90.12,9.09z"/>
    <ellipse class="fil7" cx="401.34" cy="710.08" rx="44.36" ry="53.67"/>
    <path class="fil6" d="M451.56 741.22c-12.72,23.22 -64.5,38.51 -95.65,21.76 37.26,5.77 69.64,-0.2 95.65,-21.76z"/>
    <path class="fil6" d="M309.21 683.44c40.5,-36.19 132.08,-52.12 161.11,-8.64 -45.46,-29.19 -115.85,-11.75 -156.23,26.69 -4.5,4.6 -9.99,9.53 -13.61,14.56 0.09,-10.83 3.28,-25.78 8.73,-32.61z"/>
    <ellipse class="fil5" transform="matrix(1.75222 0.529451 -0.529451 1.75222 378.354 689.548)" rx="6.51" ry="7.85"/>
    <path class="fil8" d="M489.29 579.4c-60.49,-10.15 -126.52,0.53 -191.85,21.95 28.17,-59.44 185.54,-54.75 191.85,-21.95z"/>
    <path class="fil9" d="M362.01 720.78c4.03,21.78 20.1,38.06 39.32,38.06 22.25,0 40.3,-21.83 40.3,-48.76 0,-4.77 -0.57,-9.38 -1.62,-13.73l-21.87 3.51c1.28,3.07 2,6.54 2,10.22 0,12.57 -8.42,22.75 -18.81,22.75 -8.97,0 -16.47,-7.6 -18.35,-17.76l-20.97 5.71z"/>
   </g>
   <g>
    <path class="fil10" d="M252.72 465.2c-4.26,24.36 17.07,102.64 51.96,126.86 -18.88,-39.09 -23.01,-107.36 -15.07,-134.82 4.09,-14.13 11.37,-17.46 21.5,-0.46 7.51,91.96 51.81,136.84 100.37,160.92 -31.74,-27.04 -48.93,-70.87 -54.97,-113.04 -8.71,-60.83 5.8,-118.22 33.34,-116.73 18.17,-8.43 110.01,-20.65 121.98,-18.88 68.86,48.43 10.23,195.67 148.07,250.31 -37.87,-43.12 -36.38,-56.3 -42.8,-93.12 30.06,-36.32 77.47,87.46 166.61,108.21 9.79,3.36 17.68,5.83 25.23,7.02 2.53,11.06 4.42,41.05 -0.08,86.67 8.42,-20.96 21.21,-42.13 24.21,-52.41 0.02,-0.06 6.51,-27.63 13.78,-59.48 -73.88,-228.05 -187.36,-313.08 -336.18,-340.69 -168.4,-31.24 -314.04,93.53 -324.88,178.5 -21.54,25.88 -21.87,110.94 1.89,184.37 5.48,9.14 19.93,26.79 27.18,48.18 7.96,-4.97 23.51,-14.66 45.07,25.17 2.78,-12.47 -34.65,-120.1 -37.33,-190.72 -1.1,-28.86 15.36,-60.19 30.14,-55.85z"/>
    <path class="fil11" d="M271.06 735.77c0.89,-12.5 -2.57,-28.83 -4.45,-39.17 -7.79,-42.77 -32.61,-149.27 -25.86,-189.44 5.46,-32.53 10.76,-48.48 32.8,-64.69 -9.76,50.59 1.3,118.05 31.13,149.58 -14.52,-68.99 9.15,-166.45 26.75,-184.71 -9.25,41.45 -2.29,161.53 80.05,210.36 -44.03,-39.79 -41.53,-181.36 -21.63,-229.78 17.64,-63.81 98.86,-90.37 100.83,-17.9 -4.28,97.04 33.75,252 169.22,249.34 -50.49,-37.01 -74.79,-87.49 -70.53,-172.23 26.1,105.54 84.61,204.34 233.74,217.61 2.44,0.22 -14.35,61.7 -14.35,64.01 8.79,-15.5 23.84,-39.32 39.71,-62.67 33.24,0.24 73.87,-6.1 98.69,-25.2 -37.52,-14.9 -84.05,-38.92 -109.45,-87.82 -1.69,-55.2 -9.96,-82.85 -18.84,-107.45 -44.46,-136.14 -161.8,-315.84 -429.28,-260.29 -101.89,23.7 -181.03,52.61 -217.4,218.86 -31.34,52.99 -21.25,186.31 15.47,234.24 4.9,5.14 9.22,8.91 13.51,12.67 -18.79,-37 -18.21,-85.23 -15.23,-128.48 6.49,77.38 11.93,101.35 35,132.08 -2.48,-19.97 -7.97,-39.58 -5.06,-61.78 11.15,45.46 27.5,83.92 55.18,142.87z"/>
    <path class="fil12" d="M874.84 599.48c88.76,-229.12 -39.85,-399.06 -170.24,-443.92 73.86,123.33 119.16,215.2 133.11,397.51 12.04,21.97 22.56,34.07 37.13,46.42z"/>
    <path class="fil13" d="M837.71 553.06c-5.53,-306.57 -37.49,-309.08 -110.82,-381.35 -51.42,-50.68 -180.27,-89.27 -273.03,-69.88 -234.52,49.02 -307.53,202.26 -281.65,302.35 123.59,-223.96 548.18,-275.99 665.51,148.88z"/>
    <path class="fil12" d="M813.29 481.49c1.97,4.76 3.91,9.57 5.78,14.48 -5.61,-109.97 -12.61,-188.03 -35.95,-233.95 -23.55,-46.35 -57.19,-73.31 -103.54,-107.76l-2.99 4.03c45.79,34.03 79,60.64 102.05,105.99 21.97,43.23 29.2,115.75 34.65,217.21z"/>
    <path class="fil10" d="M642.16 355.03c21.99,77.41 80.67,246.11 223.65,280.6 -159.66,-7.16 -239.4,-179.45 -223.65,-280.6z"/>
   </g>
  </g>
 </g>
</svg>
