<?xml version="1.0" encoding="UTF-8"?>
<!DOCTYPE svg PUBLIC "-//W3C//DTD SVG 1.1//EN" "http://www.w3.org/Graphics/SVG/1.1/DTD/svg11.dtd">
<!-- Creator: CorelDRAW 2017 -->
<svg xmlns="http://www.w3.org/2000/svg" xml:space="preserve" width="172.156mm" height="172.156mm" version="1.1" style="shape-rendering:geometricPrecision; text-rendering:geometricPrecision; image-rendering:optimizeQuality; fill-rule:evenodd; clip-rule:evenodd"
viewBox="0 0 3293.57 3293.57"
 xmlns:xlink="http://www.w3.org/1999/xlink">
 <defs>
  <style type="text/css">
   <![CDATA[
    .fil0 {fill:none}
    .fil6 {fill:#212426}
    .fil7 {fill:#36333A}
    .fil8 {fill:#654550}
    .fil1 {fill:#D9B9A9}
    .fil4 {fill:#DBB8A8}
    .fil11 {fill:#E0938F}
    .fil9 {fill:#E0CDD1}
    .fil10 {fill:#E0D289}
    .fil12 {fill:#FBF5D7}
    .fil3 {fill:#FCE8DE}
    .fil13 {fill:#FED9CC}
    .fil5 {fill:white}
    .fil2 {fill:#AB8A7F;fill-rule:nonzero}
   ]]>
  </style>
 </defs>
 <g id="Capa_x0020_1">
  <metadata id="CorelCorpID_0Corel-Layer"/>
  <rect class="fil0" x="-0" y="-0" width="3293.57" height="3293.57"/>
  <g id="_2256252429600">
   <path class="fil1" d="M758.75 2025.56c82.9,67.95 119.91,342.3 85.06,437.87 -61.31,37.86 -173.5,-30.94 -211.77,-139.04 -45.87,-129.58 -76.52,-271.74 126.71,-298.83z"/>
   <path class="fil2" d="M653.6 2114.71c84.02,5.22 105.45,27.64 103.65,56.61 -0.95,15.32 -9.14,30.82 -17.44,46.53 -9.03,17.1 -18.22,34.5 -14.77,46.55 3.42,11.92 13.62,23.75 26.1,38.22 11.99,13.9 25.89,30.01 38.83,51.45 -1.36,9.13 -9.51,15.47 -20.28,12.23 -12.04,-19.97 -25.13,-35.14 -36.42,-48.22 -14.41,-16.7 -26.18,-30.35 -31.02,-47.2 -6.06,-21.11 5.38,-42.77 16.62,-64.05 7.11,-13.46 14.13,-26.74 14.76,-36.9 0.95,-15.27 -16.06,-27.54 -81.43,-31.6 -4.56,-4.97 -5.61,-16.24 1.39,-23.61z"/>
   <path class="fil1" d="M2534.82 2025.56c-82.9,67.95 -119.9,342.3 -85.06,437.87 61.31,37.86 173.5,-30.94 211.77,-139.04 45.87,-129.58 76.52,-271.74 -126.71,-298.83z"/>
   <path class="fil2" d="M2639.97 2114.71c-84.02,5.22 -105.45,27.64 -103.65,56.61 0.95,15.32 9.14,30.82 17.44,46.53 9.03,17.1 18.22,34.5 14.77,46.55 -3.42,11.92 -13.62,23.75 -26.1,38.22 -11.99,13.9 -25.89,30.01 -38.83,51.45 1.36,9.13 9.51,15.47 20.28,12.23 12.05,-19.97 25.13,-35.14 36.42,-48.22 14.41,-16.7 26.18,-30.35 31.02,-47.2 6.06,-21.11 -5.38,-42.77 -16.62,-64.05 -7.11,-13.46 -14.13,-26.74 -14.76,-36.9 -0.95,-15.27 16.06,-27.54 81.43,-31.6 4.56,-4.97 5.61,-16.24 -1.39,-23.61z"/>
   <path class="fil3" d="M1646.78 2887.88c-246.89,-9.45 -560.66,-106.03 -697.31,-226.91 -151.13,-133.69 -121.34,-441.91 -194.2,-645.42 -112.35,-313.77 -174.79,-583.44 30.94,-888.79 259.79,-385.61 661.5,-419.74 860.57,-429.5 199.07,9.76 600.78,43.9 860.58,429.5 205.73,305.35 143.29,575.02 30.94,888.79 -72.87,203.51 -43.07,511.73 -194.2,645.42 -136.65,120.88 -450.41,217.47 -697.31,226.91z"/>
   <path class="fil4" d="M1493.24 2588.81c48.81,19.17 122.42,16.44 153.55,16.21 31.13,0.24 104.74,2.96 153.55,-16.21 -57.27,1.38 -85.01,1.09 -153.55,0.26 -68.54,0.83 -96.28,1.12 -153.55,-0.26z"/>
   <g>
    <path class="fil5" d="M2391.9 2118.96c-54.42,-102.43 -376.27,-205.78 -525.14,8.2 -0.96,141.05 121.59,190.22 232.17,184.85 113.79,-5.52 249.99,-49.64 292.97,-193.05z"/>
    <path class="fil6" d="M1905.57 2243.39c54.62,69.98 170.13,90.38 248.66,75.97 5.19,5.1 14.75,11.79 39.01,11.72 -3.37,-7.11 -3.95,-14.26 -1.07,-20.79 5.37,-1.6 10.66,-3.31 15.85,-5.14 6.63,7.29 17.97,12.54 38.18,10.09 -6.64,-8.38 -7.71,-16.67 -6.13,-23.54 8.22,-4.07 15.99,-8.47 23.19,-13.17 12.97,7.89 28.18,4.34 39.54,-1.46 -8.61,-7.16 -11.61,-13.9 -11,-21.91 -106.54,52.41 -290.84,69.94 -386.23,-11.76z"/>
    <path class="fil6" d="M1848.04 2052.36c57.77,-45.25 123.05,-72.21 194.43,-79.29 69.52,-6.89 144.85,5.07 224.69,37.36 -55.04,-32.78 -141.88,-61.35 -229.55,-53.85 -67.39,5.77 -135.28,32.87 -189.58,95.78z"/>
    <ellipse class="fil7" cx="2099.11" cy="2147.44" rx="140.68" ry="141.36"/>
    <path class="fil6" d="M2424.82 2106.41c-114.6,-161.35 -470.16,-179.67 -571.32,38.14 135.9,-146 393.64,-152.84 514.73,-22.13 0.03,23.05 -8.21,47.62 -19.88,81.09 34.91,-27.04 63.28,-59.01 76.46,-97.11z"/>
    <ellipse class="fil5" transform="matrix(1.54973 0.468265 -0.468265 1.54973 2035.59 2101.35)" rx="20.46" ry="24.68"/>
    <path class="fil8" d="M1795.33 1925.2c219.89,-116.09 531.56,-120.47 647.86,-94.72 -12.09,-41.86 -102.27,-68.99 -197.87,-70.35 -95.61,-1.37 -431.56,38.74 -449.99,165.07z"/>
    <path class="fil9" d="M2217.64 2104.22c4.87,13.49 7.53,28.04 7.53,43.21 0,69.96 -56.44,126.67 -126.06,126.67 -58.22,0 -107.2,-39.66 -121.69,-93.55l63.61 -17.31c6.92,25.72 30.29,44.65 58.08,44.65 33.23,0 60.16,-27.07 60.16,-60.46 0,-11.9 -3.42,-22.98 -9.32,-32.34l67.69 -10.88z"/>
   </g>
   <g>
    <path class="fil5" d="M901.67 2118.96c54.42,-102.43 376.27,-205.78 525.14,8.2 0.96,141.05 -121.59,190.22 -232.17,184.85 -113.79,-5.52 -249.99,-49.64 -292.97,-193.05z"/>
    <path class="fil6" d="M1388 2243.39c-54.62,69.98 -170.12,90.38 -248.65,75.97 -5.19,5.1 -14.75,11.79 -39.02,11.72 3.37,-7.11 3.95,-14.26 1.07,-20.79 -5.37,-1.6 -10.66,-3.31 -15.85,-5.14 -6.63,7.29 -17.97,12.54 -38.18,10.09 6.64,-8.38 7.72,-16.67 6.13,-23.54 -8.22,-4.07 -15.98,-8.47 -23.19,-13.17 -12.97,7.89 -28.18,4.34 -39.53,-1.46 8.61,-7.16 11.61,-13.9 11,-21.91 106.53,52.41 290.84,69.94 386.22,-11.76z"/>
    <path class="fil6" d="M1445.53 2052.36c-57.77,-45.25 -123.05,-72.21 -194.43,-79.29 -69.52,-6.89 -144.85,5.07 -224.69,37.36 55.04,-32.78 141.88,-61.35 229.55,-53.85 67.39,5.77 135.28,32.87 189.58,95.78z"/>
    <ellipse class="fil7" cx="1194.46" cy="2147.44" rx="140.68" ry="141.36"/>
    <path class="fil6" d="M868.75 2106.41c114.6,-161.35 470.16,-179.67 571.32,38.14 -135.9,-146 -393.64,-152.84 -514.73,-22.13 -0.03,23.05 8.21,47.62 19.88,81.09 -34.91,-27.04 -63.28,-59.01 -76.46,-97.11z"/>
    <ellipse class="fil5" transform="matrix(1.54973 0.468265 -0.468265 1.54973 1135.58 2089.79)" rx="20.46" ry="24.68"/>
    <path class="fil8" d="M1498.24 1925.2c-219.89,-116.09 -531.56,-120.47 -647.86,-94.72 12.09,-41.86 102.27,-68.99 197.87,-70.35 95.61,-1.37 431.56,38.74 449.99,165.07z"/>
    <path class="fil9" d="M1072.76 2180.56c14.49,53.89 63.48,93.55 121.69,93.55 69.62,0 126.06,-56.71 126.06,-126.67 0,-15.18 -2.66,-29.73 -7.53,-43.21l-67.69 10.88c5.9,9.35 9.32,20.44 9.32,32.34 0,33.39 -26.93,60.46 -60.16,60.46 -27.79,0 -51.16,-18.93 -58.08,-44.65l-63.62 17.31z"/>
   </g>
   <g>
    <path class="fil10" d="M640.35 2070.7c11.4,-3.14 73.34,-36.31 125.02,-24.17 8.76,39.65 18.04,102.1 32.08,151.5 21.22,-216.22 96.65,-266.26 151.51,-299.32 -3.57,21.77 -6.86,39.5 -25.71,65.4 149.26,5.36 458.17,-173.64 536.64,-367.58 10.1,124.94 -48.25,231.24 -109.54,288.06 147.89,-57.91 275.85,-241.76 321.97,-482.97 64.15,-133.35 48.1,-207.2 -0.35,-330.44 -490.19,215.22 -951.68,564.18 -1197.37,617.27 4.66,202.68 53.86,344.65 165.74,382.25z"/>
    <path class="fil11" d="M1672.33 1401.62c45.25,163.8 131.33,338.45 254.22,448.64 -46.81,-102.44 -57.69,-192.37 -13.08,-276.08 31.67,143.6 147.36,261.51 216.94,311.86 -23.53,-88.61 -23.92,-153.35 5.46,-189.66 40.39,129.63 264.98,242.5 394.5,274.24 -6.87,29.88 -45.27,159.56 -42.25,279.91 41.08,-207.4 140.42,-169.67 162.09,-182.38 -0.31,-26.58 43.15,-140.42 74.06,-173.99 10.47,12.87 22.48,18.42 39.75,22.66 47.29,-222.34 -98.7,-212.63 -121.82,-352.79 -303.46,-222.68 -660.35,-316.77 -970.22,-492.86 -20.5,93.65 -12.5,271.27 0.35,330.44z"/>
    <path class="fil12" d="M659.49 1955.54c19.32,5.55 39.46,7.52 60.01,6.51 18.37,-36.98 132.26,-82.29 172.86,-161.18 -7.57,44.87 -15.3,88.36 -31.11,115.43 100.41,-55.98 242.17,-124.14 340.29,-445.63 -29.59,186.39 -43.74,323.98 -278.28,493.44 221.5,-0.3 534.9,-294.18 583.89,-683.48 -10.81,218.34 -73.1,495.31 -156.79,603.96 220.38,-129 274.54,-414.38 320.67,-655.59 108.47,-211.43 155.83,-547.52 17.68,-702.86 -56.82,-100.17 -211.18,-171.61 -390.61,-118.15 141.09,5.24 207.74,23.06 284.14,108.52 -212.87,-74.44 -419.9,-26.07 -608.9,140.08 -162.94,143.23 -330.79,299.6 -499.38,284.27 28.29,29.35 107.21,61.94 152.99,78.89 -120.33,86.91 -225.22,415.93 -209.09,524.27 28.38,-40.8 41.17,-61.28 77.63,-82.12 -39.41,96.7 -31.77,194.43 -15.92,272.17 19.36,94.99 72.22,185.28 179.91,221.47z"/>
    <path class="fil13" d="M1671.03 1229c9.34,29.66 125.38,504.55 255.53,621.26 -18.93,-119.17 -23.79,-379.68 18.71,-517.27 27.49,354.1 116.97,477.6 185.15,553.05 -11.69,-105.88 -2.52,-202.7 26.87,-239.01 67.12,215.39 375.07,360.76 504.1,285.05 53.76,-31.55 66.3,-88.61 75.69,-99.23 9.24,29.05 7.66,61.54 26.96,83.98 122.57,-102.46 93.25,-280.71 70.13,-420.86l-26.9 -152.31c51.79,6.83 63.82,28.7 95.5,59.53 -54.47,-76.13 -79.23,-125.28 -141.73,-226.79 -201.54,-327.35 -501.77,-768.46 -917.14,-672.02 5.98,-50.68 78.55,-101.25 148.02,-120.96 -122.37,-22.96 -271.76,72.41 -303.2,142.74 -50.52,138 -58.02,238.69 -43.87,332.76 8.64,-30.66 14.65,-53.54 28.6,-76.4 -29.73,217.13 -20.54,343.66 -2.42,446.51z"/>
    <path class="fil10" d="M1478.47 899.68c13.64,253.64 -84.52,668.61 -282.47,810.79 174.6,-232.98 258.77,-593.33 282.47,-810.79z"/>
    <path class="fil11" d="M1757.64 971.61c-29.56,101.63 32.72,481.46 106.91,585.96 -60.35,-185.41 -103.09,-452.44 -106.91,-585.96z"/>
    <path class="fil10" d="M981.43 1452.37c-26.58,141.29 -173.26,335.56 -385.69,357.76 204.2,-77.9 328.9,-246.43 385.69,-357.76z"/>
    <path class="fil11" d="M2562.97 1765.26c-141.51,-25.39 -337,-170.44 -360.98,-382.68 79.61,203.54 249.18,326.83 360.98,382.68z"/>
   </g>
  </g>
 </g>
</svg>
