<?xml version="1.0" encoding="UTF-8"?>
<!DOCTYPE svg PUBLIC "-//W3C//DTD SVG 1.1//EN" "http://www.w3.org/Graphics/SVG/1.1/DTD/svg11.dtd">
<!-- Creator: CorelDRAW 2017 -->
<svg xmlns="http://www.w3.org/2000/svg" xml:space="preserve" width="172.156mm" height="172.156mm" version="1.1" style="shape-rendering:geometricPrecision; text-rendering:geometricPrecision; image-rendering:optimizeQuality; fill-rule:evenodd; clip-rule:evenodd"
viewBox="0 0 1786.43 1786.43"
 xmlns:xlink="http://www.w3.org/1999/xlink">
 <defs>
  <style type="text/css">
   <![CDATA[
    .fil0 {fill:none}
    .fil6 {fill:#252F30}
    .fil8 {fill:#3C5365}
    .fil7 {fill:#3D4C61}
    .fil10 {fill:#5B8999}
    .fil11 {fill:#AAC3CC}
    .fil9 {fill:#C7D2E4}
    .fil1 {fill:#D9B9A9}
    .fil4 {fill:#DBB8A8}
    .fil3 {fill:#FCE8DE}
    .fil5 {fill:white}
    .fil2 {fill:#AB8A7F;fill-rule:nonzero}
   ]]>
  </style>
 </defs>
 <g id="Capa_x0020_1">
  <metadata id="CorelCorpID_0Corel-Layer"/>
  <rect class="fil0" x="-0" y="-0" width="1786.43" height="1786.43"/>
  <g id="_2256251312368">
   <path class="fil1" d="M420.33 1133.81c44.97,36.86 65.04,185.66 46.13,237.5 -33.26,20.54 -94.11,-16.78 -114.86,-75.41 -24.88,-70.28 -41.5,-147.39 68.73,-162.09z"/>
   <path class="fil2" d="M363.3 1182.16c45.57,2.83 57.2,14.99 56.22,30.7 -0.51,8.31 -4.96,16.72 -9.46,25.24 -4.9,9.27 -9.88,18.71 -8.01,25.25 1.86,6.47 7.39,12.88 14.16,20.73 6.5,7.54 14.04,16.28 21.06,27.91 -0.74,4.95 -5.16,8.39 -11,6.63 -6.53,-10.83 -13.63,-19.06 -19.75,-26.15 -7.81,-9.06 -14.2,-16.46 -16.82,-25.6 -3.29,-11.45 2.92,-23.2 9.01,-34.74 3.85,-7.3 7.66,-14.5 8,-20.02 0.51,-8.28 -8.71,-14.94 -44.17,-17.14 -2.47,-2.7 -3.04,-8.81 0.75,-12.81z"/>
   <path class="fil1" d="M1383.67 1133.81c-44.97,36.86 -65.04,185.66 -46.13,237.5 33.26,20.54 94.11,-16.78 114.86,-75.41 24.88,-70.28 41.5,-147.39 -68.73,-162.09z"/>
   <path class="fil2" d="M1440.71 1182.16c-45.57,2.83 -57.2,14.99 -56.22,30.7 0.51,8.31 4.96,16.72 9.46,25.24 4.9,9.27 9.88,18.71 8.01,25.25 -1.86,6.47 -7.39,12.88 -14.16,20.73 -6.5,7.54 -14.04,16.28 -21.06,27.91 0.74,4.95 5.16,8.39 11,6.63 6.53,-10.83 13.63,-19.06 19.75,-26.15 7.81,-9.06 14.2,-16.46 16.82,-25.6 3.29,-11.45 -2.92,-23.2 -9.01,-34.74 -3.85,-7.3 -7.66,-14.5 -8,-20.02 -0.51,-8.28 8.71,-14.94 44.17,-17.14 2.47,-2.7 3.04,-8.81 -0.75,-12.81z"/>
   <path class="fil3" d="M902 1601.53c-133.92,-5.12 -304.1,-57.51 -378.22,-123.08 -81.97,-72.51 -65.81,-239.69 -105.34,-350.07 -60.94,-170.19 -94.81,-316.45 16.78,-482.08 140.91,-209.15 358.8,-227.67 466.78,-232.96 107.98,5.3 325.86,23.81 466.78,232.96 111.59,165.62 77.72,311.89 16.78,482.08 -39.52,110.39 -23.36,277.56 -105.34,350.07 -74.12,65.56 -244.3,117.95 -378.22,123.08z"/>
   <path class="fil4" d="M818.72 1439.31c26.48,10.4 66.4,8.92 83.29,8.79 16.89,0.13 56.81,1.61 83.28,-8.79 -31.06,0.75 -46.11,0.59 -83.28,0.14 -37.17,0.45 -52.22,0.61 -83.29,-0.14z"/>
   <g>
    <path class="fil5" d="M1293.09 1213.52c-20.35,-56.22 -180.14,-142.37 -273.2,-60.9 -10.65,112.99 60.82,157.01 128.69,153.72 58.45,-2.83 78.95,-16.14 124.18,-54.02 8.9,-9.11 16.03,-24.44 20.33,-38.79z"/>
    <path class="fil6" d="M1045.61 1264.3c39.13,58.77 132.82,56.6 183.97,20.65 -69.38,28.61 -139.77,19.27 -183.97,-20.65z"/>
    <path class="fil6" d="M1003.37 1131.43c52.17,-40.86 147.27,-11.74 207.38,12.57 -59.94,-35.7 -158.19,-69.57 -207.38,-12.57z"/>
    <ellipse class="fil7" cx="1135.25" cy="1200.28" rx="87.82" ry="81.74"/>
    <path class="fil6" d="M1321.37 1205.27c-36.39,-73.48 -254.65,-148.02 -309.21,-45.33 103.54,-62.37 190.91,-26.75 265.25,53.49 1.06,11.21 -1.07,26.83 -4.66,38.88 15.35,-6.75 40.52,-23.65 48.62,-47.04z"/>
    <ellipse class="fil5" transform="matrix(1.75387 0.529948 -0.529948 1.75387 1093.54 1174.29)" rx="11.1" ry="13.38"/>
    <path class="fil8" d="M984.85 1012.71c53.52,-12.02 100.3,-14.63 160.08,-12.9 69.44,2 150.42,10.58 185.63,28.54 -7.42,-25.7 -29.25,-59.54 -71.16,-63.72 -57.27,-5.72 -261.07,-22.01 -274.55,48.09z"/>
    <path class="fil9" d="M1211.16 1174.97c3.04,7.91 4.7,16.42 4.7,25.31 0,41.44 -36.09,75.03 -80.61,75.03 -36.66,0 -67.61,-22.79 -77.39,-53.97l41.07 -11.18c4.59,14.63 19.11,25.33 36.31,25.33 20.89,0 37.83,-15.76 37.83,-35.21 0,-6.7 -2.01,-12.97 -5.51,-18.3l43.59 -7z"/>
   </g>
   <g>
    <path class="fil10" d="M362.35 856.79c3.05,-18.49 28.45,-64.26 94.71,-100.11 8.73,-9.1 14.77,-19.99 27.83,-28.96 19.14,-31.01 70.18,-53.12 130.33,-58.21 15.18,-6.91 27.01,-12.05 54.81,-19.91 14.72,-19.66 43.98,-31.89 63,-15.29 104.32,-16 218.74,-17.15 244.83,-13.28 117.36,82.55 138.83,296.47 68.29,381.28 67.59,-27.32 113.59,-82.69 119.28,-156.79 42.15,140.73 97.03,172.62 152.97,231.23 16.68,5.73 30.13,9.93 43,11.96 4.31,18.85 2.28,71.23 -5.4,148.97 9.13,-0.09 17.97,-4.05 28.48,-24.81 9.88,-19.49 23.65,-49.34 26.34,-58.59 21.29,-73.05 32.2,-81.95 81.26,-135.04 19.71,-21.33 49.56,-108.22 49.56,-142.59 0,-19.58 -19.96,-120.24 24.71,-170.39 -2.19,-37.46 -18.67,-104.61 -31.77,-121.2 -18.5,-23.42 -35.62,-47.84 -50.54,-69.91 -105.41,-76.65 -129.86,-183.43 -367,-267.17 -159.58,-56.35 -331.4,-24.05 -470.31,63.33 -151.96,18.94 -328.73,173.38 -400.71,312.35 -10.56,31.7 -15.65,72.05 -15.4,103.67 48.71,89.03 73.59,198.6 75.07,303.4 18.66,37.22 33.14,71.6 43.22,134.9 13.56,-8.47 24.09,-9.36 32.64,-4.94 16.57,-12.34 20.81,-84.51 7.32,-152.64 -8.81,-44.53 -41.65,-59.63 -26.51,-151.26z"/>
    <path class="fil11" d="M444.71 1249.43c1.52,-21.3 -4.37,-49.13 -7.58,-66.75 -17.61,-96.65 -40.02,-159.91 -40.02,-263.2 0,-28.92 -6.57,-44.47 -4.06,-59.65 2.88,-17.43 40.44,-72.71 65.37,-104.9 -32.24,12.18 -56.52,19.33 -97.63,43.31 14.48,-24.68 82.84,-74.86 124.11,-70.53 24.83,-10.11 102.69,-46.81 130.33,-58.21 -59.4,-4.9 -70.9,-9.54 -149.84,15.44 69.38,-47.4 123.63,-45.36 204.64,-35.36 27.91,-8.77 30.93,-8.67 63,-15.29 -0.57,-125.44 163.23,-140.46 244.83,-13.28 81.07,102.2 109.61,276.94 68.29,381.28 67.59,-27.32 112.7,-175.26 107.05,-281.87 14.58,266.44 73.49,320.22 165.2,356.32 -0.29,-37.22 10.61,-62.72 21.32,-70.61 25.63,41.38 40.05,30.43 60.46,61.84 2.28,3.51 -44.18,165.77 -44.18,169.71 9.13,-0.09 28.55,4.28 39.07,-16.48 9.88,-19.5 22.14,-51.24 24.83,-60.49 21.29,-73.06 39.38,-82.71 88.44,-135.8 19.71,-21.33 48.42,-114.65 48.42,-149.02 0,-75.77 -3.78,-77.09 9.24,-150.49 0.82,-4.62 0.88,-11.24 0.34,-19.15 -44.75,-129.01 -138.96,-194.29 -233.15,-253.73 61.02,13.4 91.96,27.67 150.83,62.62 -77.54,-114.85 -128,-211.81 -363.97,-295.14 -159.59,-56.35 -359.24,-39.01 -473.34,91.31 -151.76,-12.79 -344.33,144.14 -400.71,312.35 27.85,-31.89 58.41,-60.62 88.15,-70.74 -49.22,28.77 -81.28,76.45 -103.55,174.41 1.97,173.85 21.09,196.27 54.02,262.07 8.52,17.03 13.75,26.55 20.98,41.19 27.25,9.97 52.58,-2.68 72.41,-17.27 -17.75,47.41 -5.24,102.27 3.52,147.37 12.44,5.76 19.53,21.93 23.92,41.64 5.38,24.15 20.83,45.98 39.25,47.1z"/>
    <path class="fil10" d="M1274.16 621.42c59.56,129.12 -1.45,278.15 153.39,352.82 -143.49,-146.66 -57.97,-238.13 -153.39,-352.82z"/>
    <path class="fil10" d="M646.73 311.31c-11.52,11.19 -19.03,23.56 -26.88,42.9 -54.43,5.93 -133.18,40.03 -166.68,103.96 58.51,-48.04 121.06,-70.34 156.57,-68.65 -1.61,9.24 -1.71,19.54 -0.75,29.73 -38.43,-0.36 -139.47,53.55 -175.98,129.23 48.86,-56.08 144.97,-94.81 187.3,-94.11 8.64,13.56 14.77,19.51 32.52,34.43 -11.89,-38.53 -13.95,-52.87 -15.27,-85.74 51.86,-84.16 207.94,-166.38 355.59,-115.26 -101.18,-51.75 -229.72,-44.12 -351.47,46.27 1.46,-7.55 3.16,-15.12 5.06,-22.76z"/>
   </g>
   <g>
    <path class="fil5" d="M510.91 1213.52c20.35,-56.22 180.14,-142.37 273.2,-60.9 10.65,112.99 -60.82,157.01 -128.69,153.72 -58.45,-2.83 -78.95,-16.14 -124.18,-54.02 -8.9,-9.11 -16.03,-24.44 -20.33,-38.79z"/>
    <path class="fil6" d="M758.39 1264.3c-39.13,58.77 -132.82,56.6 -183.97,20.65 69.38,28.61 139.77,19.27 183.97,-20.65z"/>
    <path class="fil6" d="M800.64 1131.43c-52.17,-40.86 -147.27,-11.74 -207.38,12.57 59.94,-35.7 158.19,-69.57 207.38,-12.57z"/>
    <ellipse class="fil7" cx="668.75" cy="1200.28" rx="87.82" ry="81.74"/>
    <path class="fil6" d="M482.63 1205.27c36.39,-73.48 254.65,-148.02 309.21,-45.33 -103.54,-62.37 -190.91,-26.75 -265.25,53.49 -1.06,11.21 1.07,26.83 4.66,38.88 -15.35,-6.75 -40.52,-23.65 -48.62,-47.04z"/>
    <ellipse class="fil5" transform="matrix(1.75387 0.529948 -0.529948 1.75387 622.413 1176.66)" rx="11.1" ry="13.38"/>
    <path class="fil8" d="M819.15 1012.71c-53.52,-12.02 -100.3,-14.63 -160.08,-12.9 -69.44,2 -150.42,10.58 -185.63,28.54 7.42,-25.7 29.25,-59.54 71.16,-63.72 57.27,-5.72 261.07,-22.01 274.55,48.09z"/>
    <path class="fil9" d="M591.37 1221.34c9.78,31.19 40.72,53.97 77.39,53.97 44.52,0 80.61,-33.59 80.61,-75.03 0,-8.88 -1.66,-17.4 -4.7,-25.31l-43.59 7.01c3.49,5.33 5.51,11.6 5.51,18.3 0,19.45 -16.93,35.21 -37.83,35.21 -17.2,0 -31.72,-10.69 -36.31,-25.32l-41.07 11.18z"/>
   </g>
  </g>
 </g>
</svg>
