<?xml version="1.0" encoding="UTF-8"?>
<!DOCTYPE svg PUBLIC "-//W3C//DTD SVG 1.1//EN" "http://www.w3.org/Graphics/SVG/1.1/DTD/svg11.dtd">
<!-- Creator: CorelDRAW 2017 -->
<svg xmlns="http://www.w3.org/2000/svg" xml:space="preserve" width="172.156mm" height="172.156mm" version="1.1" style="shape-rendering:geometricPrecision; text-rendering:geometricPrecision; image-rendering:optimizeQuality; fill-rule:evenodd; clip-rule:evenodd"
viewBox="0 0 1444.8 1444.8"
 xmlns:xlink="http://www.w3.org/1999/xlink">
 <defs>
  <style type="text/css">
   <![CDATA[
    .fil0 {fill:none}
    .fil6 {fill:#302A23}
    .fil7 {fill:#54303D}
    .fil8 {fill:#845663}
    .fil9 {fill:#AB1C44}
    .fil10 {fill:#D94562}
    .fil1 {fill:#D9B9A9}
    .fil4 {fill:#DBB8A8}
    .fil3 {fill:#FCE8DE}
    .fil5 {fill:white}
    .fil2 {fill:#AB8A7F;fill-rule:nonzero}
   ]]>
  </style>
 </defs>
 <g id="Capa_x0020_1">
  <metadata id="CorelCorpID_0Corel-Layer"/>
  <rect class="fil0" x="-0" y="-0" width="1444.8" height="1444.8"/>
  <g id="_2256458261456">
   <path class="fil1" d="M330.93 924.24c36.37,29.81 52.6,150.16 37.31,192.08 -26.9,16.61 -76.11,-13.57 -92.9,-60.99 -20.12,-56.84 -33.57,-119.2 55.58,-131.09z"/>
   <path class="fil2" d="M284.8 963.35c36.86,2.29 46.26,12.13 45.47,24.83 -0.42,6.72 -4.01,13.52 -7.65,20.41 -3.96,7.5 -7.99,15.13 -6.48,20.42 1.5,5.23 5.98,10.42 11.45,16.77 5.26,6.1 11.36,13.16 17.03,22.57 -0.6,4 -4.17,6.79 -8.9,5.36 -5.28,-8.76 -11.02,-15.41 -15.97,-21.15 -6.32,-7.33 -11.48,-13.31 -13.61,-20.71 -2.66,-9.26 2.36,-18.76 7.29,-28.1 3.12,-5.9 6.2,-11.73 6.47,-16.19 0.42,-6.7 -7.04,-12.08 -35.72,-13.86 -2,-2.18 -2.46,-7.12 0.61,-10.36z"/>
   <path class="fil1" d="M1110.04 924.24c-36.37,29.81 -52.6,150.16 -37.31,192.08 26.9,16.61 76.11,-13.57 92.9,-60.99 20.12,-56.84 33.57,-119.2 -55.58,-131.09z"/>
   <path class="fil2" d="M1156.17 963.35c-36.86,2.29 -46.26,12.13 -45.47,24.83 0.42,6.72 4.01,13.52 7.65,20.41 3.96,7.5 7.99,15.13 6.48,20.42 -1.5,5.23 -5.98,10.42 -11.45,16.77 -5.26,6.1 -11.36,13.16 -17.03,22.57 0.6,4 4.17,6.79 8.9,5.36 5.28,-8.76 11.02,-15.41 15.97,-21.15 6.32,-7.33 11.48,-13.31 13.61,-20.71 2.66,-9.26 -2.36,-18.76 -7.29,-28.1 -3.12,-5.9 -6.2,-11.73 -6.47,-16.19 -0.42,-6.7 7.04,-12.08 35.72,-13.86 2,-2.18 2.46,-7.12 -0.61,-10.36z"/>
   <path class="fil3" d="M720.48 1302.52c-108.31,-4.14 -245.95,-46.51 -305.89,-99.54 -66.3,-58.65 -53.23,-193.85 -85.19,-283.13 -49.29,-137.64 -76.67,-255.94 13.57,-389.89 113.96,-169.16 290.18,-184.13 377.51,-188.41 87.33,4.28 263.55,19.26 377.51,188.41 90.25,133.95 62.86,252.25 13.57,389.89 -31.96,89.28 -18.9,224.48 -85.19,283.13 -59.94,53.03 -197.58,95.4 -305.89,99.54z"/>
   <path class="fil4" d="M653.13 1171.32c21.41,8.41 53.7,7.21 67.36,7.11 13.66,0.1 45.95,1.3 67.36,-7.11 -25.12,0.61 -37.29,0.48 -67.36,0.11 -30.06,0.36 -42.24,0.49 -67.36,-0.11z"/>
   <g>
    <path class="fil5" d="M1036.59 974.28c-30.57,-64.62 -120.77,-132.93 -217.2,-38.67 -8.6,91.22 41.51,125.43 96.13,130.53 56,5.22 73.56,-4.57 101.27,-39.55 7.18,-7.35 16.33,-40.71 19.8,-52.3z"/>
    <path class="fil6" d="M850.66 1040.12c35.82,35.43 82.5,35.35 124.65,21.89 -43.14,5.26 -89.47,0.01 -124.65,-21.89z"/>
    <path class="fil6" d="M1053.33 982.17c-26.34,-119.56 -196.46,-126.61 -238.81,-39.64 86.64,-85.89 186.28,-48.33 211.1,43.19 0.86,9.05 -5.94,31.14 -8.84,40.87 16.96,-9.17 31.36,-27.05 36.54,-44.41z"/>
    <path class="fil6" d="M799.64 931.36c92.88,-63.11 196.06,-46.71 259.15,14.89 -71.07,-91.43 -187.96,-88.32 -259.15,-14.89z"/>
    <ellipse class="fil7" cx="914.99" cy="982.23" rx="70.73" ry="75.44"/>
    <path class="fil6" d="M790.44 872.06c43.01,-28.03 195.43,-49.26 287.23,-13.78 -84.21,-82.91 -290.95,-59.73 -287.23,13.78z"/>
    <path class="fil8" d="M977.47 961.59c1.89,6.52 2.91,13.45 2.91,20.64 0,38.52 -29.28,69.74 -65.39,69.74 -30.53,0 -56.18,-22.32 -63.37,-52.5l31.9 -8.68c3.57,14.99 16.31,26.07 31.47,26.07 17.94,0 32.47,-15.51 32.47,-34.64 0,-5.49 -1.2,-10.68 -3.33,-15.28l33.33 -5.36z"/>
    <ellipse class="fil5" transform="matrix(1.71326 0.640222 -0.640222 1.71326 883.508 956.058)" rx="8.97" ry="12.49"/>
   </g>
   <g>
    <path class="fil9" d="M284.04 700.2c2.47,-14.95 3.44,-60.53 57.03,-89.52 10.98,-11.45 124.54,-60 147.48,-61.94 12.27,-5.59 21.84,-9.75 44.33,-16.1 -0.63,-8.25 17.21,-14.23 25.26,-7.07 34.84,-12.33 103.27,-16.41 124.37,-13.28 94.91,66.76 75.25,259.03 155.18,313.56 14.46,-63.1 91.25,-74.82 95.86,-134.75 34.09,113.82 78.47,139.61 123.71,187.01 13.49,4.63 24.37,8.03 34.78,9.67 3.48,15.24 6.09,56.58 -0.12,119.46 11.61,-28.89 29.24,-58.07 33.37,-72.24 17.21,-59.08 14.43,-71.48 54.1,-114.41 15.94,-17.25 -7.62,-70.4 -7.62,-98.2 0,-15.83 -16.14,-97.25 19.98,-137.81 -1.77,-30.29 -59.13,-55.26 -69.73,-68.67 -14.96,-18.94 -28.81,-38.69 -40.88,-56.54 -85.25,-61.99 5.04,-183.82 -186.74,-251.54 -129.07,-45.57 -268.02,-19.45 -380.37,51.22 -82.39,10.27 -186.04,56.35 -224.31,176.03 -14.91,46.64 -80.58,39.55 -99.77,76.59 -8.54,25.64 -14.95,52.5 -14.75,78.07 4.01,6.14 8.73,10 15.16,17.09 25.34,63.2 44.4,209.79 45.34,276.76 14.24,18.89 18.3,49.46 37.46,66.41 10.97,-6.85 19.49,-7.57 26.4,-3.99 13.4,-9.98 16.83,-68.35 5.92,-123.45 -7.13,-36.02 -33.68,-48.23 -21.44,-122.34z"/>
    <path class="fil10" d="M350.64 1017.75c1.23,-17.23 -3.54,-39.73 -6.13,-53.98 -14.24,-78.17 -32.36,-129.33 -32.36,-212.86 0,-23.39 -6.53,-36.23 -3.28,-48.24 21.54,-79.75 65.37,-100.72 179.69,-153.93 -48.04,-3.96 -57.34,-7.71 -121.18,12.49 56.12,-38.33 99.99,-36.69 165.51,-28.6 6,-1.95 10.81,-3.89 25.26,-7.07 -51.82,-112.46 136.75,-141.59 124.47,-15.49 -5.9,133.75 -31.64,319.44 155.08,315.77 -4.95,-17.85 0.24,-50.19 17.75,-66.52 3.84,101.75 166.18,123.82 201.82,118.77 -0.23,-30.1 8.58,-50.73 17.24,-57.11 20.73,33.46 32.39,24.61 48.9,50.01 1.84,2.84 -31.61,133.9 -31.61,137.08 24.93,-43.98 86.47,-136.61 119.09,-171.91 15.94,-17.25 14.7,-120.85 14.7,-148.65 18.19,7.87 25.88,16.66 26.41,50.65 41.87,-60.78 6.82,-121.87 -31.16,-165.02 21.45,18.28 81.43,-9.09 80.99,-15.49 -67.16,-23.89 -94.67,-57.04 -110.6,-133.77 -35.81,-73.32 -103.52,-171.31 -294.37,-238.7 -129.07,-45.58 -290.54,-31.55 -382.82,73.85 -122.74,-10.35 -213.2,9.86 -258.8,145.9 -45.27,30.12 -62.72,67.1 -89.52,87.23 -26.37,19.81 -15.67,66.74 9.48,97.56 9.73,-10.91 16.45,-20.87 39.18,-29.02 -10.65,13.99 -19.2,35.66 -23.34,44.61 -28.62,62.87 -47.78,154.48 -5.09,200.85 24.8,26.94 17.84,52.74 49.76,77.4 5.82,-9.01 13.48,-13.79 24.01,-31.7 -1.21,44.46 14.41,84.55 39.84,94.11 10.06,4.66 15.8,17.73 19.35,33.68 4.35,19.53 16.84,37.19 31.74,38.09z"/>
    <path class="fil9" d="M1099.39 575.75c33.6,79.03 38.96,128.79 32.08,238.11 38.17,-115.75 15.37,-179.66 -32.08,-238.11z"/>
    <path class="fil9" d="M514.03 259.03c-9.32,9.05 -15.39,19.05 -21.74,34.7 -44.02,4.8 -107.71,32.37 -134.81,84.08 47.32,-38.85 97.91,-56.89 126.63,-55.52 11.77,0.21 19.39,4.12 22.5,10.95 41.94,-68.06 168.17,-134.56 287.59,-93.22 -81.83,-41.86 -185.79,-35.68 -284.26,37.42 1.19,-6.11 2.56,-12.23 4.1,-18.41z"/>
   </g>
   <g>
    <path class="fil5" d="M404.38 974.28c30.57,-64.62 120.77,-132.93 217.2,-38.67 8.6,91.22 -41.5,125.43 -96.13,130.53 -56,5.22 -73.56,-4.57 -101.27,-39.55 -7.18,-7.35 -16.33,-40.71 -19.8,-52.3z"/>
    <path class="fil6" d="M590.31 1040.12c-35.82,35.43 -82.5,35.35 -124.65,21.89 43.14,5.26 89.47,0.01 124.65,-21.89z"/>
    <path class="fil6" d="M387.64 982.17c26.34,-119.56 196.46,-126.61 238.81,-39.64 -86.64,-85.89 -186.28,-48.33 -211.1,43.19 -0.86,9.05 5.94,31.14 8.84,40.87 -16.96,-9.17 -31.36,-27.05 -36.54,-44.41z"/>
    <path class="fil6" d="M641.33 931.36c-92.88,-63.11 -196.06,-46.71 -259.15,14.89 71.07,-91.43 187.96,-88.32 259.15,-14.89z"/>
    <ellipse class="fil7" cx="525.98" cy="982.23" rx="70.73" ry="75.44"/>
    <path class="fil6" d="M650.53 872.06c-43.01,-28.03 -195.43,-49.26 -287.23,-13.78 84.21,-82.91 290.95,-59.73 287.23,13.78z"/>
    <path class="fil8" d="M462.61 999.48c7.2,30.17 32.84,52.5 63.37,52.5 36.11,0 65.39,-31.23 65.39,-69.74 0,-7.19 -1.02,-14.12 -2.91,-20.64l-33.33 5.36c2.13,4.61 3.33,9.8 3.33,15.28 0,19.13 -14.54,34.64 -32.47,34.64 -15.16,0 -27.9,-11.08 -31.47,-26.07l-31.9 8.68z"/>
    <ellipse class="fil5" transform="matrix(1.71326 0.640222 -0.640222 1.71326 493.166 954.461)" rx="8.97" ry="12.49"/>
   </g>
  </g>
 </g>
</svg>
