<?xml version="1.0" encoding="UTF-8"?>
<!DOCTYPE svg PUBLIC "-//W3C//DTD SVG 1.1//EN" "http://www.w3.org/Graphics/SVG/1.1/DTD/svg11.dtd">
<!-- Creator: CorelDRAW 2017 -->
<svg xmlns="http://www.w3.org/2000/svg" xml:space="preserve" width="172.156mm" height="172.156mm" version="1.1" style="shape-rendering:geometricPrecision; text-rendering:geometricPrecision; image-rendering:optimizeQuality; fill-rule:evenodd; clip-rule:evenodd"
viewBox="0 0 2318.99 2318.99"
 xmlns:xlink="http://www.w3.org/1999/xlink">
 <defs>
  <style type="text/css">
   <![CDATA[
    .fil0 {fill:none}
    .fil8 {fill:#0D1517}
    .fil9 {fill:#33131E}
    .fil5 {fill:#372517}
    .fil10 {fill:#492F30}
    .fil6 {fill:#61432B}
    .fil1 {fill:#D9B9A9}
    .fil4 {fill:#DBB8A8}
    .fil3 {fill:#FCE8DE}
    .fil7 {fill:white}
    .fil2 {fill:#AB8A7F;fill-rule:nonzero}
   ]]>
  </style>
 </defs>
 <g id="Capa_x0020_1">
  <metadata id="CorelCorpID_0Corel-Layer"/>
  <rect class="fil0" x="-0" y="-0" width="2318.99" height="2318.99"/>
  <g id="_2256455952816">
   <path class="fil1" d="M510.12 1445.23c58.37,47.85 84.42,241.01 59.89,308.3 -43.17,26.66 -122.16,-21.78 -149.11,-97.9 -32.3,-91.24 -53.88,-191.33 89.22,-210.41z"/>
   <path class="fil2" d="M436.08 1508c59.16,3.68 74.25,19.46 72.98,39.86 -0.67,10.79 -6.44,21.7 -12.28,32.76 -6.36,12.04 -12.83,24.29 -10.4,32.77 2.41,8.39 9.59,16.72 18.38,26.91 8.44,9.78 18.23,21.13 27.34,36.23 -0.96,6.43 -6.69,10.89 -14.28,8.61 -8.48,-14.06 -17.69,-24.74 -25.64,-33.95 -10.15,-11.76 -18.43,-21.37 -21.84,-33.23 -4.27,-14.86 3.79,-30.12 11.7,-45.1 5,-9.48 9.95,-18.83 10.39,-25.98 0.67,-10.75 -11.31,-19.39 -57.33,-22.25 -3.21,-3.5 -3.95,-11.43 0.98,-16.63z"/>
   <path class="fil1" d="M1760.65 1445.23c-58.37,47.85 -84.43,241.01 -59.89,308.3 43.17,26.66 122.16,-21.78 149.1,-97.9 32.3,-91.24 53.88,-191.33 -89.22,-210.41z"/>
   <path class="fil2" d="M1834.68 1508c-59.16,3.68 -74.25,19.46 -72.98,39.86 0.67,10.79 6.44,21.7 12.28,32.76 6.36,12.04 12.83,24.29 10.4,32.77 -2.41,8.39 -9.59,16.72 -18.38,26.91 -8.44,9.78 -18.23,21.13 -27.34,36.23 0.96,6.43 6.69,10.89 14.28,8.61 8.48,-14.06 17.69,-24.74 25.64,-33.95 10.14,-11.76 18.43,-21.37 21.84,-33.23 4.27,-14.86 -3.79,-30.12 -11.7,-45.1 -5,-9.48 -9.95,-18.83 -10.39,-25.98 -0.67,-10.75 11.31,-19.39 57.33,-22.25 3.21,-3.5 3.95,-11.43 -0.98,-16.63z"/>
   <path class="fil3" d="M1135.38 2052.38c-173.84,-6.65 -394.76,-74.66 -490.97,-159.77 -106.41,-94.13 -85.43,-311.14 -136.74,-454.44 -79.11,-220.92 -123.07,-410.79 21.78,-625.79 182.92,-271.5 465.76,-295.54 605.93,-302.41 140.17,6.87 423.01,30.91 605.93,302.41 144.85,215 100.89,404.87 21.78,625.79 -51.31,143.29 -30.33,360.31 -136.74,454.44 -96.21,85.11 -317.14,153.12 -490.97,159.77z"/>
   <path class="fil4" d="M1027.27 1841.81c34.37,13.49 86.2,11.58 108.11,11.41 21.92,0.17 73.75,2.08 108.11,-11.41 -40.32,0.97 -59.86,0.77 -108.11,0.18 -48.26,0.58 -67.79,0.79 -108.11,-0.18z"/>
   <g>
    <path class="fil5" d="M717.63 1211.39c67.91,-65.96 106.3,-261.32 135.89,-322.07 28.19,-13.98 62.03,-28.37 84.42,-24.36 68.13,-21.44 138.04,-31.95 203.95,-27.56 206.02,100.9 79.04,453.04 -190.05,339.74 243.88,223.16 536.57,72.14 570.33,-28.65 -18.59,67.32 -27.03,184.06 238.48,296.73 -19.31,41.49 -32.89,102.55 -32.59,156.44 32.8,-104.94 55.81,-134.39 133.57,-103.26 135.21,-47.99 169.04,-279.22 141.06,-400.59 -35.8,-227.25 -468.13,-427.47 -668.41,-480.28 -342.82,-34.33 -406.32,-26.98 -696.14,154.09 -306.96,283.45 -127.69,493.43 -330.9,499.3 18.52,79.21 184.43,246.04 239.12,355.4 -11.11,-92.05 -21.93,-182.11 -43.1,-232.15 58.67,-10.26 116.81,-7.1 214.39,-182.8z"/>
    <path class="fil6" d="M307.22 1270.94c39.94,90.73 176.3,153.23 185.64,82.48 171.58,-46.48 209.35,-144.32 248.91,-309.8 -9.82,94.19 -11.29,148.32 -40.95,212.12 99.84,-70.21 119.46,-197.3 152.7,-366.42 -6.91,-103.79 63.79,-121.03 84.42,-24.36 57.18,-206.51 174.81,-106.18 203.95,-27.56 105.37,129.8 103.86,382.47 -190.05,339.74 263.6,246.73 638.82,-24.35 541.16,-278.85 107.45,175.78 27.9,329.74 79.35,381.5 99.2,67.28 252,83.26 335.16,16.53 4.51,15.96 6.17,28.42 2.23,43.85 101.55,-84.89 78.6,-172.52 58.64,-285.52 59.04,66.65 76.13,113.22 88.62,197.73 36.76,-91.19 25.56,-157.71 -28.84,-247.92 -32.13,-53.27 -32.89,-68.31 -74.66,-106.92 44.67,22.59 95.32,45.29 156,28.75 -131.06,-3.05 -157.3,-200.45 -273.33,-309.14 -72.53,-67.94 -162.56,-83.94 -206.2,-103.2 -134.27,-59.27 -394.37,-384.98 -610.33,-129.36 -118.21,-43.11 -129.24,43.11 -240.35,41.49 -99.67,-1.46 -139.54,27.59 -220.15,98.46 -114.72,100.84 -113.66,197.21 -238.25,182.48 19.92,20.66 40.15,28.89 74.84,31.99 -84.3,57.48 -207.36,198.39 -166.85,438.01 10.66,-65.65 30.84,-118.71 59.37,-154.12 -7.3,38.79 -13.02,194.18 18.97,248.05z"/>
    <path class="fil5" d="M809.82 622.38c-141.1,115.11 -168.4,235.5 -181.77,345.34 -16.88,138.78 -11.52,260.72 -185.31,333.85 131.45,-112.71 128.44,-225.27 138.95,-337.67 10.66,-114 35.23,-227.85 228.13,-341.52z"/>
    <path class="fil5" d="M1575.1 799.48c88.26,72 105.34,147.31 113.7,216.02 10.56,86.81 7.2,163.09 115.92,208.83 -82.23,-70.5 -80.34,-140.92 -86.92,-211.22 -6.67,-71.31 -22.04,-142.53 -142.7,-213.63z"/>
   </g>
   <g>
    <path class="fil7" d="M1650.02 1582.24c-48.43,-122.2 -210.16,-218.54 -347.41,-110.91 -0.19,66.27 20.4,122.38 54.38,153.05 24.23,21.87 54.1,29.09 85.71,34.7 67.23,11.94 141.54,-2.33 180.45,-31.78 18.62,-20.72 25.79,-41.48 26.86,-45.06z"/>
    <path class="fil8" d="M1338.82 1603.81c26.82,54.66 131.86,79.06 214.02,53.05 -98.21,8.9 -165.04,-9.31 -214.02,-53.05z"/>
    <path class="fil8" d="M1675.53 1571.97c-69.6,-159.14 -315.67,-223.07 -382.97,-90.59 141.93,-90.87 288.28,-31.8 338.49,106.79 0.63,14.06 -2.3,28.99 -7.89,39.13 16.74,-7.16 43.38,-27.46 52.37,-55.33z"/>
    <path class="fil8" d="M1286.18 1432.31c57.97,-21.7 202.4,-10.94 272.73,20.42 -54.99,-58.12 -216.83,-66.31 -272.73,-20.42z"/>
    <ellipse class="fil9" cx="1459.24" cy="1545.66" rx="101.1" ry="101.59"/>
    <ellipse class="fil7" transform="matrix(1.27753 0.386017 -0.386017 1.27753 1408.93 1507.1)" rx="14.41" ry="17.37"/>
    <path class="fil8" d="M1281.26 1357.03c165.79,-83.8 324.09,-66.45 415.02,-2.8 -110.22,-140.49 -312.6,-87.78 -415.02,2.8z"/>
    <path class="fil10" d="M1546.44 1514.63c3.42,9.7 5.29,20.15 5.29,31.03 0,51.33 -41.41,92.94 -92.49,92.94 -42.71,0 -78.66,-29.1 -89.29,-68.64l44.36 -12.07c5.35,19.9 23.44,34.54 44.93,34.54 25.7,0 46.54,-20.94 46.54,-46.76 0,-8.56 -2.29,-16.58 -6.29,-23.48l46.95 -7.54z"/>
   </g>
   <g>
    <path class="fil7" d="M620.74 1582.24c48.43,-122.2 210.16,-218.54 347.41,-110.91 0.18,66.27 -20.4,122.38 -54.38,153.05 -24.23,21.87 -54.1,29.09 -85.71,34.7 -67.23,11.94 -141.54,-2.33 -180.45,-31.78 -18.62,-20.72 -25.79,-41.48 -26.86,-45.06z"/>
    <path class="fil8" d="M931.95 1603.81c-26.82,54.66 -131.86,79.06 -214.02,53.05 98.21,8.9 165.04,-9.31 214.02,-53.05z"/>
    <path class="fil8" d="M595.23 1571.97c69.6,-159.14 315.67,-223.07 382.97,-90.59 -141.93,-90.87 -288.28,-31.8 -338.49,106.79 -0.63,14.06 2.3,28.99 7.89,39.13 -16.74,-7.16 -43.38,-27.46 -52.37,-55.33z"/>
    <path class="fil8" d="M984.58 1432.31c-57.97,-21.7 -202.4,-10.94 -272.73,20.42 54.99,-58.12 216.83,-66.31 272.73,-20.42z"/>
    <ellipse class="fil9" cx="811.53" cy="1545.66" rx="101.1" ry="101.59"/>
    <path class="fil8" d="M989.51 1357.03c-165.79,-83.8 -324.08,-66.45 -415.02,-2.8 110.22,-140.49 312.6,-87.78 415.02,2.8z"/>
    <path class="fil10" d="M722.24 1569.96c10.63,39.54 46.58,68.64 89.29,68.64 51.08,0 92.49,-41.61 92.49,-92.94 0,-10.88 -1.87,-21.32 -5.29,-31.03l-46.95 7.54c4,6.9 6.29,14.92 6.29,23.48 0,25.83 -20.83,46.76 -46.54,46.76 -21.49,0 -39.58,-14.64 -44.93,-34.54l-44.36 12.07z"/>
    <ellipse class="fil7" transform="matrix(1.27753 0.386017 -0.386017 1.27753 761.215 1505.29)" rx="14.41" ry="17.37"/>
   </g>
  </g>
 </g>
</svg>
