<?xml version="1.0" encoding="UTF-8"?>
<!DOCTYPE svg PUBLIC "-//W3C//DTD SVG 1.1//EN" "http://www.w3.org/Graphics/SVG/1.1/DTD/svg11.dtd">
<!-- Creator: CorelDRAW 2017 -->
<svg xmlns="http://www.w3.org/2000/svg" xml:space="preserve" width="58.4725mm" height="13.758mm" version="1.1" style="shape-rendering:geometricPrecision; text-rendering:geometricPrecision; image-rendering:optimizeQuality; fill-rule:evenodd; clip-rule:evenodd"
viewBox="0 0 737.5 173.53"
 xmlns:xlink="http://www.w3.org/1999/xlink">
 <defs>
  <style type="text/css">
   <![CDATA[
    .fil2 {fill:#512E61}
    .fil1 {fill:#BC2990}
    .fil3 {fill:#FEFEFE;fill-rule:nonzero}
    .fil0 {fill:#1B0D3E;fill-rule:nonzero}
   ]]>
  </style>
 </defs>
 <g id="Capa_x0020_1">
  <metadata id="CorelCorpID_0Corel-Layer"/>
  <path class="fil0" d="M445.84 73.47l-4.67 2.9c-4.05,-5.35 -9.59,-8.02 -16.6,-8.02 -5.61,0 -10.26,1.8 -13.97,5.38 -3.69,3.58 -5.55,7.92 -5.55,13.04 0,3.33 0.85,6.47 2.56,9.4 1.7,2.93 4.04,5.22 7.01,6.84 2.96,1.62 6.3,2.43 9.99,2.43 6.76,0 12.27,-2.67 16.56,-8.02l4.67 3.08c-2.2,3.29 -5.15,5.84 -8.84,7.66 -3.71,1.81 -7.92,2.72 -12.65,2.72 -7.27,0 -13.3,-2.3 -18.08,-6.89 -4.79,-4.6 -7.17,-10.18 -7.17,-16.76 0,-4.41 1.12,-8.52 3.36,-12.32 2.23,-3.8 5.3,-6.76 9.21,-8.88 3.92,-2.13 8.29,-3.19 13.14,-3.19 3.05,0 5.98,0.46 8.81,1.38 2.82,0.92 5.22,2.13 7.19,3.61 1.98,1.48 3.65,3.36 5.03,5.65zm9.06 -9.52l6.04 0 0 6.7c1.8,-2.64 3.69,-4.6 5.69,-5.89 2,-1.28 4.08,-1.93 6.24,-1.93 1.64,0 3.38,0.52 5.23,1.55l-3.08 4.94c-1.24,-0.53 -2.27,-0.8 -3.12,-0.8 -1.97,0 -3.87,0.8 -5.69,2.41 -1.83,1.61 -3.22,4.13 -4.18,7.52 -0.73,2.6 -1.09,7.88 -1.09,15.81l0 15.48 -6.04 0 0 -45.79zm66.85 30.62l4.97 2.62c-1.64,3.18 -3.52,5.75 -5.66,7.7 -2.14,1.94 -4.54,3.44 -7.21,4.46 -2.69,1.02 -5.71,1.52 -9.08,1.52 -7.5,0 -13.35,-2.44 -17.58,-7.33 -4.23,-4.89 -6.34,-10.41 -6.34,-16.56 0,-5.79 1.8,-10.97 5.38,-15.49 4.53,-5.76 10.61,-8.65 18.21,-8.65 7.83,0 14.1,2.96 18.77,8.87 3.32,4.17 5.02,9.37 5.07,15.62l-41.4 0c0.11,5.3 1.83,9.64 5.12,13.02 3.31,3.39 7.39,5.09 12.23,5.09 2.34,0 4.63,-0.4 6.84,-1.21 2.21,-0.8 4.1,-1.87 5.65,-3.2 1.55,-1.34 3.23,-3.48 5.03,-6.45zm0.06 -12.33c-0.79,-3.15 -1.94,-5.65 -3.45,-7.53 -1.52,-1.88 -3.52,-3.39 -6.01,-4.54 -2.49,-1.15 -5.1,-1.73 -7.83,-1.73 -4.53,0 -8.41,1.44 -11.66,4.33 -2.39,2.11 -4.17,5.26 -5.39,9.47l34.34 0zm62.94 -18.28l0 45.79 -5.86 0 0 -7.88c-2.47,3 -5.23,5.26 -8.31,6.76 -3.06,1.49 -6.42,2.24 -10.06,2.24 -6.47,0 -12,-2.34 -16.59,-7.03 -4.59,-4.7 -6.87,-10.39 -6.87,-17.12 0,-6.57 2.31,-12.2 6.94,-16.87 4.61,-4.67 10.18,-7.01 16.69,-7.01 3.75,0 7.14,0.79 10.19,2.37 3.03,1.58 5.71,3.97 8.01,7.17l0 -8.42 5.86 0zm-23.6 4.57c-3.28,0 -6.31,0.8 -9.07,2.41 -2.77,1.6 -4.97,3.85 -6.61,6.76 -1.64,2.9 -2.46,5.98 -2.46,9.23 0,3.21 0.82,6.28 2.47,9.21 1.65,2.93 3.87,5.22 6.66,6.84 2.79,1.64 5.78,2.46 8.97,2.46 3.2,0 6.27,-0.8 9.14,-2.43 2.89,-1.62 5.1,-3.81 6.66,-6.58 1.55,-2.76 2.33,-5.88 2.33,-9.34 0,-5.27 -1.74,-9.69 -5.23,-13.24 -3.48,-3.55 -7.76,-5.32 -12.85,-5.32zm41.99 -21.65l5.86 0 0 17.08 9.31 0 0 5.09 -9.31 0 0 40.71 -5.86 0 0 -40.71 -8.02 0 0 -5.09 8.02 0 0 -17.08zm26.19 -1.73c1.34,0 2.47,0.47 3.42,1.44 0.95,0.95 1.42,2.11 1.42,3.45 0,1.32 -0.47,2.47 -1.42,3.42 -0.95,0.96 -2.08,1.44 -3.42,1.44 -1.32,0 -2.44,-0.48 -3.39,-1.44 -0.95,-0.95 -1.42,-2.1 -1.42,-3.42 0,-1.34 0.48,-2.5 1.42,-3.45 0.95,-0.96 2.07,-1.44 3.39,-1.44zm-2.92 18.8l5.86 0 0 45.79 -5.86 0 0 -45.79zm13.81 0l6.17 0 15.42 33.43 15.31 -33.43 6.31 0 -20.96 45.79 -1.12 0 -21.13 -45.79zm90.77 30.62l4.97 2.62c-1.64,3.18 -3.52,5.75 -5.66,7.7 -2.14,1.94 -4.54,3.44 -7.21,4.46 -2.69,1.02 -5.71,1.52 -9.08,1.52 -7.5,0 -13.35,-2.44 -17.58,-7.33 -4.23,-4.89 -6.34,-10.41 -6.34,-16.56 0,-5.79 1.8,-10.97 5.38,-15.49 4.53,-5.76 10.61,-8.65 18.21,-8.65 7.83,0 14.1,2.96 18.77,8.87 3.32,4.17 5.02,9.37 5.07,15.62l-41.4 0c0.11,5.3 1.83,9.64 5.12,13.02 3.31,3.39 7.39,5.09 12.23,5.09 2.34,0 4.63,-0.4 6.84,-1.21 2.21,-0.8 4.1,-1.87 5.65,-3.2 1.55,-1.34 3.23,-3.48 5.03,-6.45zm0.06 -12.33c-0.79,-3.15 -1.94,-5.65 -3.45,-7.53 -1.52,-1.88 -3.52,-3.39 -6.01,-4.54 -2.49,-1.15 -5.1,-1.73 -7.83,-1.73 -4.53,0 -8.41,1.44 -11.66,4.33 -2.39,2.11 -4.17,5.26 -5.39,9.47l34.34 0z"/>
  <rect class="fil1" x="-0" width="351.65" height="173.53" rx="3.14" ry="4.83"/>
  <path class="fil2" d="M4.83 0l333.38 0 -336.83 172.06c-0.85,-0.87 -1.37,-2.06 -1.37,-3.36l0 -163.87c0,-2.66 2.17,-4.83 4.83,-4.83z"/>
  <path class="fil3" d="M57.04 77.79l35.68 0 0 -31.78 14.18 0 5.55 0 13.33 36.72c2.22,6.12 4.33,12.7 6.28,19.73l0.35 0c1.69,-6.08 3.78,-12.6 6.28,-19.55l13.33 -36.9 19.85 0 0 77.15 -14.18 0 0 -39.09c0,-5.73 0.24,-12.39 0.69,-19.97l-0.51 0c-0.65,2.2 -1.42,4.67 -2.3,7.38 -0.89,2.74 -1.81,5.43 -2.78,8.07l-15.95 43.6 -9.1 0 -15.95 -43.6c-0.96,-2.64 -1.89,-5.34 -2.78,-8.07 -0.81,-2.47 -1.52,-4.73 -2.13,-6.78l0 58.45 -0 0 -14.18 0 0 -33.55 -35.68 0 0 33.55 -14.18 0 0 -77.15 14.18 0 0 31.78zm217.48 -21.38c-3.84,0 -7.4,0.63 -10.65,1.91 -3.25,1.26 -6.03,3.11 -8.35,5.53 -2.34,2.42 -4.15,5.41 -5.45,8.98 -1.32,3.56 -1.97,7.64 -1.97,12.21 0,4.55 0.59,8.55 1.79,11.99 1.18,3.45 2.89,6.32 5.14,8.63 2.22,2.3 4.94,4.06 8.15,5.24 3.21,1.16 6.85,1.75 10.93,1.75 2.93,0 5.91,-0.22 8.94,-0.67 3.05,-0.43 5.89,-1.08 8.55,-1.93l0 12.07c-2.7,0.77 -5.59,1.36 -8.7,1.81 -3.13,0.43 -6.36,0.65 -9.71,0.65 -6.54,0 -12.29,-0.93 -17.25,-2.8 -4.94,-1.87 -9.1,-4.51 -12.45,-7.92 -3.33,-3.41 -5.85,-7.48 -7.52,-12.23 -1.67,-4.75 -2.52,-10 -2.52,-15.73 0,-5.89 0.91,-11.34 2.7,-16.38 1.79,-5.04 4.37,-9.41 7.76,-13.09 3.37,-3.7 7.58,-6.6 12.64,-8.72 5.06,-2.11 10.79,-3.19 17.17,-3.23 3.27,0 6.36,0.22 9.29,0.65 2.91,0.45 5.55,1.06 7.9,1.87l0 11.89c-3.07,-0.92 -5.95,-1.56 -8.61,-1.93 -2.64,-0.37 -5.24,-0.55 -7.78,-0.55zm-57.22 0c-3.84,0 -7.4,0.63 -10.65,1.91 -3.25,1.26 -6.03,3.11 -8.35,5.53 -2.34,2.42 -4.15,5.41 -5.45,8.98 -1.32,3.56 -1.97,7.64 -1.97,12.21 0,4.55 0.59,8.55 1.79,11.99 1.18,3.45 2.89,6.32 5.14,8.63 2.22,2.3 4.94,4.06 8.15,5.24 3.21,1.16 6.85,1.75 10.93,1.75 2.93,0 5.91,-0.22 8.94,-0.67 3.05,-0.43 5.89,-1.08 8.55,-1.93l0 12.07c-2.7,0.77 -5.59,1.36 -8.7,1.81 -3.13,0.43 -6.36,0.65 -9.71,0.65 -6.54,0 -12.29,-0.93 -17.25,-2.8 -4.94,-1.87 -9.1,-4.51 -12.45,-7.92 -3.33,-3.41 -5.85,-7.48 -7.52,-12.23 -1.67,-4.75 -2.52,-10 -2.52,-15.73 0,-5.89 0.91,-11.34 2.7,-16.38 1.79,-5.04 4.37,-9.41 7.76,-13.09 3.37,-3.7 7.58,-6.6 12.64,-8.72 5.06,-2.11 10.79,-3.19 17.17,-3.23 3.27,0 6.36,0.22 9.29,0.65 2.91,0.45 5.55,1.06 7.9,1.87l0 11.89c-3.07,-0.92 -5.95,-1.56 -8.61,-1.93 -2.64,-0.37 -5.24,-0.55 -7.78,-0.55z"/>
 </g>
</svg>
